<?xml version="1.0" encoding="utf-8"?>
<!-- Generator: Adobe Illustrator 19.2.1, SVG Export Plug-In . SVG Version: 6.00 Build 0)  -->
<svg version="1.1" id="Capa_1" xmlns="http://www.w3.org/2000/svg" xmlns:xlink="http://www.w3.org/1999/xlink" x="0px" y="0px"
	 viewBox="0 0 1030.28 841.89" enable-background="new 0 0 1030.28 841.89" xml:space="preserve">
<g>
	<path fill="#FFFFFF" d="M729.012,139.092c-3.55-1.114-7.665,0.624-9.353,4.298c-0.907,1.934-1.397,4.101-1.813,6.219
		c-4.504,22.417-8.888,44.857-13.454,67.261c-1.017,4.996-2.278,10.027-4.102,14.777c-1.444,3.807-3.648,7.419-6.023,10.761
		c-2.339,3.306-5.913,5.166-9.978,5.754c-6.636,0.93-9.867-1.812-9.61-8.447c0.134-3.318,0.735-6.648,1.37-9.929
		c2.767-13.921,5.656-27.816,8.436-41.735c2.045-10.235,4.175-20.457,5.95-30.753c0.784-4.506-1.212-7.383-4.725-8.289
		c-3.661-0.954-7.481,0.919-9.134,4.75c-0.784,1.788-1.187,3.758-1.591,5.682c-3.967,19.502-7.812,39.029-11.876,58.519
		c-1.531,7.321-3.158,14.668-5.46,21.768c-1.42,4.407-3.845,8.619-6.415,12.524c-2.34,3.55-6.085,5.57-10.444,5.95
		c-4.175,0.367-6.611-1.089-7.26-5.166c-0.525-3.232-0.501-6.71,0.11-9.916c2.24-11.814,4.885-23.544,7.285-35.32
		c1.323-6.563,2.485-13.161,3.612-19.76c0.355-2.117,0.379-4.321,0.379-6.489c0.013-12.609-4.664-18.058-16.98-19.882
		c-6.673-0.979-9.648-3-10.504-5.803c-0.356-3.158-0.649-6.158-1.225-9.097c-1.971-9.794-6.183-18.364-14.813-23.995
		c-8.411-5.497-17.227-5.351-25.625-0.087c-7.908,4.971-10.356,12.696-8.814,21.584c1.225,7.077,4.799,13.137,11.104,16.724
		c5.093,2.901,10.701,4.922,16.173,7.088c1.42,0.563,2.888,0.979,4.407,1.384c-2.362,11.299-4.738,22.6-7.112,33.911
		c-3.233,15.426-6.257,30.914-9.844,46.266c-1.42,6.073-3.844,11.974-6.402,17.69c-1.983,4.457-5.841,7.419-10.591,8.852
		c-5.337,1.603-9.12-0.624-9.757-6.183c-0.355-3.257,0.025-6.697,0.637-9.941c3.232-17.446,6.697-34.843,9.965-52.276
		c2.535-13.492-2.007-23.58-13.773-30.545c-3.036-1.8-6.366-3.11-9.562-4.628c-1.395-0.661-2.792-1.272-4.003-1.824
		c-0.539-4.285-0.809-8.226-1.567-12.071c-1.972-9.794-6.196-18.376-14.802-23.995c-8.411-5.51-17.225-5.363-25.636-0.087
		c-7.909,4.959-10.358,12.696-8.816,21.573c1.225,7.076,4.788,13.148,11.117,16.735c5.08,2.89,10.675,4.909,16.147,7.088
		c2.718,1.078,5.633,1.616,8.619,2.45c-0.085,2.277-0.098,4.224-0.244,6.158c-1.567,21.351-5.827,42.152-13.076,62.303
		c-3.819,10.615-8.532,20.812-15.291,29.934c-5.485,7.419-12.01,13.541-21.032,16.527c-10.43,3.453-18.278-1.187-19.491-12.157
		c-0.478-4.236,0.074-8.643,0.575-12.928c0.698-6.06,1.788-6.856,7.835-7.187c11.152-0.612,20.984-4.37,27.827-13.454
		c8.937-11.851,11.827-25.551,10.64-40.205c-0.074-0.772-0.331-1.543-0.539-2.314c-2.559-9.427-9.525-14.361-19.282-13.921
		c-12.059,0.527-20.567,6.746-25.771,17.091c-3.33,6.623-5.778,13.823-7.627,21.021c-3.011,11.63-5.472,23.42-7.627,35.246
		c-1.187,6.55-1.983,13.32-1.726,19.931c0.515,13.884,10.872,24.058,24.584,24.878c3.122,0.172,6.33-0.11,9.402-0.599
		c12.352-1.983,21.669-8.999,29.53-18.254c9.842-11.594,16.27-25.097,21.436-39.251c7.137-19.551,11.324-39.776,13.626-60.43
		c0.27-2.387,0.98-4.725,1.506-7.173c8.595,3.134,12.097,7.798,11.876,15.633c-0.085,2.926-0.648,5.865-1.2,8.754
		c-3.036,16.087-6.134,32.137-9.243,48.199c-1.225,6.342-0.979,12.537,1.163,18.658c2.742,7.81,8.509,12.316,16.735,12.732
		c10.591,0.539,19.246-3.366,25.869-11.667c6.525-8.203,10.419-17.605,12.5-27.791c5.141-24.903,10.259-49.804,15.389-74.705
		c0.344-1.628,0.858-3.221,1.433-5.436c2.767,3.795,6.366,3.93,9.904,4.444c4.86,0.722,6.599,2.559,6.489,7.43
		c-0.061,3.331-0.563,6.684-1.236,9.954c-3.074,15.059-6.232,30.105-9.427,45.139c-1.2,5.644-1.812,11.288-0.735,17.017
		c2.314,12.463,10.738,18.646,23.31,17.238c8.031-0.906,14.594-4.493,19.82-10.615c1.359-1.603,2.743-3.171,4.187-4.848
		c9.232,7.75,19.111,5.913,29.456,3.073c-1.138,15.915-7.749,31.991-16.491,43.621c-3.697,4.934-8.007,9.207-13.32,12.426
		c-6.844,4.138-14.226,5.865-22.111,4.64c-9.267-1.457-14.52-9.598-12.389-18.743c1.468-6.341,5.68-10.076,11.532-12.463
		c4.86-1.996,6.623-5.68,5.069-9.733c-1.506-3.905-4.824-5.24-9.807-3.93c-13.785,3.599-23.297,17.643-22.391,33.044
		c0.82,13.785,11.373,24.889,25.648,26.762c9.219,1.212,18.119-0.427,26.591-4.015c13.969-5.901,23.077-16.822,29.91-29.896
		c6.256-11.999,9.414-21.119,12.095-34.316c7.823-38.626,15.622-77.264,23.432-115.914c0.356-1.739,0.686-3.478,0.821-5.24
		C733.762,142.814,732.231,140.108,729.012,139.092z M505.019,158.215c-1.397-1.408-2.363-3.722-2.584-5.717
		c-0.527-4.493,2.913-7.64,7.334-6.71c2.179,0.465,4.493,1.652,6.071,3.196c4.384,4.236,6.342,9.672,6.979,16.894
		C515.45,164.704,509.61,162.769,505.019,158.215z M461.275,242.837c1.506-7.859,3.538-15.658,6.036-23.262
		c1.432-4.345,4.701-7.664,9.598-8.74c4.823-1.053,8.031,0.771,8.264,5.631c0.453,9.611-1.348,18.879-7.652,26.481
		c-2.13,2.571-5.559,4.052-8.398,6.035C463.197,249.644,460.333,247.831,461.275,242.837z M584.609,146.266
		c-1.408-1.395-2.375-3.71-2.608-5.705c-0.514-4.493,2.914-7.651,7.334-6.71c2.179,0.466,4.504,1.641,6.084,3.196
		c4.052,3.93,6.024,8.913,6.807,15.377c0,0.013,0,0.024,0,0.024c-0.098,0.466-0.197,0.931-0.295,1.409
		C594.782,152.669,589.077,150.723,584.609,146.266z"/>
	<path fill="#FFFFFF" d="M405.362,144.564c-5.704,0.356-10.749,2.314-15.523,5.191c-9.795,5.926-17.458,14.042-23.837,23.457
		c-1.261,1.885-2.657,3.684-4.383,6.084c-1.285-2.13-2.119-3.427-2.877-4.774c-6.194-11.08-16.002-15.707-28.305-12.916
		c-3.599,0.82-7.088,2.448-10.345,4.212c-11.668,6.268-19.919,15.928-26.347,27.288c-0.832,1.469-1.37,3.098-2.069,4.652
		c-0.501-0.147-1.004-0.282-1.506-0.429c-0.392-1.64-0.747-3.293-1.151-4.933c-3.686-14.569-12.28-25.404-25.294-32.7
		c-13.785-7.714-28.636-10.224-44.025-7.041c-25.269,5.204-42.691,19.932-49.877,45.029c-6.684,23.31,5.313,47.576,27.031,56.697
		c17.128,7.186,38.614,2.89,50.195-10.088c4.616-5.154,7.493-11.116,7.517-18.143c0.038-3.943-2.534-6.869-6.17-7.555
		c-3.354-0.648-6.647,1.004-8.252,4.31c-0.599,1.224-0.967,2.583-1.285,3.918c-1.457,6.207-5.313,10.418-10.921,13.197
		c-12.39,6.17-27.558,3.073-36.569-7.481c-10.933-12.781-11.042-31.39-0.281-45.946c13.393-18.119,39.127-25.294,59.94-16.552
		c12.696,5.337,20.69,14.679,23.629,28.28c2.289,10.64,1.518,21.155-0.662,31.672c-8.214,39.752-16.454,79.517-24.644,119.28
		c-0.599,2.89-1.272,5.828-1.31,8.742c-0.061,4.946,3.93,7.995,8.742,6.99c3.293-0.686,5.84-2.559,7.101-5.693
		c0.869-2.179,1.444-4.506,1.898-6.806c6.77-33.619,13.479-67.25,20.224-100.88c2.351-11.791,4.812-23.555,9.587-34.696
		c4.457-10.43,10.076-20.09,18.425-27.95c4.493-4.236,9.464-7.725,15.488-9.488c10.602-3.134,18.572,2.718,18.523,13.834
		c-0.024,3.317-0.588,6.672-1.274,9.941c-9.084,43.608-18.241,87.204-27.35,130.801c-0.527,2.509-1.115,5.043-1.2,7.577
		c-0.134,4.506,3.036,7.359,7.529,7.077c3.881-0.233,6.77-2.191,8.337-5.693c0.955-2.13,1.506-4.469,1.972-6.782
		c6.317-30.485,12.537-61.005,18.816-91.502c2.351-11.387,4.555-22.809,7.224-34.121c3.379-14.263,9.562-27.13,20.238-37.488
		c5.644-5.46,12.083-9.5,20.028-10.626c7.334-1.041,13.222,2.51,14.496,9.732c0.856,4.751,0.636,9.807,0.073,14.63
		c-0.648,5.656-2.166,11.215-3.342,16.81c-7.823,37.425-15.756,74.839-23.396,112.302c-1.249,6.12-2.007,12.511-1.848,18.743
		c0.219,8.374,3.978,15.242,11.961,18.964c5.57,2.595,11.263-1.163,10.761-7.285c-0.184-2.326-1.371-5.166-3.074-6.647
		c-2.95-2.559-3.685-5.412-3.304-8.926c0.33-2.926,0.514-5.901,1.102-8.778c4.015-19.697,8.104-39.385,12.169-59.071
		c5.349-25.868,10.626-51.737,16.062-77.594c1.629-7.75,1.2-15.28-1.323-22.722C428.551,150.514,418.145,143.756,405.362,144.564z"
		/>
</g>
<g>
	<path fill="#FFFFFF" d="M833.148,352.788c-3.661-7.602-7.933-14.949-12.156-22.281c-5.314-9.219-7.86-18.854-5.338-29.456
		c0.221-0.955,0.306-1.959,0.355-2.939c0.257-4.506-1.42-7.37-4.884-8.436c-3.55-1.077-7.493,0.564-9.427,4.261
		c-0.894,1.714-1.395,3.684-1.763,5.595c-6.011,29.957-11.888,59.927-17.997,89.837c-1.236,6.084-2.143,12.537-8.018,16.527
		c-0.735,0.503-1.2,1.616-1.457,2.522c-1.114,4.077-4.42,5.313-7.946,6.134c-5.767,1.346-9.402-1.359-9.317-7.26
		c0.038-3.71,0.662-7.457,1.372-11.116c4.395-22.429,8.876-44.846,13.295-67.275c0.367-1.922,0.723-3.893,0.674-5.84
		c-0.148-5.411-4.959-8.116-9.476-5.13c-2.008,1.335-3.391,3.637-5.13,5.559c-12.647-7.064-25.906-4.665-35.503,6.88
		c-2.13,2.559-4.162,5.374-5.448,8.411c-2.448,5.791-4.676,11.717-6.341,17.764c-1.947,7.015-3.221,14.214-4.775,21.34
		c-2.179,10.014-4.052,20.102-6.636,30.019c-1.567,6.035-3.832,11.997-6.513,17.641c-2.278,4.75-6.317,8.032-11.802,9.011
		c-5.302,0.943-8.583-1.397-8.693-6.795c-0.074-3.697,0.465-7.468,1.2-11.116c2.902-14.483,6.183-28.893,8.876-43.425
		c0.992-5.362,1.395-11.006,0.919-16.418c-0.98-11.275-8.926-18.132-20.213-18.217c-7.848-0.061-14.704,2.584-20.274,8.154
		c-2.499,2.485-4.665,5.289-6.979,7.946c-12.671-9.672-23.211-8.595-34.206,2.877c-2.877-0.87-5.411-2.327-7.884-2.204
		c-4.041,0.208-5.975,3.379-6.77,7.15c-1.543,7.321-3.049,14.655-4.567,21.988c-3.905,18.915-7.591,37.879-11.876,56.708
		c-1.236,5.461-3.77,10.738-6.439,15.732c-2.18,4.115-6.098,6.648-10.859,7.457c-5.155,0.869-8.669-1.114-9.697-6.183
		c-0.612-3.011-0.807-6.33-0.232-9.341c3.929-20.911,8.178-41.76,12.157-62.659c0.93-4.872,3.416-7.7,8.3-8.717
		c3.06-0.637,6.158-1.469,9.023-2.718c3.918-1.714,5.436-5.398,4.31-9.243c-1.089-3.722-3.709-5.081-8.411-4.37
		c-7.946,1.2-8.289,0.845-6.734-6.844c0.196-0.955,0.404-1.922,0.599-2.89c0.943-4.627,2.119-9.231,2.754-13.908
		c0.588-4.198-1.249-7.112-4.358-8.067c-2.89-0.906-6.967,0.465-8.791,3.391c-1.113,1.788-1.799,3.93-2.289,6.011
		c-1.678,7.088-3.294,14.201-4.676,21.364c-0.845,4.321-2.939,6.978-7.321,8.264c-2.314,0.673-4.788,2.166-6.268,4.039
		c-3.82,4.812-1.249,10.224,4.86,10.958c1.138,0.134,2.228,0.427,3.869,0.735c-0.233,2.583-0.221,4.921-0.674,7.161
		c-3.659,18.169-7.296,36.325-11.226,54.42c-1.2,5.557-2.926,11.067-5.069,16.331c-2.362,5.827-6.305,10.407-12.707,12.377
		c-1.457,0.465-2.743,1.518-4.102,2.277c0.649-1.812,1.212-3.672,1.971-5.46c6.06-14.067,7.249-28.269,0.478-42.347
		c-3.661-7.616-7.933-14.961-12.169-22.295c-5.326-9.231-7.823-18.878-5.313-29.48c0.233-0.955,0.306-1.959,0.367-2.939
		c0.22-4.506-1.457-7.345-4.946-8.398c-3.563-1.066-7.517,0.588-9.415,4.334c-0.943,1.885-1.433,4.064-1.849,6.183
		c-4.615,23.188-9.097,46.424-13.773,69.612c-1.8,8.876-3.93,17.703-6.171,26.468c-0.673,2.62-2.106,5.081-3.476,7.419
		c-1.261,2.143-3.085,3.954-4.395,6.048c-2.143,3.478-7.946,5.987-11.84,4.873c-3.44-0.979-5.423-4.015-5.362-8.888
		c0.049-2.939,0.465-5.913,1.028-8.791c3.809-18.939,7.714-37.867,11.545-56.793c1.091-5.423,2.302-10.81,3.061-16.271
		c0.575-4.285-1.494-7.052-5.24-7.995c-3.673-0.93-7.186,0.588-8.814,4.2c-0.881,1.947-1.298,4.138-1.714,6.243
		c-4.775,23.971-9.366,47.98-14.398,71.915c-1.249,5.876-3.648,11.63-6.207,17.127c-2.032,4.37-5.705,7.517-10.602,8.802
		c-5.925,1.555-9.855-1.138-9.978-7.296c-0.049-3.514,0.527-7.077,1.225-10.529c2.95-14.482,6.182-28.917,9.035-43.424
		c1.028-5.191,1.64-10.529,1.714-15.817c0.172-11.557-5.154-17.446-16.577-19.112c-0.196-0.024-0.391-0.024-0.587-0.06
		c-7.224-1.029-9.562-1.654-10.126-5.595c-0.489-3.979-0.771-7.714-1.493-11.313c-1.959-9.794-6.183-18.376-14.789-23.995
		c-8.411-5.51-17.225-5.363-25.636-0.087c-7.909,4.958-10.37,12.696-8.814,21.572c1.236,7.077,4.786,13.15,11.104,16.736
		c5.094,2.89,10.7,4.909,16.161,7.088c1.567,0.624,3.232,1.066,4.909,1.506c-3.159,15.059-6.306,30.167-9.525,45.226
		c-2.913,13.687-5.84,27.375-9.207,40.952c-1.212,4.897-3.342,9.696-5.717,14.176c-2.351,4.481-6.196,7.627-11.435,8.619
		c-5.191,0.968-8.264-0.845-8.729-6.06c-0.343-3.648,0.098-7.492,0.82-11.116c2.792-14.104,6.024-28.146,8.753-42.262
		c1.042-5.387,1.775-10.957,1.556-16.405c-0.356-8.349-3.906-15.486-11.974-18.951c-8.069-3.465-15.806-1.958-22.686,3.587
		c-0.673,0.564-1.469,1.029-2.631,1.751c2.081-9.733,5.961-28.71,8.067-38.442c0.539-2.51,1.433-4.934,2.204-7.37
		c0.906-2.926,2.485-4.934,5.717-5.937c1.885-0.588,3.82-2.425,4.775-4.2c2.522-4.714-0.673-9.672-6.011-9.562
		c-7.651,0.172-13.038,4.334-16.123,10.896c-2.314,4.909-3.943,10.247-5.081,15.549c-0.478,2.24-16.221,77.912-22.649,108.899
		c-2.694,12.928-5.387,25.857-7.983,38.809c-0.967,4.799,0.074,7.345,3,8.668c3,1.372,7.028,0.441,9.439-2.926
		c1.654-2.326,2.866-5.191,3.501-7.969c2.008-8.656,3.624-17.386,5.412-26.077c3.183-15.426,6.379-30.889,9.562-46.326
		c1.298-6.232,3.342-12.194,7.125-17.41c3.123-4.298,7.077-7.407,12.647-7.75c6.17-0.404,8.913,2.131,8.631,8.252
		c-0.134,3.134-0.624,6.281-1.249,9.366c-3,14.679-6.109,29.334-9.145,44.013c-1.482,7.235-2.045,14.482,0.599,21.583
		c2.707,7.298,7.75,11.802,15.671,12.476c7.958,0.684,15.562-0.698,21.486-6.293c3.954-3.735,7.468-8.129,10.37-12.732
		c4.995-7.933,7.235-17.017,9.133-26.126c4.786-22.956,9.5-45.935,14.263-68.915c0.306-1.506,0.697-2.975,1.298-5.423
		c2.999,3.71,6.708,3.893,10.382,4.395c4.457,0.599,6.122,2.534,6.036,7.198c-0.074,3.33-0.478,6.697-1.127,9.965
		c-3.134,15.451-6.427,30.876-9.647,46.315c-1.371,6.636-1.788,13.259,0.391,19.857c2.828,8.559,9.256,13.566,17.997,13.627
		c9.328,0.073,17.397-3.013,23.653-10.198c1.383-1.58,2.803-3.147,4.408-4.958c5.521,4.933,11.692,5.865,18.486,5.13
		c6.99-0.735,12.573-4.126,17.31-8.056c3.735,0.501,6.832,1.261,9.941,1.261c13.651,0.011,24.742-5.633,33.717-15.768
		c1.408-1.592,3.035-3.013,4.566-4.518c-0.342,8.863,4.113,12.243,11.997,8.742c3.342-1.494,6.416-3.784,9.281-6.122
		c2.264-1.812,4.003-4.224,6.256-6.697c4.64,3.771,9.721,5.888,15.768,5.521c13.308-0.807,23.066-7.173,29.713-18.535
		c4.432-7.566,7.138-15.768,8.803-24.351c3.158-16.038,6.354-32.076,9.5-48.125c1.274-6.501,3.563-12.634,7.969-17.556
		c2.535-2.841,5.816-5.412,9.281-6.967c6.685-2.962,11.458,0.344,11.41,7.578c-0.013,3.318-0.563,6.684-1.249,9.954
		c-4.725,22.746-9.549,45.494-14.336,68.24c-0.405,1.922-0.931,3.869-0.943,5.816c-0.025,5.448,4.566,8.447,9.243,5.717
		c2.374-1.395,4.224-3.99,5.791-6.379c1.015-1.567,1.138-3.733,1.542-5.655c4.591-22.172,9.194-44.381,13.713-66.564
		c1.567-7.615,4.003-14.838,8.606-21.192c2.73-3.758,6.085-6.71,10.578-8.166c5.791-1.86,9.977,0.918,10.014,6.954
		c0.013,3.514-0.49,7.076-1.187,10.528c-2.902,14.483-6.171,28.906-8.865,43.425c-0.992,5.351-1.481,11.006-0.979,16.405
		c1.175,12.77,10.076,19.417,22.869,18.229c8.338-0.771,14.985-4.444,20.359-10.687c1.261-1.469,2.461-2.987,3.955-4.8
		c7.027,6.06,15.107,6.416,23.506,4.726c8.606-1.726,14.556-7.358,19.404-14.14c13.407,8.949,25.306,5.68,36.227-3.024
		c3.525,0.476,6.636,1.211,9.757,1.211c13.639-0.011,24.718-5.644,33.679-15.78c1.408-1.605,7.028-10.578,7.86-12.562
		C838.743,380.677,839.82,366.66,833.148,352.788z M338.849,386.688c-1.408-1.395-2.351-3.697-2.595-5.705
		c-0.527-4.493,2.913-7.639,7.345-6.708c2.166,0.465,4.481,1.652,6.073,3.196c4.37,4.236,6.328,9.671,6.978,16.894
		C349.279,393.19,343.427,391.255,338.849,386.688z M495.849,455.884c-1.897,13.468-11.373,24.302-23.897,27.033
		c-1.996,0.441-4.102,0.355-6.831,0.575c7.785-19.465,8.912-39.544,13.87-58.765c0.575-2.24,1.151-4.481,1.909-7.542
		c3.698,2.792,5.436,6.036,7.419,9.048C494.269,435.231,497.392,444.952,495.849,455.884z M750.363,350.928
		c-3.44,16.38-6.979,32.737-10.443,49.106c-1.286,6.023-3.244,11.777-6.844,16.87c-2.559,3.612-5.73,6.476-10.26,7.43
		c-5.986,1.286-10.21-1.738-10.602-7.823c-0.134-2.338,0.074-4.763,0.539-7.052c3.574-17.151,7.101-34.316,10.993-51.395
		c1.115-4.933,3.123-9.745,5.277-14.348c1.972-4.187,5.338-7.236,9.88-8.827c7.198-2.51,12.316,0.869,12.365,8.435
		C751.281,345.859,750.877,348.442,750.363,350.928z M822.081,379.6c-1.934,13.87-11.974,24.988-24.901,27.326
		c-1.482,0.281-3.049,0.196-5.571,0.367c7.517-19.588,8.631-39.631,13.615-58.803c0.563-2.228,1.126-4.468,1.909-7.504
		c3.685,2.792,5.423,6.036,7.407,9.035C820.465,358.995,823.599,368.68,822.081,379.6z"/>
	<path fill="#FFFFFF" d="M193.784,482.916c-12.904,0.661-24.143,5.595-32.97,15.242c-6.207,6.782-9.842,14.753-9.647,24.107
		c0.036,2.313,0.501,4.712,1.249,6.916c0.979,2.828,3.17,4.567,6.268,4.542c3.147-0.049,5.228-2.007,6.133-4.774
		c0.637-1.972,0.698-4.261,0.626-6.379c-0.282-7.346,2.913-12.965,8.606-17.238c2.032-1.518,4.334-2.767,6.648-3.82
		c18.535-8.3,37.192,1.567,40.853,21.425c1.702,9.243,0.208,18.083-3.281,26.615c-15.181,37.121-63.551,51.089-97.084,27.706
		c-25.122-17.52-36.618-42.47-35.7-72.661c1.2-39.336,16.307-72.796,45.788-99.118c16.932-15.119,36.875-24.142,59.695-25.929
		c10.884-0.857,21.278,0.979,30.473,7.309c11.41,7.872,15.817,20.898,11.422,33.79c-5.423,15.891-19.87,22.343-32.628,20.935
		c-8.949-0.979-15.72-8.84-12.291-18.756c0.588-1.665,1.064-3.391,1.457-5.117c0.648-2.926-0.036-5.521-2.571-7.333
		c-2.791-2.008-5.889-1.605-8.264,0.306c-2.081,1.64-3.782,4.015-4.995,6.402c-6.672,13.039,1.812,37.389,23.249,39.875
		c6.158,0.71,12.231,0.208,18.143-1.543c19.491-5.766,30.167-19.44,33.509-38.895c3.257-18.879-4.775-33.068-20.249-43.254
		c-12.585-8.288-26.75-10.186-41.442-8.545c-26.653,2.986-49.375,14.482-68.707,32.749c-24.925,23.579-39.604,52.803-45.836,86.299
		c-5.007,26.995-2.155,52.924,11.692,77.239c18.939,33.288,54.064,49.252,95.616,40.168c20.689-4.983,39.115-19.306,50.268-42.396
		c7.346-15.182,10.003-31.084,4.567-47.625C228.542,493.408,212.381,481.925,193.784,482.916z"/>
	<path fill="#FFFFFF" d="M445.997,374.863c7.088-1.726,11.802-9.476,9.978-16.394c-1.433-5.46-7.2-8.766-12.965-7.443
		c-6.771,1.567-11.668,9.794-9.844,16.539C434.709,373.307,440.022,376.319,445.997,374.863z"/>
</g>
<path fill="#FFFFFF" d="M870.653,395.293c-4.089,16.745-3.49,36.939-41.234,64.542c-39.58,28.962-105.251,40.624-161.408,49.862
	c-92.714,15.224-150.316,19.626-209.375,29.593c-130.458,22.05-206.804,61.895-226.454,118.906
	c-4.309,12.539-0.379,19.193,10.799,12.848c25.343-14.358,47.881-18.982,47.881-18.982s-1.567,26.279,3.894,48.515
	c2.117,8.631,7.896,11.76,12.488-0.78c6.133-16.694,16.907-61.424,163.807-95.173c62.046-14.234,133.628-22.816,201.05-39.387
	c87.094-21.419,139.701-54.166,163.244-74.423C882.823,449.953,870.653,395.293,870.653,395.293z M454.413,585.269l-0.281,0.334
	l-0.318,0.172l-0.038-0.395l0.074-0.285l0.282-0.111h0.379L454.413,585.269z M455.735,589.684l0.134,0.631l-0.735-0.346
	l-0.232-0.358l0.33-0.124l0.123-0.334l0.257-0.011l-0.123,0.543h0.246V589.684z M455.833,588.36l0.282,0.087l-0.197,0.247
	L455.833,588.36z M456.36,590.822l0.208-0.21l0.319-0.111l-0.159,0.395l-0.344,0.272L456.36,590.822z M455.956,583.525l-0.392,0.075
	l-0.342-0.643l0.011-0.358l0.233-0.31l0.49,0.075l0.404-0.198l0.367,0.234l-0.196,0.248l-0.821,0.198L455.956,583.525z
	 M457.033,585.282l0.282,0.346l-0.123,0.396l-0.282-0.199l-0.183-0.309l-0.036-0.358L457.033,585.282z M456.849,581.387h0.515
	l0.171,0.729l-0.318-0.087l-0.208-0.21L456.849,581.387z M457.082,584.392l0.061-0.384l0.784-0.174l0.22-0.371l-0.282-0.815
	l-0.036-0.396l0.379-0.099l0.233,0.309l-0.319,0.656l0.478,0.099l0.233-0.371l0.158,0.272l-0.612,0.655l-0.232,0.371
	L457.082,584.392z M457.768,581.584l0.221-0.358l0.147,0.382L457.768,581.584z M461.085,581.942l0.318,0.086l0.429-0.148
	l-0.061,0.581l-0.379-0.062l-0.282,0.111l-0.244,0.26l0.367,0.285l-0.246-0.148l-0.697,0.26l-0.11-0.433l-0.514,0.223v-0.482
	l0.379,0.086l0.331-0.135l0.196-0.26l0.087-0.322l-1.397-0.718l-0.318-0.222l0.038-0.285l0.195-0.247l0.306,0.198l0.404,0.618
	l0.441-0.049L461.085,581.942z M460.681,580.656l0.404-0.26v0.47l-0.318,0.173L460.681,580.656z M461.513,584.75l-0.049,0.161
	l-0.073-0.298l0.011-0.358l0.246,0.198l0.196,0.371L461.513,584.75z M461.673,585.64l-0.159,0.185l-0.024-0.333L461.673,585.64z
	 M460.938,583.798l-0.221-0.049l-0.036-0.199L460.938,583.798z M460.082,587.631l-0.307,0.013l-0.355-0.186l-0.465-0.704
	l1.066-0.248l0.244-0.32l0.318-0.137l-0.123,0.347l-0.55,0.532l-0.123,0.346L460.082,587.631z M458.918,585.516l0.172,0.26
	l-0.331,0.137l-0.098-0.446L458.918,585.516z M458.564,585.072l0.024-0.371l0.282,0.099l0.073,0.358L458.564,585.072z
	 M460.473,584.675l-0.306-0.223l-0.159-0.444l-0.588,0.556l-0.465,0.161l-0.049-0.408l-0.024-0.346l0.317,0.086l0.208,0.198
	l0.466-0.42l0.746,0.396L460.473,584.675z M459.078,581.942l-0.527,0.148v-0.433l0.355,0.038L459.078,581.942z M458.355,589.932
	l-0.049-0.199l0.196-0.037l0.049,0.198L458.355,589.932z M458.882,590.438l0.219,0.309l-0.404,0.26l-0.11-0.284l-0.134-0.334
	L458.882,590.438z M457.939,588.126l0.098,0.384l-0.295-0.137L457.939,588.126z M457.89,590.413l0.196,0.371l-0.367,0.137
	l-0.27-0.037l-0.257-0.199l0.331-0.135L457.89,590.413z M408.906,589.25l-0.122,0.248l-0.282-0.236L408.906,589.25z
	 M437.555,581.411l-0.136,0.247l-0.268-0.247H437.555z M553.04,553.178l0.098-0.322l0.331-0.111l0.183,0.223l-0.221,0.137
	L553.04,553.178z M554.754,554.885l0.306,0.037l-0.098,0.631l-0.208-0.322V554.885z M501.792,569.279l-0.416-0.26l0.123-0.433h0.306
	l0.195,0.21l-0.22-0.073L501.792,569.279z M501.828,570.837l-0.268-0.123l-0.11-0.334l0.232,0.173L501.828,570.837z
	 M499.356,569.564l0.342,0.26l0.146,0.42l-0.416,0.198l-0.391-0.396L499.356,569.564z M498.927,569.515l-0.159-0.285l0.025-0.371
	l0.501,0.173l0.036,0.395L498.927,569.515z M500.053,571.085l-0.208,0.198l-0.073-0.346L500.053,571.085z M599.294,557.592
	l-0.307,0.31l-0.318,0.161l-0.024-0.396l0.11-0.285l0.293-0.099l0.355,0.038L599.294,557.592z M600.358,562.057l0.11,0.643
	l-0.722-0.384l-0.221-0.371l0.344-0.099l0.134-0.347l0.269,0.013l-0.172,0.545L600.358,562.057L600.358,562.057z M600.543,560.758
	l0.268,0.1l-0.208,0.234L600.543,560.758z M600.91,563.232l0.219-0.186l0.344-0.111l-0.184,0.396l-0.367,0.272L600.91,563.232z
	 M600.934,555.923l-0.391,0.086l-0.319-0.68l0.049-0.371l0.245-0.271l0.477,0.11l0.429-0.172l0.33,0.234l-0.208,0.248l-0.833,0.135
	L600.934,555.923z M601.901,557.753l0.257,0.36l-0.135,0.395l-0.281-0.223l-0.159-0.309v-0.371L601.901,557.753z M602.01,556.875
	l0.087-0.384l0.771-0.135l0.257-0.347l-0.232-0.816l-0.038-0.433l0.405-0.049l0.196,0.309l-0.343,0.631l0.465,0.124l0.258-0.347
	l0.147,0.285l-0.649,0.618l-0.244,0.347L602.01,556.875z M601.95,553.87h0.501l0.134,0.755l-0.33-0.111l-0.172-0.21L601.95,553.87z
	 M602.844,554.117l0.257-0.358l0.11,0.384L602.844,554.117z M606.137,554.662l0.317,0.099l0.429-0.124l-0.098,0.581l-0.38-0.086
	l-0.268,0.099l-0.27,0.248l0.367,0.296l-0.246-0.161l-0.722,0.223l-0.073-0.458l-0.527,0.199l0.037-0.446l0.355,0.086l0.331-0.11
	l0.232-0.261l0.098-0.309l-1.359-0.779l-0.306-0.26l0.061-0.285l0.221-0.222l0.282,0.198l0.367,0.643l0.453-0.025L606.137,554.662z
	 M605.806,553.351l0.429-0.236l-0.038,0.47l-0.318,0.149L605.806,553.351z M606.406,557.482l-0.06,0.172l-0.061-0.296l0.049-0.371
	l0.232,0.21l0.172,0.384L606.406,557.482z M606.529,558.396l-0.183,0.174v-0.358L606.529,558.396z M605.892,556.504l-0.221-0.075
	l-0.024-0.198L605.892,556.504z M604.815,560.264h-0.306l-0.343-0.198l-0.429-0.742l1.091-0.199l0.244-0.284l0.342-0.111
	l-0.147,0.346l-0.563,0.495l-0.159,0.334L604.815,560.264z M603.774,558.087l0.159,0.285l-0.331,0.111l-0.085-0.458L603.774,558.087
	z M603.456,557.643l0.036-0.371l0.27,0.11l0.061,0.334L603.456,557.643z M605.378,557.358l-0.293-0.26l-0.123-0.433l-0.624,0.519
	l-0.49,0.124l-0.011-0.408l-0.013-0.347l0.318,0.099l0.196,0.223l0.49-0.395l0.735,0.432L605.378,557.358z M604.142,554.55
	l-0.539,0.099l0.025-0.42l0.355,0.049L604.142,554.55z M602.953,562.478l-0.024-0.198l0.196-0.025l0.025,0.198L602.953,562.478z
	 M603.456,563.009l0.208,0.309l-0.416,0.223l-0.098-0.272l-0.111-0.347L603.456,563.009z M602.647,560.648l0.074,0.395l-0.282-0.174
	L602.647,560.648z M602.488,562.922l0.159,0.371l-0.391,0.124l-0.257-0.062l-0.246-0.21l0.344-0.111L602.488,562.922z
	 M686.878,532.291l-0.11,0.236l-0.293-0.186l0.085-0.334L686.878,532.291z"/>
</svg>
