<?xml version="1.0" encoding="utf-8"?>
<!-- Generator: Adobe Illustrator 19.2.1, SVG Export Plug-In . SVG Version: 6.00 Build 0)  -->
<svg version="1.1" id="Capa_1" xmlns="http://www.w3.org/2000/svg" xmlns:xlink="http://www.w3.org/1999/xlink" x="0px" y="0px"
	 viewBox="0 0 1030.28 841.89" enable-background="new 0 0 1030.28 841.89" xml:space="preserve">
<g>
	<g>
		<path fill="#B4B4B4" d="M553,379.097c-0.559-2.194-0.941-4.162-1.098-6.428c-0.104-1.492-0.603-2.606,0.103-4.105
			c0.007-0.014,0.015-0.025,0.022-0.039c4.02,0.159,8.025,0.39,12.019,0.652c-0.112-0.598-0.19-1.205-0.192-1.832
			c-0.102-0.454-0.154-0.907-0.213-1.361c-1.116-0.17-2.294-0.333-3.616-0.555c-6.11-1.024-12.02-1.829-18.239-1.802
			c-12.606,0.056-24.732,1.296-37.21,2.633c-11.73,1.257-23.367,3.353-35.135,4.07c-11.813,0.72-23.802,1.135-35.582,2.453
			c-11.935,1.335-24.271,0.785-36.191-0.026c-5.987-0.408-11.946-0.779-17.88-1.958c-5.397-1.072-10.912-1.71-16.263-3.03
			c-5.392-1.33-11.329-2.123-16.848-2.917c-5.67-0.815-11.333-1.782-17.04-2.296c-11.322-1.02-22.466-3.801-33.792-4.715
			c-12.684-1.023-25.987,0.465-38.42,2.854c-7.37,1.416-14.641,2.555-21.753,5.033c-5.32,1.854-11.325,3.115-15.792,6.698
			c-1.004,0.805,0.313,2.513,1.38,1.789c4.376-2.969,11.266-3.635,16.387-5.103c6.898-1.977,13.865-3.036,20.912-4.303
			c3.278-0.59,6.615-1.101,9.979-1.531c0.036,1.766,0.541,3.528,1.206,5.338c1.415,3.853,2.499,9.829,0.167,13.559
			c-0.236,0.378,0.327,0.674,0.582,0.34c2.187-2.862,1.904-6.679,1.594-10.046c-0.21-2.275-1.102-4.211-1.676-6.416
			c-0.27-1.034-0.228-2.018-0.129-2.989c7.791-0.919,15.712-1.338,23.432-0.93c7.527,0.398,15.003,1.895,22.479,3.219
			c0.058,0.128,0.115,0.256,0.163,0.39c0.255,0.713,0.359,1.503,0.627,2.221c1.431,3.845,2.497,7.127,2.417,11.366
			c-0.082,4.375-1.853,8.579-2.385,12.945c-0.272,2.234-0.35,5.552,1.232,7.34c0.247,0.28,0.705-0.017,0.611-0.355
			c-2.002-7.195,2.714-14.423,2.331-21.697c-0.173-3.277-1.056-6.312-2.361-9.316c-0.373-0.858-0.599-1.738-0.926-2.594
			c3.046,0.525,6.092,1.008,9.143,1.356c11.15,1.27,22.206,3.04,33.289,4.737c4.312,0.66,8.644,1.62,12.991,2.56
			c0.284,0.552,0.509,1.086,0.639,1.422c0.589,1.524,0.657,3.327,0.862,4.957c0.509,4.058,0.279,7.871-1.106,11.696
			c-1.231,3.397-2.554,6.333-2.954,9.976c-0.257,2.343-0.988,4.677,0.81,6.51c0.364,0.371,0.915,0.067,0.956-0.396
			c0.137-1.539-0.08-3.075,0.078-4.684c0.276-2.796,0.676-5.286,1.783-7.88c1.433-3.358,2.57-6.374,2.504-10.059
			c-0.061-3.395-0.008-7.501-1.419-10.658c-0.067-0.15-0.147-0.311-0.226-0.47c5.898,1.256,11.825,2.39,17.77,2.598
			c10.187,0.358,20.405,0.714,30.651,0.64c-0.358,1.659-0.145,3.501,0.096,5.199c0.606,4.263,2.098,8.368,2.998,12.571
			c0.999,4.667,2.04,9.593,1.082,14.345c-0.41,2.034-0.75,4.112-1.328,6.107c-0.413,1.427-0.853,4.342-1.879,5.469
			c-0.209,0.23,0.051,0.546,0.322,0.418c2.051-0.973,3.19-5.552,3.7-7.542c1.021-3.977,1.784-7.997,1.306-12.123
			c-0.474-4.086-1.479-8.128-2.506-12.102c-0.938-3.627-2.73-8.561-1.773-12.206h0.038c11.971,0,24.136-1.645,36.088-2.355
			c8.873-0.527,17.752-1.398,26.596-2.616c1.233,1.448,2.01,2.888,2.773,4.638c1.478,3.389,2.435,6.829,2.559,10.544
			c0.119,3.581-0.672,6.857-0.906,10.39c-0.097,1.464-0.5,3.277-0.3,4.714c0.153,1.097,0.84,2.084,1.185,3.122
			c0.21,0.631,1.163,0.694,1.346,0c0.246-0.936-0.078-1.458-0.232-2.366c-0.348-2.054-0.155-4.467,0.089-6.525
			c0.432-3.647,0.997-6.942,0.668-10.665c-0.279-3.165-1.118-6.168-2.419-9.049c-0.666-1.474-1.233-2.843-2.235-4.126
			c-0.249-0.319-0.538-0.621-0.844-0.914c1.102-0.158,2.206-0.297,3.307-0.467c13.31-2.048,27.115-4.123,40.578-4.212
			c5.283-0.035,10.576,0.07,15.859,0.253c-0.608,1.761-0.139,3.835,0.021,5.611c0.381,4.236,1.996,8.283,3.202,12.326
			c1.321,4.43,2.108,9.322,2.355,13.93c0.272,5.085-1.276,9.938-2.881,14.693c-0.158,0.468,0.523,0.882,0.849,0.494
			c2.372-2.818,3.323-6.956,3.824-10.562c0.572-4.12,0-8.692-0.761-12.76C555.609,387.712,554.121,383.497,553,379.097z"/>
		<g>
			<path fill="#B9181E" d="M261.673,384.5c-0.791,0.167-1.554,0.438-2.308,0.729c-1.689,0.653-3.328,1.393-4.917,2.26
				c-1.408,0.769-2.785,1.595-4.192,2.367c-1.172,0.643-2.386,1.212-3.584,1.806c-1.242,0.617-2.479,1.246-3.714,1.876
				c-1.158,0.593-2.335,1.148-3.474,1.776c-0.521,0.289-1,0.634-1.447,1.028c-0.334,0.293-0.602,0.685-0.856,1.043
				c-0.094,0.133-0.18,0.275-0.26,0.422c-0.477,0.615-0.848,1.306-1.123,2.04c-0.337,0.902-0.451,1.881-0.532,2.836
				c-0.067,0.802-0.113,1.615-0.032,2.418c0.182,1.83,0.474,3.648,0.979,5.418c0.507,1.782,1.292,3.449,2.119,5.101
				c0.694,1.391,1.5,2.725,2.158,4.134c0.584,1.251,1.219,2.473,1.777,3.735c0.279,0.729,0.483,1.458,0.621,2.223
				c0.02,0.281,0.029,0.556,0.017,0.836c-0.033,0.132-0.071,0.26-0.116,0.389c-0.285,0.578-0.631,1.103-1.011,1.617
				c-0.313,0.356-0.628,0.699-0.96,1.038c-0.271,0.276-0.572,0.523-0.873,0.77c-1.208,0.892-2.473,1.688-3.76,2.463
				c-0.738,0.446-1.48,0.887-2.208,1.351c-0.724,0.46-1.406,0.962-2.084,1.484c-0.763,0.588-1.513,1.207-2.192,1.891
				c-0.317,0.32-0.617,0.644-0.916,0.983c-0.215,0.245-0.406,0.51-0.603,0.769c-0.135,0.177-0.284,0.35-0.406,0.537
				c-0.57,0.877-1.07,1.762-1.461,2.735c-0.306,0.759-0.561,1.516-0.762,2.309c-0.234,0.927-0.394,1.902-0.471,2.854
				c-0.081,0.994-0.114,1.971,0.017,2.963c0.079,0.604,0.176,1.174,0.363,1.753c0.186,0.576,0.443,1.138,0.716,1.677
				c0.254,0.501,0.593,0.957,0.944,1.392c0.296,0.366,0.614,0.708,0.971,1.015c0.758,0.654,1.559,1.246,2.406,1.777
				c1.048,0.658,2.218,1.078,3.403,1.41c0.742,0.207,1.52,0.339,2.276,0.483c0.978,0.187,1.955,0.336,2.945,0.441
				c0.784,0.083,1.579,0.09,2.367,0.1c0.861,0.011,1.719,0.007,2.579-0.008c0.892-0.016,1.793-0.128,2.674-0.268
				c1.645-0.26,3.282-0.57,4.902-0.959c3.256-0.78,6.454-1.743,9.618-2.832c3.328-1.145,6.588-2.509,9.659-4.233
				c1.555-0.874,3.09-1.829,4.473-2.958c1.425-1.163,2.63-2.539,3.701-4.032c1.054-1.469,1.96-3.059,2.609-4.749
				c0.592-1.543,1.089-3.117,1.483-4.721c0.441-1.796,0.781-3.633,0.862-5.483c0.072-1.641,0.005-3.282-0.138-4.917
				c-0.159-1.818-0.412-3.636-0.836-5.411c-0.396-1.656-0.822-3.307-1.259-4.952c-0.422-1.583-0.919-3.144-1.402-4.708
				c-0.493-1.594-0.971-3.193-1.482-4.782c-0.512-1.595-1.116-3.156-1.699-4.727c-0.274-0.74-0.542-1.482-0.844-2.21
				c-0.391-0.944-0.798-1.879-1.218-2.809c-0.664-1.478-1.323-2.957-2.017-4.422c-0.734-1.544-1.592-3.046-2.782-4.29
				c-0.646-0.672-1.418-1.248-2.211-1.733c-0.46-0.281-0.979-0.476-1.473-0.677c-0.357-0.144-0.72-0.255-1.094-0.346
				c-0.649-0.156-1.311-0.231-1.972-0.231C262.97,384.29,262.316,384.363,261.673,384.5L261.673,384.5z M276.705,439.909
				c-0.004,0.009-0.007,0.017-0.011,0.026c-0.013,0.028-0.025,0.057-0.038,0.085c0.012-0.029,0.025-0.058,0.037-0.087
				C276.697,439.925,276.701,439.917,276.705,439.909L276.705,439.909z M276.524,440.335c-0.022,0.051-0.043,0.101-0.064,0.152
				c0.017-0.041,0.034-0.082,0.051-0.122L276.524,440.335L276.524,440.335z"/>
			<path fill="#FFFFFF" d="M276.306,421.036c-0.842,1.373-1.647,2.769-2.37,4.208c-0.366,0.727-0.757,1.445-1.082,2.189
				c-0.306,0.701-0.611,1.401-0.917,2.1c-0.325,0.863-0.649,1.725-0.974,2.587c-0.32,0.848-0.539,1.747-0.803,2.615
				c-0.271,0.892-0.449,1.821-0.669,2.727c-0.158,0.648-0.245,1.32-0.348,1.983c-0.071,0.696-0.142,1.392-0.213,2.087
				c-0.028,0.277-0.017,0.561-0.024,0.84c-0.012,0.474-0.024,0.95-0.035,1.425c-0.033,1.276,0.092,2.548,0.227,3.814
				c0.117,0.758,0.233,1.513,0.401,2.262c0.183,0.83,0.378,1.656,0.615,2.473c0.046,0.159,0.092,0.317,0.138,0.476
				c0.227-0.123,0.451-0.246,0.674-0.371c1.863-1.047,3.285-1.988,4.474-2.958c1.311-1.068,2.521-2.387,3.7-4.033
				c1.122-1.564,2-3.161,2.609-4.749c0.598-1.557,1.097-3.147,1.483-4.721c0.517-2.103,0.791-3.845,0.863-5.484
				c0.065-1.495,0.02-3.104-0.138-4.917c-0.178-2.029-0.451-3.799-0.837-5.412c-0.352-1.473-0.752-3.046-1.259-4.952
				c-0.147-0.554-0.305-1.11-0.469-1.663C279.575,415.989,277.881,418.471,276.306,421.036L276.306,421.036z"/>
			<path fill="#FFFFFF" d="M236.183,432.823l-0.416,0.249c-0.59,0.357-1.202,0.725-1.792,1.101c-0.79,0.501-1.529,1.056-2.086,1.484
				c-0.93,0.718-1.606,1.301-2.192,1.891c-0.308,0.312-0.608,0.633-0.916,0.983c-0.17,0.193-0.326,0.402-0.479,0.605l-0.123,0.164
				c-0.044,0.059-0.089,0.115-0.135,0.172c-0.094,0.118-0.189,0.238-0.271,0.365c-0.647,0.994-1.111,1.863-1.461,2.735
				c-0.323,0.799-0.571,1.555-0.762,2.309c-0.232,0.918-0.395,1.905-0.472,2.856c-0.07,0.867-0.124,1.897,0.017,2.963
				c0.073,0.551,0.167,1.146,0.364,1.754c0.16,0.499,0.389,1.032,0.716,1.677c0.268,0.528,0.627,1,0.944,1.394
				c0.323,0.399,0.641,0.73,0.971,1.015c0.754,0.65,1.565,1.249,2.407,1.778c0.899,0.565,1.979,1.012,3.403,1.409
				c0.62,0.174,1.27,0.295,1.9,0.412l0.378,0.072c1.017,0.194,1.98,0.339,2.945,0.441c0.758,0.079,1.537,0.089,2.29,0.099
				l0.077,0.001c0.334,0.004,0.666,0.006,1,0.006c0.526,0,1.053-0.005,1.579-0.015c0.767-0.015,1.59-0.097,2.674-0.268
				c1.796-0.285,3.4-0.598,4.903-0.96c1.495-0.358,3.007-0.761,4.557-1.215c-0.151-0.599-0.314-1.196-0.489-1.792
				c-0.604-2.062-1.384-4.062-2.189-6.052c-0.521-1.194-1.066-2.368-1.675-3.523c-0.576-1.097-1.297-2.1-2.034-3.091
				c-0.683-0.856-1.373-1.703-2.133-2.493c-0.846-0.877-1.764-1.669-2.689-2.461c-1.669-1.43-3.293-2.916-4.99-4.31
				c-1.057-0.765-2.146-1.463-3.295-2.077C236.53,432.613,236.354,432.719,236.183,432.823L236.183,432.823z"/>
			<path fill="#FFFFFF" d="M268.086,378.483c-0.386,0.06-0.76,0.191-1.131,0.31c-1.639,0.534-3.16,1.32-4.658,2.164
				c-0.702,0.395-1.408,0.781-2.109,1.18c-0.042,0.024-0.083,0.048-0.125,0.072c-0.621,0.237-1.238,0.483-1.853,0.736
				c-2.312,0.952-4.622,1.913-6.921,2.896c-0.757,0.303-1.516,0.59-2.285,0.863c-0.902,0.321-1.786,0.688-2.669,1.062
				c-1.485,0.63-2.961,1.286-4.412,1.994c-1.488,0.726-2.958,1.504-4.402,2.314c-0.683,0.383-1.35,0.793-2.031,1.178
				c-0.748,0.423-1.494,0.845-2.227,1.291c-0.468,0.285-0.924,0.588-1.387,0.879c-0.489,0.304-0.984,0.597-1.468,0.91
				c-0.441,0.285-0.872,0.588-1.297,0.896c-0.458,0.334-0.905,0.688-1.276,1.119c-0.601,0.698-0.977,1.501-1.287,2.363
				c-0.245,0.68-0.323,1.41-0.418,2.121c-0.049,0.367-0.067,0.745-0.082,1.115c-0.034,0.87,0.039,1.782,0.281,2.62
				c0.254,0.877,0.817,1.648,1.419,2.317c0.436,0.483,0.975,0.885,1.493,1.274c0.669,0.502,1.444,0.851,2.238,1.1
				c0.445,0.141,0.932,0.225,1.405,0.277c-0.006,0.12-0.011,0.24-0.012,0.359c-0.004,0.505,0.121,1.02,0.315,1.482
				c0.106,0.253,0.207,0.474,0.352,0.704c0.132,0.21,0.317,0.414,0.487,0.597c0.427,0.455,1.067,0.718,1.656,0.872
				c0.55,0.144,1.152,0.134,1.706,0.029c0.594-0.112,1.157-0.378,1.685-0.669c0.396-0.218,0.753-0.48,1.078-0.782
				c0.165,0.127,0.33,0.251,0.504,0.366c0.243,0.161,0.544,0.252,0.813,0.361c0.421,0.172,0.906,0.213,1.354,0.197
				c0.554-0.018,1.062-0.166,1.566-0.38c0.956-0.406,1.663-1.2,2.257-2.038c0.061,0.005,0.123,0.011,0.186,0.017
				c0.697,0.111,1.394,0.23,2.096,0.289c0.248,0.021,0.496-0.004,0.745-0.026c0.423-0.039,0.845-0.114,1.257-0.216
				c0.231-0.057,0.452-0.148,0.671-0.241c0.234-0.084,0.458-0.186,0.676-0.303c0.219-0.142,0.429-0.297,0.63-0.466
				c0.785-0.626,1.368-1.489,1.831-2.374c0.021-0.038,0.04-0.076,0.06-0.115c0.262,0.055,0.526,0.094,0.79,0.113
				c1.252,0.092,2.598-0.279,3.594-1.049c0.455-0.351,0.843-0.711,1.201-1.163c0.291-0.367,0.586-0.745,0.801-1.163
				c0.034-0.066,0.067-0.132,0.1-0.198c0.241,0.074,0.482,0.142,0.729,0.199c0.537,0.125,1.096,0.177,1.645,0.216
				c0.745,0.054,1.539-0.082,2.198-0.438c0.493-0.265,0.938-0.614,1.336-1.009c0.247-0.246,0.444-0.555,0.643-0.841
				c0.098-0.141,0.183-0.323,0.258-0.504c0.413,0.065,0.829,0.102,1.256,0.075c0.563-0.036,1.117-0.158,1.645-0.351
				c0.691-0.251,1.254-0.636,1.813-1.105c0.39-0.328,0.7-0.78,0.966-1.209c0.238-0.386,0.384-0.836,0.545-1.259
				c0.013-0.034,0.026-0.07,0.038-0.105c0.235-0.086,0.462-0.208,0.678-0.318c0.358-0.182,0.669-0.466,0.978-0.715
				c0.214-0.171,0.386-0.38,0.553-0.595c0.197-0.254,0.373-0.495,0.538-0.769c0.143-0.236,0.253-0.487,0.362-0.74
				c0.17-0.397,0.312-0.78,0.412-1.199c0.204-0.858,0.203-1.731,0.098-2.599c-0.035-0.295-0.071-0.61-0.15-0.9
				c-0.059-0.215-0.137-0.423-0.226-0.627c0.01-0.275,0.044-0.55,0.071-0.824c0.067-0.69-0.045-1.4-0.194-2.07
				c-0.154-0.692-0.444-1.385-0.828-1.978c-0.176-0.271-0.392-0.518-0.599-0.768c-0.133-0.16-0.289-0.298-0.44-0.44
				c-0.021-0.081-0.039-0.163-0.055-0.246c-0.077-0.715-0.131-1.43-0.291-2.136c-0.127-0.565-0.35-1.12-0.625-1.627
				c-0.361-0.664-0.968-1.128-1.559-1.57c-0.182-0.137-0.394-0.23-0.6-0.322c-0.312-0.138-0.619-0.262-0.941-0.367
				c-0.548-0.177-1.152-0.223-1.723-0.264c-0.09-0.006-0.182-0.01-0.274-0.01C269.053,378.323,268.56,378.41,268.086,378.483
				L268.086,378.483z M272.928,396.249c0.045,0.007,0.092,0.014,0.137,0.02C273.02,396.265,272.973,396.259,272.928,396.249
				L272.928,396.249z M272.912,396.312c-0.021,0.004-0.043,0.006-0.065,0.009C272.869,396.318,272.891,396.316,272.912,396.312
				L272.912,396.312z M231.767,408.365c0.024,0.01,0.049,0.021,0.072,0.031C231.816,408.385,231.792,408.376,231.767,408.365
				L231.767,408.365z M243.834,411.237c-0.014,0.018-0.028,0.037-0.043,0.055l-0.033,0.042c0.02-0.026,0.039-0.051,0.059-0.077
				C243.823,411.25,243.829,411.243,243.834,411.237L243.834,411.237z M243.698,411.413c-0.017,0.022-0.034,0.043-0.05,0.065
				c0.015-0.02,0.031-0.04,0.046-0.06L243.698,411.413L243.698,411.413z"/>
		</g>
		<g>
			<path fill="#B9181E" d="M366.552,404.47c-1.052,0.027-2.11,0.105-3.161,0.174c-0.66,0.042-1.321,0.14-1.973,0.241
				c-0.267,0.042-0.53,0.103-0.793,0.167c-0.179,0.042-0.349,0.103-0.523,0.164c-0.314,0.111-0.614,0.248-0.901,0.411
				c-0.277,0.199-0.54,0.411-0.793,0.639c-0.227,0.196-0.432,0.468-0.607,0.763c-0.271,0.159-0.485,0.418-0.576,0.74
				c-0.349,1.235-0.722,2.479-0.96,3.741c-0.246,1.304-0.474,2.604-0.68,3.913c-0.361,2.29-0.619,4.606-0.843,6.915
				c-0.226,2.331-0.25,4.68,0.062,7.004c0.159,1.172,0.38,2.321,0.654,3.471c0.243,1.017,0.53,2.046,0.899,3.026
				c0.464,1.238,0.955,2.459,1.471,3.677c0.425,1.004,0.936,1.968,1.449,2.93c1.127,2.113,2.68,3.975,4.169,5.836
				c1.412,1.762,3.017,3.331,4.68,4.854c0.837,0.769,1.724,1.528,2.732,2.061c0.331,0.174,0.688,0.314,1.044,0.43
				c0.791,0.26,1.634,0.036,2.36-0.297c0.818-0.376,1.538-0.992,2.196-1.604c0.828-0.769,1.526-1.685,2.225-2.569
				c0.757-0.958,1.491-1.943,2.129-2.985c0.32-0.523,0.634-1.046,0.936-1.58c0.29-0.516,0.543-1.054,0.806-1.585
				c0.546-1.101,0.983-2.268,1.444-3.409c0.884-2.188,1.597-4.453,2.295-6.704c0.656-2.12,1.257-4.277,1.612-6.47
				c0.391-2.403,0.685-4.82,0.907-7.246c0.197-2.137,0.268-4.291,0.361-6.434c0.049-1.105,0.096-2.206,0.081-3.312
				c-0.008-0.671-0.056-1.38-0.277-2.015c-0.214-0.616-0.557-1.162-1.066-1.577c-0.327-0.267-0.599-0.447-0.973-0.621
				c-0.263-0.125-0.536-0.228-0.808-0.332c-0.428-0.167-0.897-0.241-1.342-0.349c-0.528-0.125-1.054-0.251-1.585-0.364
				c-1.052-0.221-2.113-0.403-3.169-0.617c-1.292-0.262-2.594-0.455-3.904-0.597c-1.11-0.12-2.225-0.191-3.334-0.293
				c-1.58-0.147-3.173-0.213-4.762-0.213C367.541,404.451,367.046,404.458,366.552,404.47L366.552,404.47z M371.519,450.309
				c0.702,0.25,1.459,0.252,2.188,0.124c-0.115,0.106-0.231,0.21-0.35,0.312c-0.189,0.13-0.377,0.254-0.573,0.369
				C372.343,450.878,371.928,450.604,371.519,450.309L371.519,450.309z"/>
			<path fill="#B9181E" d="M372.123,442.759c-0.268,0.267-0.354,0.573-0.39,0.939c-0.105,1.09-0.216,2.181-0.315,3.272
				c-0.042,0.464-0.084,0.926-0.126,1.39c-0.052,0.577-0.108,1.172-0.037,1.749c0.002,0.233,0.061,0.45,0.177,0.653
				c0.115,0.194,0.27,0.347,0.464,0.464c0.413,0.241,0.891,0.218,1.304,0c0.808-0.425,0.857-1.41,0.951-2.209
				c0.044-0.363,0.064-0.729,0.093-1.091c0.046-0.582,0.089-1.177,0.061-1.761c-0.008-0.163-0.046-0.319-0.108-0.461
				c0.064-0.669,0.13-1.337,0.194-2.005c0.032-0.334-0.16-0.712-0.39-0.939c-0.248-0.248-0.589-0.39-0.939-0.39
				S372.371,442.511,372.123,442.759L372.123,442.759z"/>
			<path fill="#FFFFFF" d="M378.844,411.469c-0.425,0.425-0.772,1.115-0.719,1.736c0.186,2.112,0.334,4.216,0.395,6.335
				c0.025,0.882,0.025,1.764-0.012,2.646c-0.033,0.775-0.118,1.543-0.213,2.313c-0.188,1.205-0.389,2.407-0.598,3.607
				c-0.212,1.229-0.437,2.466-0.783,3.665c-0.378,1.305-0.811,2.591-1.29,3.864c-0.362,0.964-0.7,1.941-1.083,2.899
				c-0.119,0.276-0.235,0.553-0.333,0.839c-0.233,0.668-0.074,1.503,0.273,2.098c0.358,0.609,0.948,1.064,1.628,1.251
				c0.703,0.192,1.469,0.093,2.098-0.275c0.184-0.142,0.368-0.283,0.552-0.425c0.337-0.341,0.57-0.74,0.7-1.202
				c0.398-0.951,0.653-1.983,0.939-2.972c0.302-1.035,0.601-2.071,0.874-3.113c0.587-2.243,0.971-4.518,1.354-6.804
				c0.396-2.366,0.783-4.731,0.798-7.136c0.017-2.429-0.148-4.845-0.361-7.262c-0.008-0.11-0.019-0.219-0.029-0.327
				c-0.059-0.673-0.228-1.245-0.718-1.736c-0.459-0.459-1.086-0.718-1.736-0.718C379.932,410.751,379.303,411.01,378.844,411.469
				L378.844,411.469z"/>
		</g>
		<g>
			<path fill="#F4971B" d="M319.634,396.316c-0.47-0.031-0.951-0.013-1.419,0.028c-0.388,0.033-0.783,0.097-1.145,0.253
				c-0.29,0.125-0.545,0.283-0.793,0.476c-0.232,0.182-0.418,0.433-0.607,0.656c-0.256,0.306-0.467,0.695-0.643,1.056
				c-0.015-0.003-0.032-0.005-0.047-0.006c-0.86-0.081-1.806,0.598-1.826,1.511c-0.034,1.628-0.037,3.242,0.095,4.866
				c0.077,0.968,0.143,1.935,0.203,2.904c-0.084,0.261-0.174,0.521-0.278,0.777c-0.277,0.679-0.59,1.337-0.914,1.993
				c-0.381,0.682-0.776,1.355-1.226,1.994c-0.534,0.76-1.096,1.501-1.621,2.268c-1.061,1.557-2.022,3.188-2.947,4.829
				c-0.575,1.02-1.107,2.049-1.583,3.121c-0.185,0.416-0.338,0.842-0.472,1.275c-0.35,0.711-0.671,1.457-0.917,2.204
				c-0.351,1.066-0.629,2.135-0.851,3.233c-0.086,0.424-0.131,0.855-0.188,1.283c-0.172,1.268-0.06,2.551,0.261,3.782
				c0.554,2.131,1.62,4.176,2.957,5.917c1.147,1.492,2.385,2.916,3.838,4.118c0.646,0.533,1.337,1.005,2.039,1.462
				c0.742,0.483,1.486,0.965,2.241,1.43c0.788,0.484,1.58,0.957,2.349,1.469c0.684,0.457,1.305,1,1.916,1.549
				c0.613,0.595,1.198,1.202,1.73,1.868c0.537,0.672,1.022,1.367,1.491,2.083c0.5,0.826,0.99,1.655,1.445,2.507
				c0.436,0.819,0.795,1.652,1.101,2.524c0.234,0.791,0.442,1.587,0.615,2.392c0.064,0.294,0.121,0.574,0.228,0.858
				c0.102,0.27,0.342,0.488,0.583,0.627c0.458,0.265,0.946,0.37,1.447,0.136c0.413-0.193,0.757-0.517,0.985-0.909
				c0.196-0.334,0.314-0.678,0.402-1.051c0.433-1.829,0.726-3.689,1.133-5.525c0.22-0.876,0.441-1.753,0.715-2.611
				c0.172-0.545,0.363-1.074,0.587-1.6c0.156-0.363,0.337-0.717,0.52-1.067c0.243-0.421,0.499-0.822,0.793-1.211
				c0.277-0.367,0.577-0.712,0.885-1.053c1.277-1.279,2.647-2.463,3.884-3.784c0.761-0.813,1.396-1.708,2.001-2.638
				c0.816-1.253,1.41-2.634,1.888-4.044c0.635-1.876,1.034-3.846,1.228-5.817c0.044-0.445,0.039-0.896,0.053-1.342
				c0.014-0.454,0.012-0.917-0.005-1.371c-0.02-0.593-0.026-1.188-0.082-1.78c-0.101-1.055-0.296-2.064-0.619-3.075
				c-0.272-0.851-0.553-1.69-0.904-2.511c-0.337-0.791-0.744-1.542-1.155-2.296c-0.146-0.268-0.34-0.533-0.505-0.794
				c-0.117-0.182-0.23-0.369-0.353-0.548c-0.266-0.381-0.531-0.763-0.81-1.135c-0.493-0.661-1.056-1.268-1.622-1.868
				c-1.261-1.343-2.606-2.608-4.077-3.719c-1.25-0.942-2.538-1.855-3.709-2.895c-0.594-0.566-1.182-1.141-1.661-1.806
				c-0.447-0.764-0.833-1.557-1.141-2.387c-0.408-1.482-0.729-2.984-0.895-4.514c-0.036-0.34-0.063-0.68-0.097-1.02
				c-0.022-0.232-0.05-0.455-0.112-0.68c-0.103-0.381-0.205-0.633-0.436-0.952c-0.156-0.218-0.359-0.384-0.555-0.564
				c-0.301-0.274-0.759-0.417-1.147-0.521c-0.294-0.078-0.609-0.15-0.911-0.201c-0.319-0.054-0.636-0.095-0.956-0.125
				C319.891,396.335,319.762,396.324,319.634,396.316L319.634,396.316z M325.673,457.242c-0.006,0.038-0.013,0.076-0.019,0.114
				c-0.001-0.002-0.001-0.003-0.002-0.005C325.659,457.315,325.666,457.279,325.673,457.242L325.673,457.242z"/>
			<path fill="#F4971B" d="M319.366,396.996c-0.636,0.113-1.249,0.313-1.881,0.457c-0.582,0.132-1.194,0.164-1.785,0.249
				c-0.471,0.068-0.953,0.12-1.371,0.364c-0.34,0.197-0.5,0.322-0.756,0.62c-0.188,0.22-0.332,0.486-0.453,0.747
				c-0.108,0.234-0.195,0.47-0.269,0.717c-0.227,0.76-0.278,1.532-0.316,2.318c-0.034,0.69-0.055,1.379-0.046,2.069
				c0.021,1.467,0.044,2.935,0.032,4.401c-0.012,1.3-0.109,2.597-0.197,3.893c-0.04,0.592-0.081,1.187-0.12,1.779
				c-0.053,0.83-0.099,1.664-0.256,2.483c-0.108,0.409-0.236,0.811-0.377,1.21c-0.188,0.527-0.414,1.025-0.664,1.521
				c-2.045,3.644-4.282,7.178-6.424,10.764c-0.153,0.255-0.239,0.509-0.185,0.813c0.047,0.272,0.203,0.52,0.43,0.682
				c0.485,0.35,1.138,0.217,1.495-0.244c1.892-2.45,3.599-5.04,5.32-7.611c0.368-0.55,0.737-1.103,1.09-1.664
				c0.73-1.154,1.453-2.301,1.998-3.561c0.51-1.175,0.723-2.443,0.857-3.709c0.076-0.715,0.145-1.43,0.205-2.146
				c0.124-1.484,0.238-2.969,0.226-4.459c-0.015-1.481-0.07-2.959-0.133-4.438c-0.023-0.949,0.003-1.921,0.158-2.861
				c0.056-0.192,0.12-0.379,0.195-0.565c0.036-0.014,0.073-0.027,0.11-0.04c0.98-0.29,2-0.521,3.016-0.612
				c0.815-0.008,1.615,0.073,2.422,0.2c0.898,0.142,1.732-0.64,1.813-1.5c0.041-0.437-0.095-0.878-0.375-1.216
				c-0.295-0.356-0.679-0.525-1.126-0.596c-0.283-0.045-0.568-0.084-0.853-0.111C320.553,396.892,319.957,396.889,319.366,396.996
				L319.366,396.996z M316.112,400.834c-0.029,0.053-0.057,0.106-0.086,0.159c0.024-0.054,0.05-0.106,0.079-0.156
				C316.107,400.836,316.109,400.835,316.112,400.834L316.112,400.834z"/>
			<path fill="#F4971B" d="M320.83,396.896c-0.327-0.021-0.658-0.009-0.985-0.008c-0.647,0-1.291-0.031-1.939-0.067
				c-0.308-0.017-0.618-0.022-0.928-0.018c-0.438,0.006-0.891,0.016-1.321,0.106c-0.757,0.156-1.444,0.533-1.845,1.212
				c-0.29,0.488-0.42,0.969-0.51,1.527c-0.211,1.312-0.053,2.672,0.179,3.971c0.108,0.612,0.223,1.219,0.297,1.835
				c0.066,0.544,0.102,1.094,0.129,1.642c0.012,0.586-0.003,1.163-0.051,1.748c-0.043,0.503-0.145,1.001-0.252,1.494
				c-0.116,0.4-0.233,0.795-0.373,1.188c-0.168,0.47-0.359,0.92-0.56,1.379c-0.442,1.009-0.953,1.989-1.448,2.972
				c-0.133,0.262-0.087,0.639,0.033,0.894c0.125,0.271,0.356,0.487,0.635,0.593c0.29,0.108,0.616,0.097,0.896-0.033
				c0.294-0.137,0.45-0.357,0.592-0.637c0.762-1.506,1.526-3.009,2.148-4.579c0.256-0.648,0.456-1.316,0.632-1.989
				c0.201-0.766,0.393-1.533,0.527-2.312c0.241-1.412,0.262-2.84,0.199-4.265c-0.029-0.645-0.099-1.288-0.188-1.927
				c-0.071-0.517-0.097-1.032-0.122-1.551c0-0.039,0-0.078,0.001-0.117c0.212-0.032,0.427-0.05,0.641-0.063
				c0.669-0.006,1.337,0.044,2.006,0.045c0.747,0.003,1.492-0.016,2.238,0c0.654,0.014,1.256-0.294,1.497-0.933
				c0.139-0.363,0.124-0.776-0.041-1.13c-0.144-0.31-0.457-0.658-0.802-0.746c-0.389-0.1-0.759-0.187-1.152-0.224
				C320.92,396.903,320.875,396.899,320.83,396.896L320.83,396.896z M313.913,407.237c0.003,0.061,0.006,0.122,0.009,0.184
				C313.919,407.36,313.916,407.298,313.913,407.237L313.913,407.237z"/>
			<path fill="#FFFFFF" d="M322.78,415.777c-0.381,1.004,0.147,2.108,1.127,2.503c0.808,0.326,1.619,0.635,2.406,1.008
				c0.559,0.336,1.069,0.716,1.559,1.144c0.722,0.773,1.359,1.595,1.952,2.47c0.583,0.97,1.063,1.989,1.439,3.058
				c0.32,1.108,0.524,2.23,0.612,3.38c0.011,0.547,0.007,1.092-0.028,1.64c-0.033,0.514-0.131,1.024-0.239,1.529
				c-0.39,1.454-0.957,2.878-1.626,4.227c-0.256,0.44-0.527,0.871-0.822,1.289c-0.156,0.221-0.33,0.43-0.497,0.643
				c-0.449,0.564-0.657,1.488-0.499,2.186c0.135,0.597,0.421,1.108,0.926,1.471c0.673,0.483,1.568,0.564,2.317,0.218
				c0.51-0.233,0.798-0.538,1.157-0.958c0.251-0.293,0.397-0.686,0.568-1.031c0.24-0.48,0.481-0.959,0.707-1.446
				c0.444-0.961,0.778-1.988,1.102-2.996c0.365-1.143,0.64-2.3,0.844-3.482c0.196-1.135,0.124-2.309,0.043-3.45
				c-0.152-2.135-0.702-4.32-1.612-6.257c-0.493-1.049-1.08-2.031-1.748-2.978c-0.313-0.441-0.64-0.873-0.992-1.283
				c-0.457-0.526-0.954-1.001-1.468-1.471c-1.339-1.223-3.068-1.877-4.723-2.541c-0.164-0.066-0.332-0.105-0.501-0.121
				C323.939,414.45,323.087,414.964,322.78,415.777L322.78,415.777z"/>
		</g>
		<g>
			<path fill="#B9181E" d="M430.596,419.923c-0.643-0.137-1.297-0.209-1.95-0.209c-0.661,0-1.323,0.075-1.972,0.231
				c-0.374,0.09-0.737,0.202-1.094,0.346c-0.494,0.202-1.014,0.396-1.473,0.677c-0.793,0.485-1.566,1.061-2.211,1.733
				c-1.191,1.243-2.049,2.746-2.782,4.29c-0.694,1.464-1.353,2.944-2.017,4.422c-0.419,0.93-0.826,1.866-1.218,2.809
				c-0.302,0.729-0.57,1.471-0.844,2.21c-0.583,1.571-1.187,3.132-1.699,4.727c-0.511,1.589-0.989,3.188-1.482,4.782
				c-0.483,1.563-0.98,3.125-1.402,4.708c-0.438,1.645-0.863,3.296-1.259,4.952c-0.424,1.775-0.677,3.593-0.836,5.411
				c-0.143,1.635-0.21,3.276-0.138,4.917c0.081,1.85,0.421,3.687,0.862,5.483c0.394,1.604,0.891,3.179,1.483,4.721
				c0.649,1.691,1.555,3.28,2.609,4.749c1.071,1.493,2.275,2.869,3.7,4.032c1.383,1.13,2.918,2.084,4.473,2.958
				c3.071,1.725,6.331,3.088,9.659,4.233c3.165,1.089,6.363,2.052,9.618,2.832c1.62,0.389,3.257,0.698,4.902,0.958
				c0.88,0.139,1.781,0.252,2.674,0.268c0.861,0.016,1.719,0.02,2.579,0.009c0.787-0.01,1.583-0.017,2.367-0.1
				c0.99-0.105,1.967-0.254,2.945-0.441c0.757-0.144,1.534-0.276,2.276-0.483c1.186-0.331,2.356-0.752,3.403-1.409
				c0.847-0.532,1.648-1.124,2.406-1.777c0.357-0.307,0.675-0.649,0.971-1.015c0.351-0.435,0.69-0.891,0.944-1.392
				c0.274-0.539,0.531-1.101,0.716-1.677c0.187-0.579,0.284-1.149,0.363-1.753c0.131-0.993,0.098-1.97,0.017-2.963
				c-0.077-0.952-0.237-1.928-0.471-2.855c-0.201-0.793-0.456-1.55-0.762-2.309c-0.391-0.973-0.891-1.858-1.461-2.735
				c-0.122-0.187-0.271-0.359-0.406-0.537c-0.197-0.259-0.388-0.525-0.603-0.769c-0.298-0.339-0.599-0.663-0.916-0.983
				c-0.678-0.685-1.429-1.303-2.192-1.891c-0.678-0.522-1.361-1.024-2.084-1.484c-0.727-0.463-1.469-0.905-2.208-1.351
				c-1.287-0.775-2.553-1.571-3.76-2.463c-0.301-0.247-0.601-0.494-0.873-0.77c-0.331-0.339-0.647-0.682-0.96-1.038
				c-0.38-0.515-0.726-1.039-1.011-1.617c-0.045-0.128-0.083-0.257-0.116-0.389c-0.012-0.28-0.002-0.555,0.017-0.836
				c0.138-0.764,0.342-1.494,0.621-2.222c0.559-1.262,1.193-2.484,1.777-3.735c0.658-1.409,1.463-2.743,2.158-4.134
				c0.826-1.653,1.611-3.319,2.119-5.101c0.505-1.77,0.797-3.588,0.979-5.418c0.081-0.803,0.035-1.616-0.032-2.418
				c-0.081-0.955-0.194-1.934-0.532-2.836c-0.275-0.735-0.647-1.425-1.124-2.04c-0.081-0.147-0.166-0.288-0.26-0.422
				c-0.254-0.358-0.522-0.749-0.856-1.043c-0.447-0.394-0.927-0.74-1.447-1.028c-1.139-0.628-2.317-1.183-3.474-1.776
				c-1.235-0.631-2.472-1.259-3.714-1.876c-1.198-0.594-2.412-1.163-3.584-1.806c-1.407-0.771-2.784-1.598-4.192-2.367
				c-1.589-0.868-3.227-1.608-4.917-2.26C432.15,420.361,431.387,420.091,430.596,419.923L430.596,419.923z M415.564,475.333
				c0.004,0.008,0.008,0.016,0.012,0.024c0.012,0.029,0.025,0.058,0.037,0.087c-0.013-0.029-0.025-0.057-0.038-0.085
				C415.572,475.35,415.568,475.342,415.564,475.333L415.564,475.333z M415.745,475.759l0.013,0.029
				c0.017,0.041,0.034,0.082,0.051,0.122C415.788,475.86,415.766,475.81,415.745,475.759L415.745,475.759z"/>
			<path fill="#FFFFFF" d="M415.963,456.46c0.842,1.373,1.647,2.769,2.37,4.208c0.366,0.727,0.757,1.445,1.082,2.189
				c0.306,0.701,0.611,1.401,0.917,2.1c0.325,0.863,0.649,1.725,0.974,2.587c0.32,0.848,0.539,1.747,0.803,2.615
				c0.271,0.892,0.449,1.822,0.669,2.727c0.158,0.648,0.244,1.32,0.348,1.983c0.071,0.696,0.142,1.392,0.213,2.087
				c0.028,0.277,0.017,0.561,0.024,0.84c0.012,0.474,0.024,0.95,0.035,1.425c0.033,1.276-0.092,2.548-0.227,3.814
				c-0.117,0.758-0.233,1.513-0.401,2.262c-0.183,0.83-0.378,1.656-0.615,2.473c-0.046,0.159-0.092,0.317-0.138,0.476
				c-0.227-0.123-0.451-0.246-0.674-0.371c-1.863-1.047-3.285-1.988-4.474-2.958c-1.311-1.069-2.521-2.388-3.7-4.033
				c-1.122-1.563-2-3.161-2.609-4.749c-0.598-1.557-1.097-3.147-1.483-4.721c-0.517-2.103-0.791-3.845-0.863-5.484
				c-0.065-1.495-0.02-3.104,0.138-4.917c0.178-2.029,0.451-3.799,0.837-5.412c0.352-1.473,0.752-3.046,1.259-4.952
				c0.147-0.554,0.305-1.11,0.468-1.663C412.695,451.413,414.388,453.895,415.963,456.46L415.963,456.46z"/>
			<path fill="#FFFFFF" d="M456.086,468.246l0.416,0.249c0.59,0.357,1.202,0.725,1.792,1.101c0.79,0.501,1.529,1.056,2.086,1.484
				c0.93,0.718,1.606,1.301,2.192,1.891c0.308,0.312,0.608,0.633,0.916,0.983c0.17,0.193,0.326,0.402,0.479,0.605l0.124,0.164
				c0.044,0.059,0.089,0.115,0.134,0.172c0.094,0.118,0.189,0.238,0.271,0.366c0.647,0.994,1.111,1.863,1.461,2.735
				c0.323,0.799,0.571,1.555,0.762,2.309c0.232,0.918,0.395,1.905,0.472,2.856c0.07,0.867,0.124,1.897-0.017,2.963
				c-0.073,0.551-0.168,1.145-0.364,1.754c-0.16,0.499-0.389,1.032-0.716,1.677c-0.268,0.528-0.627,1-0.944,1.394
				c-0.323,0.399-0.641,0.73-0.971,1.015c-0.754,0.65-1.565,1.249-2.407,1.777c-0.899,0.565-1.979,1.012-3.403,1.41
				c-0.62,0.174-1.27,0.295-1.9,0.412l-0.378,0.072c-1.017,0.194-1.98,0.339-2.945,0.441c-0.758,0.079-1.537,0.089-2.29,0.099
				l-0.077,0.001c-0.334,0.004-0.666,0.006-1,0.006c-0.526,0-1.052-0.005-1.579-0.015c-0.766-0.015-1.59-0.097-2.674-0.268
				c-1.796-0.285-3.4-0.598-4.903-0.96c-1.495-0.358-3.007-0.761-4.557-1.215c0.151-0.599,0.314-1.196,0.489-1.792
				c0.604-2.062,1.384-4.062,2.189-6.052c0.521-1.194,1.066-2.368,1.675-3.523c0.576-1.097,1.297-2.1,2.034-3.09
				c0.683-0.856,1.373-1.703,2.133-2.493c0.846-0.876,1.764-1.669,2.689-2.461c1.669-1.43,3.293-2.916,4.99-4.311
				c1.057-0.765,2.147-1.463,3.295-2.077C455.739,468.037,455.915,468.143,456.086,468.246L456.086,468.246z"/>
			<path fill="#FFFFFF" d="M424.183,413.906c-0.474-0.072-0.967-0.159-1.453-0.159c-0.092,0-0.183,0.004-0.274,0.01
				c-0.571,0.042-1.175,0.087-1.722,0.264c-0.323,0.105-0.63,0.229-0.941,0.367c-0.207,0.092-0.418,0.185-0.6,0.322
				c-0.59,0.441-1.198,0.906-1.559,1.57c-0.275,0.507-0.498,1.062-0.625,1.627c-0.16,0.705-0.214,1.421-0.291,2.136
				c-0.016,0.083-0.034,0.165-0.055,0.246c-0.152,0.142-0.307,0.28-0.44,0.44c-0.207,0.249-0.423,0.496-0.599,0.768
				c-0.384,0.593-0.674,1.286-0.828,1.978c-0.149,0.67-0.262,1.38-0.194,2.07c0.027,0.274,0.061,0.549,0.071,0.824
				c-0.089,0.204-0.167,0.412-0.226,0.627c-0.079,0.29-0.115,0.605-0.15,0.9c-0.105,0.868-0.106,1.741,0.098,2.599
				c0.1,0.419,0.242,0.802,0.412,1.199c0.109,0.253,0.219,0.504,0.362,0.74c0.165,0.274,0.341,0.515,0.538,0.769
				c0.166,0.215,0.339,0.424,0.553,0.595c0.309,0.249,0.62,0.533,0.978,0.715c0.216,0.11,0.444,0.232,0.678,0.318
				c0.012,0.035,0.025,0.071,0.038,0.105c0.161,0.423,0.307,0.873,0.545,1.259c0.265,0.429,0.576,0.881,0.966,1.209
				c0.559,0.469,1.122,0.854,1.813,1.105c0.528,0.193,1.082,0.315,1.645,0.351c0.427,0.027,0.842-0.01,1.256-0.075
				c0.075,0.181,0.16,0.363,0.258,0.504c0.199,0.286,0.396,0.595,0.643,0.841c0.398,0.395,0.843,0.743,1.336,1.009
				c0.659,0.356,1.454,0.491,2.198,0.438c0.549-0.039,1.109-0.092,1.646-0.216c0.247-0.057,0.488-0.125,0.729-0.199
				c0.033,0.066,0.066,0.132,0.1,0.198c0.215,0.418,0.51,0.796,0.801,1.163c0.357,0.451,0.746,0.812,1.2,1.163
				c0.996,0.77,2.342,1.141,3.594,1.049c0.264-0.018,0.528-0.057,0.79-0.112c0.02,0.039,0.039,0.077,0.06,0.115
				c0.463,0.885,1.046,1.748,1.831,2.374c0.201,0.169,0.411,0.324,0.63,0.466c0.218,0.117,0.443,0.219,0.676,0.303
				c0.219,0.093,0.44,0.183,0.671,0.241c0.412,0.103,0.834,0.177,1.257,0.216c0.248,0.022,0.496,0.047,0.744,0.026
				c0.703-0.059,1.4-0.177,2.097-0.288c0.062-0.006,0.125-0.012,0.186-0.017c0.594,0.837,1.301,1.632,2.257,2.038
				c0.504,0.214,1.012,0.362,1.566,0.38c0.449,0.016,0.934-0.024,1.354-0.197c0.269-0.109,0.57-0.199,0.813-0.361
				c0.174-0.115,0.339-0.238,0.504-0.366c0.325,0.302,0.682,0.565,1.078,0.782c0.528,0.291,1.09,0.556,1.685,0.669
				c0.555,0.105,1.156,0.115,1.707-0.029c0.589-0.154,1.23-0.417,1.656-0.872c0.17-0.182,0.354-0.386,0.487-0.597
				c0.145-0.23,0.246-0.451,0.352-0.704c0.194-0.462,0.319-0.977,0.315-1.482c-0.001-0.12-0.006-0.24-0.012-0.359
				c0.473-0.053,0.96-0.137,1.405-0.277c0.795-0.249,1.57-0.598,2.238-1.1c0.517-0.389,1.056-0.791,1.493-1.274
				c0.603-0.669,1.165-1.44,1.419-2.317c0.242-0.837,0.315-1.749,0.281-2.62c-0.015-0.37-0.033-0.748-0.082-1.115
				c-0.095-0.712-0.174-1.441-0.418-2.121c-0.311-0.862-0.686-1.665-1.287-2.363c-0.372-0.43-0.818-0.785-1.276-1.119
				c-0.426-0.308-0.856-0.611-1.297-0.896c-0.484-0.313-0.979-0.605-1.468-0.91c-0.463-0.291-0.919-0.594-1.388-0.879
				c-0.733-0.446-1.479-0.868-2.227-1.291c-0.681-0.385-1.347-0.796-2.031-1.178c-1.444-0.81-2.914-1.588-4.402-2.314
				c-1.451-0.708-2.927-1.364-4.412-1.994c-0.883-0.374-1.767-0.741-2.669-1.062c-0.769-0.273-1.528-0.56-2.285-0.863
				c-2.298-0.983-4.609-1.944-6.92-2.896c-0.615-0.253-1.232-0.499-1.853-0.736c-0.042-0.025-0.083-0.048-0.125-0.072
				c-0.701-0.398-1.407-0.785-2.109-1.18c-1.497-0.844-3.018-1.63-4.658-2.164C424.944,414.097,424.57,413.966,424.183,413.906
				L424.183,413.906z M419.341,431.673c-0.045,0.01-0.092,0.016-0.137,0.02C419.249,431.686,419.296,431.68,419.341,431.673
				L419.341,431.673z M419.357,431.736c0.021,0.004,0.043,0.006,0.065,0.009C419.4,431.742,419.378,431.74,419.357,431.736
				L419.357,431.736z M460.502,443.789c-0.024,0.011-0.049,0.021-0.072,0.031C460.453,443.81,460.478,443.798,460.502,443.789
				L460.502,443.789z M448.435,446.66c0.006,0.007,0.011,0.013,0.017,0.02c0.02,0.025,0.039,0.051,0.059,0.077l-0.033-0.042
				C448.463,446.697,448.449,446.679,448.435,446.66L448.435,446.66z M448.572,446.837l0.004,0.005
				c0.015,0.02,0.031,0.04,0.046,0.06C448.605,446.881,448.588,446.859,448.572,446.837L448.572,446.837z"/>
		</g>
		<g>
			<path fill="#B9181E" d="M546.266,410.148c-1.05-0.074-2.11-0.099-3.163-0.131c-0.66-0.021-1.328,0.012-1.987,0.05
				c-0.269,0.016-0.537,0.051-0.805,0.09c-0.182,0.025-0.357,0.069-0.536,0.112c-0.323,0.081-0.635,0.188-0.936,0.323
				c-0.294,0.172-0.577,0.358-0.85,0.56c-0.244,0.173-0.475,0.424-0.677,0.701c-0.286,0.132-0.523,0.37-0.644,0.681
				c-0.466,1.195-0.957,2.398-1.315,3.631c-0.37,1.274-0.722,2.546-1.053,3.829c-0.58,2.245-1.059,4.525-1.504,6.802
				c-0.449,2.298-0.699,4.635-0.612,6.978c0.045,1.182,0.155,2.346,0.318,3.518c0.144,1.036,0.33,2.087,0.604,3.098
				c0.343,1.277,0.714,2.539,1.11,3.801c0.327,1.04,0.743,2.049,1.16,3.055c0.918,2.212,2.285,4.215,3.589,6.209
				c1.236,1.89,2.683,3.606,4.192,5.282c0.759,0.846,1.569,1.687,2.521,2.314c0.312,0.205,0.655,0.378,0.998,0.529
				c0.762,0.335,1.623,0.192,2.377-0.069c0.85-0.296,1.626-0.839,2.34-1.385c0.898-0.686,1.681-1.53,2.461-2.343
				c0.846-0.881,1.671-1.79,2.406-2.767c0.369-0.49,0.732-0.98,1.084-1.483c0.338-0.486,0.642-0.997,0.955-1.5
				c0.65-1.044,1.197-2.163,1.765-3.254c1.09-2.092,2.018-4.278,2.929-6.452c0.857-2.047,1.662-4.137,2.227-6.285
				c0.621-2.355,1.145-4.732,1.6-7.125c0.402-2.108,0.68-4.245,0.978-6.37c0.155-1.095,0.308-2.187,0.399-3.289
				c0.056-0.669,0.077-1.378-0.082-2.033c-0.154-0.633-0.442-1.21-0.909-1.672c-0.3-0.297-0.553-0.503-0.909-0.711
				c-0.25-0.149-0.512-0.278-0.772-0.408c-0.41-0.207-0.87-0.326-1.303-0.477c-0.513-0.175-1.025-0.352-1.543-0.515
				c-1.026-0.321-2.065-0.604-3.095-0.919c-1.261-0.385-2.538-0.703-3.829-0.97c-1.093-0.226-2.196-0.404-3.291-0.613
				c-1.559-0.298-3.138-0.517-4.719-0.67C547.252,410.224,546.759,410.183,546.266,410.148L546.266,410.148z M546.802,456.251
				c0.675,0.317,1.428,0.391,2.166,0.334c-0.124,0.094-0.25,0.187-0.379,0.277c-0.2,0.111-0.4,0.217-0.606,0.313
				C547.567,456.897,547.18,456.585,546.802,456.251L546.802,456.251z"/>
			<path fill="#B9181E" d="M548.128,448.795c-0.293,0.24-0.408,0.537-0.478,0.898c-0.209,1.074-0.425,2.15-0.629,3.227
				c-0.087,0.458-0.173,0.913-0.26,1.371c-0.107,0.569-0.22,1.156-0.205,1.737c-0.021,0.232,0.017,0.454,0.113,0.667
				c0.096,0.204,0.235,0.372,0.417,0.506c0.388,0.28,0.866,0.302,1.298,0.125c0.845-0.345,0.988-1.321,1.159-2.108
				c0.079-0.357,0.134-0.719,0.197-1.077c0.101-0.575,0.202-1.163,0.23-1.747c0.007-0.163-0.015-0.322-0.063-0.469
				c0.128-0.659,0.258-1.319,0.386-1.977c0.064-0.329-0.091-0.724-0.297-0.973c-0.223-0.271-0.548-0.444-0.898-0.478
				C548.75,448.464,548.399,448.572,548.128,448.795L548.128,448.795z"/>
			<path fill="#FFFFFF" d="M557.828,418.297c-0.464,0.382-0.876,1.035-0.882,1.658c-0.018,2.12-0.073,4.229-0.216,6.343
				c-0.06,0.88-0.144,1.758-0.266,2.633c-0.107,0.768-0.266,1.525-0.435,2.282c-0.303,1.181-0.619,2.358-0.942,3.533
				c-0.33,1.203-0.672,2.412-1.131,3.573c-0.502,1.263-1.057,2.501-1.656,3.722c-0.453,0.925-0.883,1.865-1.357,2.781
				c-0.145,0.263-0.287,0.528-0.412,0.803c-0.296,0.642-0.218,1.489,0.07,2.115c0.297,0.64,0.841,1.151,1.5,1.402
				c0.682,0.259,1.453,0.234,2.115-0.072c0.197-0.123,0.393-0.247,0.59-0.37c0.369-0.307,0.639-0.682,0.812-1.13
				c0.488-0.909,0.841-1.911,1.221-2.868c0.4-1.002,0.797-2.004,1.169-3.015c0.8-2.176,1.401-4.404,2.002-6.642
				c0.622-2.317,1.234-4.634,1.48-7.026c0.25-2.416,0.318-4.837,0.339-7.263c0.002-0.11,0.003-0.22,0.003-0.328
				c0.006-0.676-0.107-1.261-0.548-1.797c-0.413-0.501-1.012-0.82-1.658-0.882C558.98,417.686,558.329,417.884,557.828,418.297
				L557.828,418.297z"/>
		</g>
		<g>
			<path fill="#F4971B" d="M493.664,402.791c-0.471,0.014-0.948,0.077-1.41,0.162c-0.383,0.07-0.771,0.172-1.116,0.361
				c-0.276,0.152-0.516,0.333-0.745,0.549c-0.214,0.203-0.375,0.471-0.542,0.711c-0.225,0.329-0.399,0.736-0.54,1.112
				c-0.015-0.002-0.032-0.002-0.047-0.002c-0.863,0.001-1.741,0.767-1.674,1.677c0.12,1.624,0.271,3.231,0.557,4.835
				c0.168,0.956,0.327,1.912,0.478,2.872c-0.059,0.268-0.124,0.535-0.203,0.8c-0.211,0.702-0.46,1.387-0.72,2.071
				c-0.314,0.716-0.644,1.423-1.031,2.101c-0.459,0.807-0.949,1.599-1.398,2.412c-0.908,1.651-1.71,3.366-2.475,5.087
				c-0.476,1.07-0.908,2.145-1.279,3.257c-0.144,0.432-0.257,0.871-0.349,1.314c-0.28,0.741-0.529,1.514-0.703,2.281
				c-0.248,1.095-0.423,2.185-0.54,3.3c-0.045,0.43-0.049,0.864-0.066,1.295c-0.05,1.278,0.183,2.545,0.62,3.74
				c0.754,2.068,2.01,4.003,3.506,5.609c1.284,1.376,2.652,2.676,4.212,3.735c0.694,0.47,1.426,0.873,2.169,1.262
				c0.785,0.41,1.571,0.819,2.366,1.211c0.83,0.407,1.664,0.802,2.478,1.239c0.724,0.39,1.394,0.872,2.055,1.36
				c0.667,0.534,1.307,1.083,1.9,1.696c0.598,0.618,1.147,1.263,1.683,1.932c0.576,0.775,1.142,1.553,1.677,2.359
				c0.512,0.773,0.948,1.569,1.336,2.408c0.308,0.765,0.591,1.537,0.84,2.323c0.091,0.287,0.175,0.56,0.308,0.833
				c0.127,0.259,0.387,0.453,0.64,0.569c0.481,0.22,0.977,0.279,1.454-0.002c0.393-0.232,0.704-0.586,0.894-0.998
				c0.163-0.351,0.249-0.705,0.3-1.085c0.257-1.862,0.372-3.741,0.602-5.607c0.135-0.892,0.272-1.786,0.463-2.667
				c0.119-0.558,0.26-1.103,0.433-1.648c0.121-0.376,0.267-0.746,0.417-1.112c0.202-0.442,0.419-0.866,0.674-1.281
				c0.241-0.392,0.507-0.763,0.781-1.133c1.15-1.395,2.401-2.704,3.507-4.136c0.68-0.881,1.227-1.833,1.741-2.816
				c0.693-1.325,1.153-2.756,1.495-4.205c0.454-1.928,0.664-3.927,0.669-5.907c0.001-0.447-0.047-0.896-0.075-1.341
				c-0.029-0.454-0.076-0.914-0.135-1.364c-0.077-0.589-0.138-1.18-0.251-1.764c-0.201-1.04-0.49-2.027-0.908-3.003
				c-0.352-0.821-0.711-1.63-1.139-2.413c-0.411-0.755-0.888-1.464-1.368-2.175c-0.171-0.253-0.389-0.499-0.578-0.743
				c-0.133-0.17-0.264-0.345-0.404-0.512c-0.301-0.354-0.601-0.709-0.914-1.053c-0.554-0.611-1.172-1.162-1.792-1.706
				c-1.383-1.217-2.842-2.349-4.412-3.314c-1.334-0.819-2.703-1.605-3.967-2.529c-0.645-0.507-1.285-1.024-1.826-1.64
				c-0.517-0.718-0.977-1.471-1.363-2.268c-0.547-1.436-1.009-2.901-1.32-4.408c-0.068-0.336-0.128-0.671-0.194-1.007
				c-0.044-0.229-0.094-0.449-0.176-0.666c-0.139-0.369-0.264-0.61-0.524-0.907c-0.176-0.202-0.393-0.349-0.606-0.508
				c-0.326-0.244-0.795-0.343-1.191-0.41c-0.3-0.05-0.621-0.092-0.926-0.113c-0.322-0.023-0.643-0.035-0.963-0.034
				C493.922,402.786,493.792,402.788,493.664,402.791L493.664,402.791z M505.468,462.868c-0.003,0.038-0.005,0.077-0.008,0.115
				c-0.001-0.001-0.002-0.003-0.003-0.005C505.461,462.942,505.464,462.905,505.468,462.868L505.468,462.868z"/>
			<path fill="#F4971B" d="M493.462,403.494c-0.622,0.173-1.214,0.43-1.829,0.634c-0.566,0.186-1.173,0.277-1.753,0.417
				c-0.462,0.112-0.937,0.211-1.33,0.493c-0.32,0.228-0.467,0.368-0.694,0.689c-0.167,0.236-0.284,0.515-0.38,0.786
				c-0.086,0.243-0.149,0.486-0.2,0.739c-0.154,0.778-0.131,1.552-0.094,2.338c0.031,0.69,0.076,1.378,0.152,2.064
				c0.161,1.459,0.323,2.917,0.45,4.378c0.112,1.295,0.139,2.596,0.174,3.894c0.016,0.594,0.032,1.189,0.05,1.783
				c0.026,0.832,0.06,1.666-0.019,2.496c-0.068,0.417-0.158,0.829-0.26,1.24c-0.137,0.543-0.314,1.06-0.517,1.577
				c-1.689,3.822-3.58,7.553-5.372,11.326c-0.128,0.268-0.19,0.53-0.107,0.827c0.073,0.266,0.252,0.499,0.493,0.638
				c0.517,0.303,1.154,0.108,1.465-0.385c1.651-2.618,3.104-5.359,4.572-8.082c0.315-0.582,0.629-1.168,0.927-1.76
				c0.617-1.219,1.228-2.429,1.651-3.735c0.396-1.218,0.487-2.5,0.5-3.774c0.007-0.718,0.008-1.437,0-2.155
				c-0.017-1.489-0.045-2.978-0.199-4.461c-0.155-1.473-0.351-2.939-0.554-4.406c-0.113-0.943-0.18-1.913-0.114-2.863
				c0.037-0.196,0.083-0.389,0.141-0.581c0.035-0.018,0.07-0.034,0.105-0.051c0.948-0.382,1.942-0.709,2.944-0.896
				c0.81-0.086,1.615-0.081,2.43-0.032c0.907,0.056,1.663-0.802,1.662-1.665c-0.001-0.439-0.178-0.865-0.489-1.175
				c-0.328-0.327-0.726-0.458-1.178-0.486c-0.286-0.018-0.573-0.03-0.86-0.029C494.634,403.278,494.04,403.331,493.462,403.494
				L493.462,403.494z M490.587,407.624c-0.023,0.055-0.047,0.111-0.071,0.166c0.018-0.056,0.039-0.11,0.064-0.163
				C490.583,407.627,490.585,407.626,490.587,407.624L490.587,407.624z"/>
			<path fill="#F4971B" d="M494.91,403.256c-0.327,0.011-0.656,0.053-0.981,0.086c-0.644,0.062-1.288,0.091-1.936,0.118
				c-0.309,0.012-0.617,0.036-0.926,0.07c-0.435,0.048-0.885,0.101-1.305,0.231c-0.738,0.227-1.387,0.668-1.722,1.382
				c-0.242,0.513-0.326,1.004-0.362,1.569c-0.086,1.326,0.201,2.665,0.556,3.936c0.166,0.599,0.337,1.192,0.47,1.799
				c0.118,0.536,0.205,1.079,0.284,1.623c0.068,0.582,0.108,1.158,0.116,1.745c0.005,0.505-0.049,1.01-0.109,1.512
				c-0.078,0.409-0.156,0.813-0.258,1.218c-0.122,0.484-0.27,0.95-0.426,1.426c-0.344,1.046-0.759,2.071-1.159,3.097
				c-0.108,0.273-0.026,0.644,0.118,0.887c0.151,0.258,0.4,0.451,0.689,0.53c0.299,0.081,0.622,0.038,0.889-0.118
				c0.28-0.164,0.414-0.399,0.529-0.691c0.615-1.571,1.233-3.141,1.703-4.762c0.193-0.67,0.328-1.353,0.44-2.04
				c0.127-0.781,0.246-1.564,0.305-2.352c0.106-1.429-0.009-2.852-0.207-4.265c-0.09-0.639-0.221-1.273-0.371-1.9
				c-0.12-0.508-0.195-1.018-0.269-1.532c-0.004-0.039-0.008-0.078-0.01-0.116c0.208-0.052,0.421-0.09,0.633-0.123
				c0.666-0.07,1.335-0.083,2.002-0.146c0.744-0.069,1.484-0.157,2.228-0.212c0.653-0.048,1.222-0.412,1.402-1.071
				c0.104-0.375,0.049-0.784-0.148-1.121c-0.173-0.295-0.517-0.611-0.87-0.667c-0.397-0.063-0.774-0.114-1.168-0.113
				C495,403.254,494.955,403.254,494.91,403.256L494.91,403.256z M489.008,414.207c0.009,0.061,0.017,0.121,0.026,0.182
				C489.025,414.328,489.016,414.268,489.008,414.207L489.008,414.207z"/>
			<path fill="#FFFFFF" d="M498.645,421.866c-0.284,1.036,0.347,2.084,1.36,2.384c0.835,0.247,1.672,0.479,2.491,0.775
				c0.588,0.281,1.133,0.612,1.661,0.991c0.792,0.701,1.504,1.459,2.178,2.273c0.673,0.91,1.247,1.879,1.723,2.908
				c0.424,1.072,0.734,2.17,0.93,3.307c0.063,0.544,0.111,1.086,0.128,1.635c0.016,0.515-0.033,1.032-0.092,1.545
				c-0.25,1.484-0.679,2.956-1.217,4.362c-0.213,0.463-0.442,0.918-0.695,1.362c-0.135,0.235-0.288,0.459-0.434,0.687
				c-0.394,0.604-0.512,1.544-0.289,2.223c0.191,0.582,0.524,1.063,1.061,1.376c0.716,0.417,1.615,0.413,2.328-0.003
				c0.485-0.281,0.743-0.612,1.061-1.064c0.222-0.316,0.329-0.721,0.467-1.08c0.193-0.501,0.388-1.001,0.566-1.507
				c0.351-0.999,0.586-2.053,0.812-3.088c0.255-1.173,0.418-2.35,0.509-3.546c0.088-1.149-0.096-2.311-0.285-3.439
				c-0.354-2.111-1.109-4.233-2.2-6.075c-0.59-0.998-1.268-1.919-2.023-2.798c-0.353-0.409-0.72-0.809-1.11-1.182
				c-0.505-0.48-1.045-0.906-1.601-1.325c-1.449-1.091-3.232-1.577-4.943-2.081c-0.169-0.05-0.34-0.073-0.51-0.073
				C499.674,420.434,498.875,421.027,498.645,421.866L498.645,421.866z"/>
		</g>
	</g>
	<g>
		<path fill="#B4B4B4" d="M936.146,368.376c-4.05-2.126-6.994-2.179-11.579-2.948c-6.11-1.024-12.02-1.829-18.239-1.802
			c-12.606,0.056-24.732,1.296-37.21,2.633c-11.731,1.257-23.367,3.353-35.135,4.07c-11.813,0.72-23.802,1.135-35.582,2.453
			c-11.935,1.335-24.271,0.785-36.191-0.026c-5.987-0.408-11.946-0.779-17.88-1.958c-5.397-1.072-10.912-1.71-16.263-3.03
			c-5.392-1.33-11.329-2.123-16.847-2.917c-5.67-0.815-11.333-1.782-17.04-2.296c-11.322-1.02-22.466-3.801-33.792-4.715
			c-11.157-0.9-22.793,0.145-33.894,2.035c-0.17-0.078-0.368-0.117-0.598-0.079c-14.056,2.273-27.742,6.812-42.093,6.045
			c-7.99-0.427-15.888-1.022-23.833-1.924c-7.135-0.81-14.137,0.269-21.148,1.59c-1.054,0.199-0.648,1.591,0.231,1.706
			c4.604,0.604,9.214,0.117,13.846,0.224c4.188,0.096,8.174,1.07,12.303,1.642c7.054,0.975,14.562,1.156,21.67,1.494
			c7.162,0.341,14.137-1.06,21.006-2.901c0.274-0.073,0.553-0.143,0.831-0.213c-0.005,0.013-0.011,0.025-0.016,0.038
			c4.768-1.039,9.569-1.817,14.409-2.688c3.278-0.59,6.615-1.101,9.979-1.531c0.036,1.766,0.541,3.528,1.206,5.338
			c1.415,3.853,2.498,9.829,0.167,13.559c-0.236,0.378,0.327,0.674,0.582,0.34c2.187-2.862,1.905-6.679,1.594-10.046
			c-0.21-2.275-1.102-4.211-1.677-6.416c-0.27-1.034-0.228-2.018-0.129-2.989c7.791-0.919,15.712-1.338,23.432-0.93
			c7.527,0.398,15.003,1.895,22.479,3.219c0.058,0.128,0.115,0.256,0.163,0.39c0.255,0.713,0.359,1.503,0.627,2.221
			c1.431,3.845,2.497,7.127,2.417,11.366c-0.082,4.375-1.853,8.579-2.385,12.945c-0.273,2.234-0.35,5.552,1.232,7.34
			c0.247,0.28,0.705-0.017,0.611-0.355c-2.002-7.195,2.715-14.423,2.331-21.697c-0.173-3.277-1.056-6.312-2.361-9.316
			c-0.373-0.858-0.599-1.738-0.926-2.594c3.046,0.525,6.092,1.008,9.143,1.356c11.149,1.27,22.205,3.04,33.289,4.737
			c4.312,0.66,8.644,1.62,12.991,2.56c0.284,0.552,0.509,1.086,0.639,1.422c0.589,1.524,0.657,3.327,0.862,4.957
			c0.509,4.058,0.279,7.871-1.106,11.696c-1.231,3.397-2.554,6.333-2.954,9.976c-0.257,2.343-0.988,4.677,0.81,6.51
			c0.364,0.371,0.915,0.067,0.956-0.396c0.137-1.539-0.08-3.075,0.078-4.684c0.276-2.796,0.676-5.286,1.783-7.88
			c1.433-3.358,2.57-6.374,2.504-10.059c-0.061-3.395-0.008-7.501-1.419-10.658c-0.067-0.15-0.147-0.311-0.226-0.47
			c5.898,1.256,11.825,2.39,17.77,2.598c10.187,0.358,20.405,0.714,30.651,0.64c-0.357,1.659-0.145,3.501,0.096,5.199
			c0.606,4.263,2.098,8.368,2.998,12.571c0.999,4.667,2.04,9.593,1.082,14.345c-0.41,2.034-0.75,4.112-1.328,6.107
			c-0.413,1.427-0.853,4.342-1.879,5.469c-0.209,0.23,0.051,0.546,0.322,0.418c2.051-0.973,3.19-5.552,3.7-7.542
			c1.021-3.977,1.784-7.997,1.306-12.123c-0.474-4.086-1.479-8.174-2.506-12.148c-0.938-3.627-2.73-8.252-1.773-12.252h0.038
			c11.971,0,24.136-1.599,36.088-2.309c8.873-0.527,17.752-1.375,26.596-2.593c1.233,1.448,2.01,2.899,2.773,4.65
			c1.478,3.389,2.435,6.834,2.559,10.549c0.119,3.581-0.672,6.86-0.906,10.393c-0.097,1.464-0.5,3.278-0.3,4.715
			c0.153,1.097,0.839,2.085,1.185,3.123c0.21,0.631,1.163,0.695,1.346,0c0.246-0.936-0.078-1.458-0.232-2.366
			c-0.348-2.054-0.155-4.467,0.089-6.525c0.432-3.647,0.997-6.943,0.668-10.665c-0.279-3.165-1.117-6.168-2.419-9.049
			c-0.666-1.474-1.233-2.843-2.235-4.126c-0.249-0.319-0.538-0.621-0.844-0.914c1.102-0.158,2.206-0.297,3.307-0.467
			c13.31-2.048,27.115-4.123,40.578-4.212c5.283-0.035,10.576,0.07,15.859,0.253c-0.608,1.761-0.139,3.835,0.021,5.611
			c0.381,4.236,1.996,8.283,3.202,12.326c1.321,4.43,2.109,9.322,2.355,13.93c0.272,5.085-1.276,9.938-2.881,14.693
			c-0.158,0.468,0.522,0.882,0.849,0.494c2.372-2.818,3.323-6.956,3.824-10.562c0.572-4.12,0-8.692-0.761-12.76
			c-0.838-4.478-2.326-8.694-3.447-13.094c-0.559-2.194-0.94-4.162-1.098-6.428c-0.104-1.492-0.603-2.606,0.103-4.105
			c0.007-0.014,0.016-0.025,0.022-0.039c6.443,0.256,12.866,0.649,19.225,1.16C936.486,369.741,936.741,368.688,936.146,368.376z"/>
		<g>
			<path fill="#B9181E" d="M626.215,384.5c-0.791,0.167-1.554,0.438-2.308,0.729c-1.69,0.653-3.328,1.393-4.917,2.26
				c-1.408,0.769-2.785,1.595-4.192,2.367c-1.172,0.643-2.386,1.212-3.584,1.806c-1.242,0.617-2.479,1.246-3.714,1.876
				c-1.158,0.593-2.335,1.148-3.474,1.776c-0.521,0.289-1,0.634-1.447,1.028c-0.334,0.293-0.602,0.685-0.856,1.043
				c-0.094,0.133-0.18,0.275-0.26,0.422c-0.477,0.615-0.848,1.306-1.123,2.04c-0.337,0.902-0.451,1.881-0.532,2.836
				c-0.067,0.802-0.112,1.615-0.032,2.418c0.182,1.83,0.474,3.648,0.979,5.418c0.507,1.782,1.292,3.449,2.118,5.101
				c0.694,1.391,1.5,2.725,2.158,4.134c0.584,1.251,1.219,2.473,1.777,3.735c0.279,0.729,0.483,1.458,0.621,2.223
				c0.02,0.281,0.029,0.556,0.017,0.836c-0.033,0.132-0.071,0.26-0.116,0.389c-0.285,0.578-0.631,1.103-1.011,1.617
				c-0.313,0.356-0.628,0.699-0.96,1.038c-0.271,0.276-0.572,0.523-0.873,0.77c-1.208,0.892-2.473,1.688-3.76,2.463
				c-0.738,0.446-1.48,0.887-2.208,1.351c-0.724,0.46-1.406,0.962-2.084,1.484c-0.763,0.588-1.513,1.207-2.192,1.891
				c-0.317,0.32-0.617,0.644-0.916,0.983c-0.215,0.245-0.406,0.51-0.603,0.769c-0.135,0.177-0.284,0.35-0.406,0.537
				c-0.57,0.877-1.07,1.762-1.461,2.735c-0.306,0.759-0.561,1.516-0.762,2.309c-0.234,0.927-0.394,1.902-0.471,2.854
				c-0.081,0.994-0.114,1.971,0.017,2.963c0.08,0.604,0.176,1.174,0.363,1.753c0.186,0.576,0.443,1.138,0.716,1.677
				c0.254,0.501,0.593,0.957,0.944,1.392c0.296,0.366,0.614,0.708,0.971,1.015c0.758,0.654,1.559,1.246,2.406,1.777
				c1.048,0.658,2.218,1.078,3.403,1.41c0.742,0.207,1.52,0.339,2.276,0.483c0.978,0.187,1.955,0.336,2.945,0.441
				c0.784,0.083,1.58,0.09,2.367,0.1c0.861,0.011,1.719,0.007,2.58-0.008c0.892-0.016,1.793-0.128,2.673-0.268
				c1.646-0.26,3.282-0.57,4.902-0.959c3.255-0.78,6.453-1.743,9.618-2.832c3.328-1.145,6.588-2.509,9.659-4.233
				c1.555-0.874,3.09-1.829,4.473-2.958c1.425-1.163,2.63-2.539,3.7-4.032c1.054-1.469,1.96-3.059,2.609-4.749
				c0.592-1.543,1.089-3.117,1.483-4.721c0.441-1.796,0.781-3.633,0.862-5.483c0.072-1.641,0.005-3.282-0.138-4.917
				c-0.159-1.818-0.412-3.636-0.836-5.411c-0.396-1.656-0.821-3.307-1.259-4.952c-0.422-1.583-0.919-3.144-1.402-4.708
				c-0.493-1.594-0.971-3.193-1.482-4.782c-0.512-1.595-1.116-3.156-1.699-4.727c-0.274-0.74-0.542-1.482-0.844-2.21
				c-0.391-0.944-0.798-1.879-1.218-2.809c-0.664-1.478-1.323-2.957-2.017-4.422c-0.734-1.544-1.592-3.046-2.782-4.29
				c-0.646-0.672-1.418-1.248-2.211-1.733c-0.46-0.281-0.979-0.476-1.473-0.677c-0.357-0.144-0.72-0.255-1.094-0.346
				c-0.649-0.156-1.311-0.231-1.972-0.231C627.512,384.29,626.858,384.363,626.215,384.5L626.215,384.5z"/>
			<path fill="#B9181E" d="M641.246,439.909c-0.004,0.009-0.007,0.017-0.011,0.026c-0.013,0.028-0.026,0.057-0.038,0.085
				c0.012-0.029,0.025-0.058,0.037-0.087C641.238,439.925,641.242,439.917,641.246,439.909L641.246,439.909z"/>
			<path fill="#B9181E" d="M641.066,440.335c-0.021,0.051-0.043,0.101-0.064,0.152c0.017-0.041,0.034-0.082,0.051-0.122
				L641.066,440.335L641.066,440.335z"/>
			<path fill="#FFFFFF" d="M640.848,421.036c-0.842,1.373-1.647,2.769-2.37,4.208c-0.365,0.727-0.757,1.445-1.082,2.189
				c-0.306,0.701-0.611,1.401-0.917,2.1c-0.325,0.863-0.649,1.725-0.974,2.587c-0.32,0.848-0.539,1.747-0.803,2.615
				c-0.271,0.892-0.449,1.821-0.669,2.727c-0.158,0.648-0.245,1.32-0.348,1.983c-0.071,0.696-0.142,1.392-0.213,2.087
				c-0.028,0.277-0.017,0.561-0.024,0.84c-0.012,0.474-0.024,0.95-0.035,1.425c-0.033,1.276,0.092,2.548,0.227,3.814
				c0.117,0.758,0.233,1.513,0.401,2.262c0.183,0.83,0.378,1.656,0.615,2.473c0.046,0.159,0.092,0.317,0.138,0.476
				c0.227-0.123,0.451-0.246,0.673-0.371c1.863-1.047,3.285-1.988,4.474-2.958c1.31-1.068,2.521-2.387,3.701-4.033
				c1.122-1.564,2-3.161,2.609-4.749c0.598-1.557,1.097-3.147,1.483-4.721c0.517-2.103,0.791-3.845,0.863-5.484
				c0.065-1.495,0.019-3.104-0.138-4.917c-0.178-2.029-0.451-3.799-0.837-5.412c-0.352-1.473-0.752-3.046-1.259-4.952
				c-0.147-0.554-0.305-1.11-0.469-1.663C644.116,415.989,642.422,418.471,640.848,421.036L640.848,421.036z"/>
			<path fill="#FFFFFF" d="M600.724,432.823l-0.416,0.249c-0.591,0.357-1.202,0.725-1.792,1.101
				c-0.79,0.501-1.529,1.056-2.086,1.484c-0.93,0.718-1.606,1.301-2.192,1.891c-0.308,0.312-0.608,0.633-0.916,0.983
				c-0.17,0.193-0.326,0.402-0.479,0.605l-0.124,0.164c-0.044,0.059-0.089,0.115-0.134,0.172c-0.094,0.118-0.189,0.238-0.271,0.365
				c-0.647,0.994-1.111,1.863-1.461,2.735c-0.323,0.799-0.571,1.555-0.762,2.309c-0.232,0.918-0.395,1.905-0.472,2.856
				c-0.07,0.867-0.123,1.897,0.017,2.963c0.073,0.551,0.167,1.146,0.364,1.754c0.16,0.499,0.389,1.032,0.716,1.677
				c0.268,0.528,0.627,1,0.944,1.394c0.323,0.399,0.641,0.73,0.971,1.015c0.754,0.65,1.565,1.249,2.407,1.778
				c0.898,0.565,1.979,1.012,3.403,1.409c0.62,0.174,1.27,0.295,1.9,0.412l0.378,0.072c1.017,0.194,1.98,0.339,2.945,0.441
				c0.758,0.079,1.537,0.089,2.29,0.099l0.077,0.001c0.334,0.004,0.666,0.006,1,0.006c0.526,0,1.053-0.005,1.579-0.015
				c0.766-0.015,1.59-0.097,2.674-0.268c1.796-0.285,3.4-0.598,4.903-0.96c1.495-0.358,3.007-0.761,4.557-1.215
				c-0.151-0.599-0.314-1.196-0.489-1.792c-0.604-2.062-1.384-4.062-2.19-6.052c-0.521-1.194-1.066-2.368-1.675-3.523
				c-0.576-1.097-1.297-2.1-2.034-3.091c-0.683-0.856-1.373-1.703-2.133-2.493c-0.846-0.877-1.764-1.669-2.689-2.461
				c-1.669-1.43-3.293-2.916-4.99-4.31c-1.057-0.765-2.147-1.463-3.295-2.077C601.071,432.613,600.896,432.719,600.724,432.823
				L600.724,432.823z"/>
			<path fill="#FFFFFF" d="M632.627,378.483c-0.386,0.06-0.76,0.191-1.131,0.31c-1.639,0.534-3.16,1.32-4.658,2.164
				c-0.702,0.395-1.408,0.781-2.109,1.18c-0.042,0.024-0.083,0.048-0.125,0.072c-0.621,0.237-1.238,0.483-1.853,0.736
				c-2.312,0.952-4.622,1.913-6.92,2.896c-0.757,0.303-1.516,0.59-2.285,0.863c-0.902,0.321-1.786,0.688-2.669,1.062
				c-1.485,0.63-2.961,1.286-4.412,1.994c-1.488,0.726-2.958,1.504-4.402,2.314c-0.683,0.383-1.35,0.793-2.031,1.178
				c-0.748,0.423-1.494,0.845-2.227,1.291c-0.468,0.285-0.924,0.588-1.388,0.879c-0.489,0.304-0.984,0.597-1.468,0.91
				c-0.441,0.285-0.872,0.588-1.297,0.896c-0.458,0.334-0.905,0.688-1.276,1.119c-0.602,0.698-0.977,1.501-1.287,2.363
				c-0.245,0.68-0.323,1.41-0.418,2.121c-0.049,0.367-0.067,0.745-0.082,1.115c-0.034,0.87,0.039,1.782,0.281,2.62
				c0.254,0.877,0.817,1.648,1.419,2.317c0.436,0.483,0.975,0.885,1.493,1.274c0.669,0.502,1.444,0.851,2.238,1.1
				c0.445,0.141,0.932,0.225,1.405,0.277c-0.006,0.12-0.011,0.24-0.012,0.359c-0.004,0.505,0.121,1.02,0.315,1.482
				c0.106,0.253,0.207,0.474,0.352,0.704c0.132,0.21,0.317,0.414,0.487,0.597c0.427,0.455,1.067,0.718,1.656,0.872
				c0.55,0.144,1.152,0.134,1.707,0.029c0.594-0.112,1.156-0.378,1.685-0.669c0.396-0.218,0.753-0.48,1.078-0.782
				c0.165,0.127,0.33,0.251,0.504,0.366c0.243,0.161,0.544,0.252,0.813,0.361c0.42,0.172,0.906,0.213,1.354,0.197
				c0.554-0.018,1.062-0.166,1.566-0.38c0.956-0.406,1.663-1.2,2.257-2.038c0.061,0.005,0.123,0.011,0.186,0.017
				c0.697,0.111,1.394,0.23,2.097,0.289c0.248,0.021,0.496-0.004,0.744-0.026c0.423-0.039,0.845-0.114,1.257-0.216
				c0.231-0.057,0.452-0.148,0.671-0.241c0.233-0.084,0.458-0.186,0.676-0.303c0.219-0.142,0.429-0.297,0.63-0.466
				c0.785-0.626,1.368-1.489,1.831-2.374c0.021-0.038,0.04-0.076,0.06-0.115c0.262,0.055,0.526,0.094,0.79,0.113
				c1.252,0.092,2.598-0.279,3.594-1.049c0.455-0.351,0.844-0.711,1.201-1.163c0.291-0.367,0.586-0.745,0.801-1.163
				c0.034-0.066,0.067-0.132,0.1-0.198c0.241,0.074,0.482,0.142,0.729,0.199c0.537,0.125,1.097,0.177,1.646,0.216
				c0.745,0.054,1.539-0.082,2.198-0.438c0.493-0.265,0.938-0.614,1.336-1.009c0.247-0.246,0.444-0.555,0.643-0.841
				c0.098-0.141,0.183-0.323,0.258-0.504c0.413,0.065,0.829,0.102,1.256,0.075c0.564-0.036,1.117-0.158,1.645-0.351
				c0.691-0.251,1.254-0.636,1.813-1.105c0.39-0.328,0.701-0.78,0.966-1.209c0.238-0.386,0.384-0.836,0.545-1.259
				c0.013-0.034,0.026-0.07,0.038-0.105c0.235-0.086,0.462-0.208,0.679-0.318c0.358-0.182,0.669-0.466,0.978-0.715
				c0.214-0.171,0.386-0.38,0.552-0.595c0.197-0.254,0.373-0.495,0.538-0.769c0.143-0.236,0.253-0.487,0.362-0.74
				c0.17-0.397,0.312-0.78,0.412-1.199c0.204-0.858,0.203-1.731,0.098-2.599c-0.035-0.295-0.071-0.61-0.15-0.9
				c-0.059-0.215-0.137-0.423-0.226-0.627c0.01-0.275,0.044-0.55,0.071-0.824c0.067-0.69-0.045-1.4-0.194-2.07
				c-0.154-0.692-0.444-1.385-0.828-1.978c-0.176-0.271-0.392-0.518-0.599-0.768c-0.133-0.16-0.289-0.298-0.44-0.44
				c-0.021-0.081-0.039-0.163-0.055-0.246c-0.077-0.715-0.131-1.43-0.291-2.136c-0.127-0.565-0.35-1.12-0.625-1.627
				c-0.361-0.664-0.968-1.128-1.559-1.57c-0.182-0.137-0.394-0.23-0.6-0.322c-0.312-0.138-0.619-0.262-0.941-0.367
				c-0.548-0.177-1.152-0.223-1.723-0.264c-0.091-0.006-0.182-0.01-0.274-0.01C633.594,378.323,633.102,378.41,632.627,378.483
				L632.627,378.483z"/>
			<path fill="#FFFFFF" d="M637.47,396.249c0.045,0.007,0.092,0.014,0.137,0.02C637.561,396.265,637.515,396.259,637.47,396.249
				L637.47,396.249z"/>
			<path fill="#FFFFFF" d="M637.454,396.312c-0.021,0.004-0.043,0.006-0.065,0.009C637.411,396.318,637.433,396.316,637.454,396.312
				L637.454,396.312z"/>
			<path fill="#FFFFFF" d="M596.309,408.365c0.024,0.01,0.049,0.021,0.072,0.031C596.358,408.385,596.333,408.376,596.309,408.365
				L596.309,408.365z"/>
			<path fill="#FFFFFF" d="M608.376,411.237c-0.014,0.018-0.028,0.037-0.043,0.055l-0.033,0.042c0.02-0.026,0.039-0.051,0.059-0.077
				C608.365,411.25,608.37,411.243,608.376,411.237L608.376,411.237z"/>
			<path fill="#FFFFFF" d="M608.239,411.413c-0.017,0.022-0.034,0.043-0.051,0.065c0.015-0.02,0.031-0.04,0.046-0.06
				L608.239,411.413L608.239,411.413z"/>
		</g>
		<g>
			<path fill="#B9181E" d="M731.094,404.47c-1.052,0.027-2.11,0.105-3.161,0.174c-0.659,0.042-1.321,0.14-1.973,0.241
				c-0.266,0.042-0.53,0.103-0.793,0.167c-0.179,0.042-0.349,0.103-0.523,0.164c-0.314,0.111-0.614,0.248-0.901,0.411
				c-0.277,0.199-0.54,0.411-0.793,0.639c-0.227,0.196-0.432,0.468-0.607,0.763c-0.271,0.159-0.485,0.418-0.575,0.74
				c-0.349,1.235-0.722,2.479-0.96,3.741c-0.246,1.304-0.474,2.604-0.68,3.913c-0.361,2.29-0.619,4.606-0.843,6.915
				c-0.226,2.331-0.25,4.68,0.062,7.004c0.159,1.172,0.38,2.321,0.654,3.471c0.243,1.017,0.53,2.046,0.899,3.026
				c0.464,1.238,0.955,2.459,1.471,3.677c0.425,1.004,0.936,1.968,1.449,2.93c1.127,2.113,2.68,3.975,4.169,5.836
				c1.412,1.762,3.017,3.331,4.68,4.854c0.837,0.769,1.724,1.528,2.732,2.061c0.331,0.174,0.688,0.314,1.044,0.43
				c0.791,0.26,1.634,0.036,2.359-0.297c0.818-0.376,1.538-0.992,2.196-1.604c0.828-0.769,1.526-1.685,2.225-2.569
				c0.757-0.958,1.491-1.943,2.128-2.985c0.32-0.523,0.634-1.046,0.936-1.58c0.29-0.516,0.543-1.054,0.806-1.585
				c0.547-1.101,0.983-2.268,1.444-3.409c0.884-2.188,1.597-4.453,2.296-6.704c0.656-2.12,1.256-4.277,1.612-6.47
				c0.391-2.403,0.685-4.82,0.907-7.246c0.197-2.137,0.268-4.291,0.361-6.434c0.049-1.105,0.096-2.206,0.081-3.312
				c-0.008-0.671-0.056-1.38-0.277-2.015c-0.214-0.616-0.557-1.162-1.066-1.577c-0.327-0.267-0.599-0.447-0.973-0.621
				c-0.263-0.125-0.536-0.228-0.808-0.332c-0.428-0.167-0.897-0.241-1.343-0.349c-0.528-0.125-1.054-0.251-1.585-0.364
				c-1.052-0.221-2.113-0.403-3.169-0.617c-1.292-0.262-2.594-0.455-3.904-0.597c-1.11-0.12-2.225-0.191-3.334-0.293
				c-1.58-0.147-3.173-0.213-4.762-0.213C732.082,404.451,731.588,404.458,731.094,404.47L731.094,404.47z M736.061,450.309
				c0.702,0.25,1.459,0.252,2.188,0.124c-0.115,0.106-0.231,0.21-0.35,0.312c-0.189,0.13-0.377,0.254-0.573,0.369
				C736.884,450.878,736.469,450.604,736.061,450.309L736.061,450.309z"/>
			<path fill="#B9181E" d="M736.664,442.759c-0.268,0.267-0.354,0.573-0.39,0.939c-0.105,1.09-0.216,2.181-0.315,3.272
				c-0.042,0.464-0.084,0.926-0.127,1.39c-0.052,0.577-0.108,1.172-0.037,1.749c0.002,0.233,0.061,0.45,0.177,0.653
				c0.115,0.194,0.27,0.347,0.464,0.464c0.413,0.241,0.891,0.218,1.304,0c0.808-0.425,0.857-1.41,0.951-2.209
				c0.044-0.363,0.064-0.729,0.093-1.091c0.046-0.582,0.089-1.177,0.061-1.761c-0.008-0.163-0.046-0.319-0.108-0.461
				c0.064-0.669,0.13-1.337,0.194-2.005c0.032-0.334-0.16-0.712-0.39-0.939c-0.248-0.248-0.589-0.39-0.939-0.39
				C737.251,442.37,736.912,442.511,736.664,442.759L736.664,442.759z"/>
			<path fill="#FFFFFF" d="M743.386,411.469c-0.425,0.425-0.772,1.115-0.718,1.736c0.186,2.112,0.334,4.216,0.395,6.335
				c0.025,0.882,0.025,1.764-0.012,2.646c-0.033,0.775-0.118,1.543-0.213,2.313c-0.188,1.205-0.389,2.407-0.598,3.607
				c-0.213,1.229-0.437,2.466-0.783,3.665c-0.378,1.305-0.811,2.591-1.29,3.864c-0.362,0.964-0.7,1.941-1.083,2.899
				c-0.119,0.276-0.235,0.553-0.333,0.839c-0.233,0.668-0.074,1.503,0.273,2.098c0.357,0.609,0.948,1.064,1.628,1.251
				c0.703,0.192,1.469,0.093,2.098-0.275c0.184-0.142,0.368-0.283,0.552-0.425c0.337-0.341,0.57-0.74,0.7-1.202
				c0.398-0.951,0.653-1.983,0.939-2.972c0.302-1.035,0.6-2.071,0.874-3.113c0.587-2.243,0.971-4.518,1.354-6.804
				c0.396-2.366,0.783-4.731,0.798-7.136c0.017-2.429-0.148-4.845-0.361-7.262c-0.009-0.11-0.019-0.219-0.029-0.327
				c-0.059-0.673-0.228-1.245-0.718-1.736c-0.459-0.459-1.086-0.718-1.736-0.718C744.474,410.751,743.845,411.01,743.386,411.469
				L743.386,411.469z"/>
		</g>
		<g>
			<path fill="#F4971B" d="M684.175,396.316c-0.47-0.031-0.951-0.013-1.419,0.028c-0.388,0.033-0.783,0.097-1.145,0.253
				c-0.29,0.125-0.545,0.283-0.794,0.476c-0.232,0.182-0.419,0.433-0.607,0.656c-0.256,0.306-0.467,0.695-0.643,1.056
				c-0.015-0.003-0.032-0.005-0.047-0.006c-0.86-0.081-1.806,0.598-1.826,1.511c-0.034,1.628-0.037,3.242,0.095,4.866
				c0.077,0.968,0.143,1.935,0.203,2.904c-0.084,0.261-0.174,0.521-0.278,0.777c-0.277,0.679-0.59,1.337-0.914,1.993
				c-0.381,0.682-0.776,1.355-1.226,1.994c-0.534,0.76-1.096,1.501-1.621,2.268c-1.061,1.557-2.022,3.188-2.947,4.829
				c-0.575,1.02-1.107,2.049-1.583,3.121c-0.185,0.416-0.338,0.842-0.472,1.275c-0.35,0.711-0.671,1.457-0.917,2.204
				c-0.351,1.066-0.629,2.135-0.851,3.233c-0.086,0.424-0.131,0.855-0.188,1.283c-0.172,1.268-0.06,2.551,0.261,3.782
				c0.553,2.131,1.62,4.176,2.957,5.917c1.147,1.492,2.385,2.916,3.838,4.118c0.646,0.533,1.337,1.005,2.039,1.462
				c0.742,0.483,1.486,0.965,2.24,1.43c0.788,0.484,1.58,0.957,2.349,1.469c0.684,0.457,1.305,1,1.916,1.549
				c0.613,0.595,1.198,1.202,1.73,1.868c0.536,0.672,1.022,1.367,1.491,2.083c0.5,0.826,0.99,1.655,1.445,2.507
				c0.436,0.819,0.795,1.652,1.101,2.524c0.234,0.791,0.442,1.587,0.615,2.392c0.064,0.294,0.12,0.574,0.228,0.858
				c0.102,0.27,0.342,0.488,0.583,0.627c0.458,0.265,0.946,0.37,1.447,0.136c0.413-0.193,0.757-0.517,0.985-0.909
				c0.196-0.334,0.315-0.678,0.402-1.051c0.433-1.829,0.726-3.689,1.133-5.525c0.219-0.876,0.441-1.753,0.715-2.611
				c0.171-0.545,0.363-1.074,0.587-1.6c0.156-0.363,0.337-0.717,0.52-1.067c0.243-0.421,0.499-0.822,0.793-1.211
				c0.277-0.367,0.577-0.712,0.885-1.053c1.277-1.279,2.647-2.463,3.884-3.784c0.761-0.813,1.396-1.708,2.001-2.638
				c0.816-1.253,1.41-2.634,1.888-4.044c0.635-1.876,1.034-3.846,1.228-5.817c0.044-0.445,0.038-0.896,0.053-1.342
				c0.014-0.454,0.012-0.917-0.005-1.371c-0.02-0.593-0.025-1.188-0.082-1.78c-0.101-1.055-0.295-2.064-0.619-3.075
				c-0.272-0.851-0.553-1.69-0.904-2.511c-0.337-0.791-0.744-1.542-1.155-2.296c-0.146-0.268-0.339-0.533-0.505-0.794
				c-0.117-0.182-0.23-0.369-0.353-0.548c-0.266-0.381-0.531-0.763-0.81-1.135c-0.493-0.661-1.057-1.268-1.622-1.868
				c-1.261-1.343-2.606-2.608-4.077-3.719c-1.25-0.942-2.538-1.855-3.709-2.895c-0.594-0.566-1.182-1.141-1.661-1.806
				c-0.447-0.764-0.833-1.557-1.141-2.387c-0.408-1.482-0.729-2.984-0.895-4.514c-0.036-0.34-0.063-0.68-0.097-1.02
				c-0.022-0.232-0.05-0.455-0.112-0.68c-0.103-0.381-0.205-0.633-0.436-0.952c-0.156-0.218-0.359-0.384-0.555-0.564
				c-0.301-0.274-0.759-0.417-1.147-0.521c-0.294-0.078-0.609-0.15-0.911-0.201c-0.318-0.054-0.636-0.095-0.956-0.125
				C684.433,396.335,684.303,396.324,684.175,396.316L684.175,396.316z M690.215,457.242c-0.006,0.038-0.013,0.076-0.019,0.114
				c-0.001-0.002-0.001-0.003-0.002-0.005C690.201,457.315,690.208,457.279,690.215,457.242L690.215,457.242z"/>
			<path fill="#F4971B" d="M683.907,396.996c-0.636,0.113-1.249,0.313-1.881,0.457c-0.582,0.132-1.195,0.164-1.785,0.249
				c-0.47,0.068-0.953,0.12-1.371,0.364c-0.34,0.197-0.5,0.322-0.756,0.62c-0.188,0.22-0.332,0.486-0.453,0.747
				c-0.108,0.234-0.195,0.47-0.269,0.717c-0.227,0.76-0.278,1.532-0.316,2.318c-0.034,0.69-0.055,1.379-0.045,2.069
				c0.021,1.467,0.044,2.935,0.032,4.401c-0.012,1.3-0.109,2.597-0.197,3.893c-0.04,0.592-0.081,1.187-0.12,1.779
				c-0.053,0.83-0.099,1.664-0.256,2.483c-0.108,0.409-0.236,0.811-0.377,1.21c-0.188,0.527-0.414,1.025-0.664,1.521
				c-2.045,3.644-4.282,7.178-6.424,10.764c-0.153,0.255-0.239,0.509-0.185,0.813c0.047,0.272,0.203,0.52,0.431,0.682
				c0.485,0.35,1.138,0.217,1.495-0.244c1.892-2.45,3.599-5.04,5.32-7.611c0.368-0.55,0.737-1.103,1.09-1.664
				c0.73-1.154,1.453-2.301,1.998-3.561c0.51-1.175,0.723-2.443,0.857-3.709c0.076-0.715,0.145-1.43,0.205-2.146
				c0.124-1.484,0.238-2.969,0.226-4.459c-0.015-1.481-0.07-2.959-0.133-4.438c-0.023-0.949,0.003-1.921,0.158-2.861
				c0.056-0.192,0.12-0.379,0.195-0.565c0.036-0.014,0.073-0.027,0.11-0.04c0.98-0.29,2-0.521,3.016-0.612
				c0.815-0.008,1.616,0.073,2.422,0.2c0.898,0.142,1.732-0.64,1.813-1.5c0.041-0.437-0.095-0.878-0.375-1.216
				c-0.295-0.356-0.679-0.525-1.126-0.596c-0.283-0.045-0.568-0.084-0.853-0.111C685.095,396.892,684.498,396.889,683.907,396.996
				L683.907,396.996z M680.653,400.834c-0.029,0.053-0.057,0.106-0.086,0.159c0.023-0.054,0.05-0.106,0.079-0.156
				C680.648,400.836,680.651,400.835,680.653,400.834L680.653,400.834z"/>
			<path fill="#F4971B" d="M685.372,396.896c-0.327-0.021-0.658-0.009-0.985-0.008c-0.647,0-1.291-0.031-1.938-0.067
				c-0.308-0.017-0.618-0.022-0.928-0.018c-0.438,0.006-0.891,0.016-1.321,0.106c-0.757,0.156-1.444,0.533-1.845,1.212
				c-0.29,0.488-0.42,0.969-0.509,1.527c-0.211,1.312-0.053,2.672,0.179,3.971c0.109,0.612,0.223,1.219,0.297,1.835
				c0.066,0.544,0.101,1.094,0.129,1.642c0.012,0.586-0.002,1.163-0.051,1.748c-0.043,0.503-0.145,1.001-0.252,1.494
				c-0.116,0.4-0.233,0.795-0.373,1.188c-0.168,0.47-0.359,0.92-0.56,1.379c-0.442,1.009-0.953,1.989-1.448,2.972
				c-0.133,0.262-0.087,0.639,0.033,0.894c0.125,0.271,0.356,0.487,0.635,0.593c0.29,0.108,0.616,0.097,0.896-0.033
				c0.294-0.137,0.45-0.357,0.592-0.637c0.761-1.506,1.526-3.009,2.148-4.579c0.256-0.648,0.456-1.316,0.633-1.989
				c0.201-0.766,0.393-1.533,0.527-2.312c0.241-1.412,0.262-2.84,0.199-4.265c-0.029-0.645-0.099-1.288-0.188-1.927
				c-0.071-0.517-0.097-1.032-0.122-1.551c0-0.039,0-0.078,0.001-0.117c0.212-0.032,0.427-0.05,0.641-0.063
				c0.669-0.006,1.337,0.044,2.006,0.045c0.747,0.003,1.492-0.016,2.238,0c0.654,0.014,1.256-0.294,1.497-0.933
				c0.139-0.363,0.124-0.776-0.041-1.13c-0.144-0.31-0.456-0.658-0.802-0.746c-0.389-0.1-0.759-0.187-1.152-0.224
				C685.461,396.903,685.417,396.899,685.372,396.896L685.372,396.896z M678.455,407.237c0.003,0.061,0.006,0.122,0.008,0.184
				C678.46,407.36,678.457,407.298,678.455,407.237L678.455,407.237z"/>
			<path fill="#FFFFFF" d="M687.321,415.777c-0.381,1.004,0.148,2.108,1.127,2.503c0.808,0.326,1.619,0.635,2.406,1.008
				c0.559,0.336,1.069,0.716,1.559,1.144c0.722,0.773,1.359,1.595,1.952,2.47c0.583,0.97,1.063,1.989,1.439,3.058
				c0.32,1.108,0.524,2.23,0.612,3.38c0.011,0.547,0.007,1.092-0.028,1.64c-0.033,0.514-0.131,1.024-0.239,1.529
				c-0.39,1.454-0.957,2.878-1.626,4.227c-0.256,0.44-0.527,0.871-0.821,1.289c-0.156,0.221-0.33,0.43-0.498,0.643
				c-0.449,0.564-0.656,1.488-0.498,2.186c0.135,0.597,0.421,1.108,0.926,1.471c0.673,0.483,1.568,0.564,2.317,0.218
				c0.51-0.233,0.798-0.538,1.157-0.958c0.251-0.293,0.397-0.686,0.568-1.031c0.24-0.48,0.482-0.959,0.707-1.446
				c0.444-0.961,0.778-1.988,1.102-2.996c0.365-1.143,0.64-2.3,0.844-3.482c0.197-1.135,0.124-2.309,0.043-3.45
				c-0.152-2.135-0.702-4.32-1.612-6.257c-0.493-1.049-1.08-2.031-1.748-2.978c-0.313-0.441-0.64-0.873-0.992-1.283
				c-0.457-0.526-0.954-1.001-1.468-1.471c-1.338-1.223-3.067-1.877-4.723-2.541c-0.163-0.066-0.332-0.105-0.501-0.121
				C688.481,414.45,687.629,414.964,687.321,415.777L687.321,415.777z"/>
		</g>
		<g>
			<path fill="#B9181E" d="M795.138,419.923c-0.643-0.137-1.297-0.209-1.95-0.209c-0.661,0-1.323,0.075-1.972,0.231
				c-0.374,0.09-0.737,0.202-1.094,0.346c-0.494,0.202-1.013,0.396-1.473,0.677c-0.793,0.485-1.566,1.061-2.211,1.733
				c-1.191,1.243-2.049,2.746-2.782,4.29c-0.694,1.464-1.353,2.944-2.017,4.422c-0.419,0.93-0.826,1.866-1.218,2.809
				c-0.302,0.729-0.57,1.471-0.844,2.21c-0.583,1.571-1.187,3.132-1.699,4.727c-0.511,1.589-0.989,3.188-1.482,4.782
				c-0.483,1.563-0.98,3.125-1.402,4.708c-0.438,1.645-0.863,3.296-1.259,4.952c-0.424,1.775-0.677,3.593-0.836,5.411
				c-0.143,1.635-0.21,3.276-0.138,4.917c0.081,1.85,0.421,3.687,0.862,5.483c0.394,1.604,0.891,3.179,1.483,4.721
				c0.649,1.691,1.555,3.28,2.609,4.749c1.071,1.493,2.275,2.869,3.7,4.032c1.383,1.13,2.918,2.084,4.473,2.958
				c3.071,1.725,6.331,3.088,9.659,4.233c3.165,1.089,6.363,2.052,9.618,2.832c1.62,0.389,3.257,0.698,4.902,0.958
				c0.88,0.139,1.781,0.252,2.674,0.268c0.861,0.016,1.719,0.02,2.579,0.009c0.787-0.01,1.583-0.017,2.367-0.1
				c0.99-0.105,1.967-0.254,2.945-0.441c0.757-0.144,1.534-0.276,2.276-0.483c1.186-0.331,2.356-0.752,3.403-1.409
				c0.847-0.532,1.648-1.124,2.406-1.777c0.357-0.307,0.675-0.649,0.971-1.015c0.351-0.435,0.69-0.891,0.944-1.392
				c0.274-0.539,0.531-1.101,0.716-1.677c0.187-0.579,0.284-1.149,0.363-1.753c0.131-0.993,0.098-1.97,0.017-2.963
				c-0.077-0.952-0.237-1.928-0.471-2.855c-0.201-0.793-0.456-1.55-0.762-2.309c-0.391-0.973-0.891-1.858-1.461-2.735
				c-0.122-0.187-0.271-0.359-0.406-0.537c-0.197-0.259-0.388-0.525-0.603-0.769c-0.298-0.339-0.599-0.663-0.916-0.983
				c-0.679-0.685-1.429-1.303-2.192-1.891c-0.679-0.522-1.361-1.024-2.084-1.484c-0.727-0.463-1.469-0.905-2.208-1.351
				c-1.287-0.775-2.552-1.571-3.76-2.463c-0.301-0.247-0.602-0.494-0.873-0.77c-0.331-0.339-0.647-0.682-0.96-1.038
				c-0.38-0.515-0.726-1.039-1.011-1.617c-0.045-0.128-0.083-0.257-0.116-0.389c-0.012-0.28-0.003-0.555,0.017-0.836
				c0.138-0.764,0.342-1.494,0.621-2.222c0.559-1.262,1.193-2.484,1.778-3.735c0.658-1.409,1.463-2.743,2.158-4.134
				c0.826-1.653,1.611-3.319,2.118-5.101c0.505-1.77,0.797-3.588,0.979-5.418c0.081-0.803,0.036-1.616-0.032-2.418
				c-0.081-0.955-0.194-1.934-0.532-2.836c-0.275-0.735-0.647-1.425-1.124-2.04c-0.081-0.147-0.166-0.288-0.26-0.422
				c-0.254-0.358-0.522-0.749-0.856-1.043c-0.448-0.394-0.927-0.74-1.447-1.028c-1.139-0.628-2.317-1.183-3.474-1.776
				c-1.235-0.631-2.472-1.259-3.714-1.876c-1.198-0.594-2.412-1.163-3.584-1.806c-1.407-0.771-2.784-1.598-4.192-2.367
				c-1.589-0.868-3.227-1.608-4.917-2.26C796.691,420.361,795.928,420.091,795.138,419.923L795.138,419.923z M780.106,475.333
				c0.004,0.008,0.008,0.016,0.012,0.024c0.012,0.029,0.025,0.058,0.037,0.087c-0.012-0.029-0.025-0.057-0.038-0.085
				C780.113,475.35,780.109,475.342,780.106,475.333L780.106,475.333z M780.286,475.759l0.013,0.029
				c0.017,0.041,0.034,0.082,0.051,0.122C780.329,475.86,780.308,475.81,780.286,475.759L780.286,475.759z"/>
			<path fill="#FFFFFF" d="M780.504,456.46c0.842,1.373,1.647,2.769,2.37,4.208c0.366,0.727,0.757,1.445,1.082,2.189
				c0.306,0.701,0.611,1.401,0.917,2.1c0.325,0.863,0.649,1.725,0.974,2.587c0.32,0.848,0.539,1.747,0.803,2.615
				c0.271,0.892,0.449,1.822,0.669,2.727c0.158,0.648,0.245,1.32,0.348,1.983c0.071,0.696,0.142,1.392,0.213,2.087
				c0.028,0.277,0.017,0.561,0.024,0.84c0.012,0.474,0.024,0.95,0.035,1.425c0.033,1.276-0.092,2.548-0.227,3.814
				c-0.117,0.758-0.233,1.513-0.401,2.262c-0.183,0.83-0.378,1.656-0.615,2.473c-0.046,0.159-0.092,0.317-0.138,0.476
				c-0.227-0.123-0.451-0.246-0.674-0.371c-1.863-1.047-3.285-1.988-4.474-2.958c-1.31-1.069-2.521-2.388-3.701-4.033
				c-1.122-1.563-2-3.161-2.609-4.749c-0.598-1.557-1.096-3.147-1.483-4.721c-0.517-2.103-0.791-3.845-0.863-5.484
				c-0.065-1.495-0.02-3.104,0.138-4.917c0.178-2.029,0.451-3.799,0.837-5.412c0.352-1.473,0.752-3.046,1.259-4.952
				c0.147-0.554,0.305-1.11,0.468-1.663C777.236,451.413,778.93,453.895,780.504,456.46L780.504,456.46z"/>
			<path fill="#FFFFFF" d="M820.628,468.246l0.416,0.249c0.591,0.357,1.202,0.725,1.792,1.101c0.79,0.501,1.529,1.056,2.086,1.484
				c0.93,0.718,1.606,1.301,2.192,1.891c0.308,0.312,0.608,0.633,0.916,0.983c0.17,0.193,0.326,0.402,0.479,0.605l0.123,0.164
				c0.044,0.059,0.089,0.115,0.134,0.172c0.094,0.118,0.19,0.238,0.271,0.366c0.647,0.994,1.111,1.863,1.461,2.735
				c0.323,0.799,0.571,1.555,0.762,2.309c0.232,0.918,0.395,1.905,0.472,2.856c0.07,0.867,0.124,1.897-0.017,2.963
				c-0.073,0.551-0.167,1.145-0.364,1.754c-0.16,0.499-0.389,1.032-0.716,1.677c-0.268,0.528-0.627,1-0.944,1.394
				c-0.323,0.399-0.641,0.73-0.971,1.015c-0.754,0.65-1.565,1.249-2.407,1.777c-0.898,0.565-1.979,1.012-3.403,1.41
				c-0.62,0.174-1.27,0.295-1.9,0.412l-0.378,0.072c-1.017,0.194-1.98,0.339-2.945,0.441c-0.758,0.079-1.537,0.089-2.29,0.099
				l-0.077,0.001c-0.334,0.004-0.666,0.006-1,0.006c-0.526,0-1.053-0.005-1.58-0.015c-0.766-0.015-1.59-0.097-2.673-0.268
				c-1.796-0.285-3.4-0.598-4.903-0.96c-1.495-0.358-3.007-0.761-4.557-1.215c0.151-0.599,0.314-1.196,0.489-1.792
				c0.604-2.062,1.384-4.062,2.19-6.052c0.521-1.194,1.066-2.368,1.675-3.523c0.576-1.097,1.297-2.1,2.034-3.09
				c0.683-0.856,1.373-1.703,2.133-2.493c0.846-0.876,1.764-1.669,2.689-2.461c1.669-1.43,3.293-2.916,4.99-4.311
				c1.057-0.765,2.147-1.463,3.295-2.077C820.281,468.037,820.457,468.143,820.628,468.246L820.628,468.246z"/>
			<path fill="#FFFFFF" d="M788.725,413.906c-0.474-0.072-0.967-0.159-1.454-0.159c-0.092,0-0.183,0.004-0.274,0.01
				c-0.571,0.042-1.175,0.087-1.722,0.264c-0.323,0.105-0.63,0.229-0.941,0.367c-0.207,0.092-0.418,0.185-0.6,0.322
				c-0.591,0.441-1.198,0.906-1.559,1.57c-0.275,0.507-0.497,1.062-0.625,1.627c-0.16,0.705-0.214,1.421-0.291,2.136
				c-0.016,0.083-0.034,0.165-0.055,0.246c-0.152,0.142-0.307,0.28-0.44,0.44c-0.207,0.249-0.423,0.496-0.599,0.768
				c-0.384,0.593-0.674,1.286-0.828,1.978c-0.149,0.67-0.262,1.38-0.194,2.07c0.027,0.274,0.061,0.549,0.071,0.824
				c-0.089,0.204-0.168,0.412-0.226,0.627c-0.08,0.29-0.115,0.605-0.15,0.9c-0.105,0.868-0.106,1.741,0.098,2.599
				c0.1,0.419,0.242,0.802,0.412,1.199c0.109,0.253,0.219,0.504,0.362,0.74c0.165,0.274,0.341,0.515,0.538,0.769
				c0.166,0.215,0.339,0.424,0.552,0.595c0.309,0.249,0.62,0.533,0.978,0.715c0.216,0.11,0.444,0.232,0.678,0.318
				c0.012,0.035,0.024,0.071,0.038,0.105c0.161,0.423,0.307,0.873,0.545,1.259c0.265,0.429,0.576,0.881,0.966,1.209
				c0.559,0.469,1.122,0.854,1.813,1.105c0.528,0.193,1.082,0.315,1.646,0.351c0.427,0.027,0.842-0.01,1.255-0.075
				c0.075,0.181,0.16,0.363,0.258,0.504c0.199,0.286,0.396,0.595,0.643,0.841c0.398,0.395,0.843,0.743,1.336,1.009
				c0.659,0.356,1.453,0.491,2.198,0.438c0.549-0.039,1.109-0.092,1.646-0.216c0.247-0.057,0.488-0.125,0.729-0.199
				c0.033,0.066,0.066,0.132,0.1,0.198c0.215,0.418,0.51,0.796,0.801,1.163c0.357,0.451,0.746,0.812,1.2,1.163
				c0.996,0.77,2.342,1.141,3.594,1.049c0.264-0.018,0.528-0.057,0.79-0.112c0.02,0.039,0.039,0.077,0.06,0.115
				c0.463,0.885,1.046,1.748,1.831,2.374c0.201,0.169,0.411,0.324,0.63,0.466c0.218,0.117,0.443,0.219,0.676,0.303
				c0.219,0.093,0.44,0.183,0.671,0.241c0.412,0.103,0.834,0.177,1.257,0.216c0.248,0.022,0.496,0.047,0.745,0.026
				c0.703-0.059,1.4-0.177,2.097-0.288c0.062-0.006,0.125-0.012,0.186-0.017c0.594,0.837,1.301,1.632,2.257,2.038
				c0.504,0.214,1.012,0.362,1.566,0.38c0.449,0.016,0.934-0.024,1.354-0.197c0.269-0.109,0.57-0.199,0.813-0.361
				c0.174-0.115,0.339-0.238,0.504-0.366c0.325,0.302,0.682,0.565,1.078,0.782c0.528,0.291,1.091,0.556,1.685,0.669
				c0.555,0.105,1.156,0.115,1.707-0.029c0.589-0.154,1.23-0.417,1.656-0.872c0.17-0.182,0.355-0.386,0.487-0.597
				c0.146-0.23,0.246-0.451,0.352-0.704c0.194-0.462,0.319-0.977,0.315-1.482c-0.001-0.12-0.006-0.24-0.012-0.359
				c0.473-0.053,0.96-0.137,1.405-0.277c0.795-0.249,1.57-0.598,2.238-1.1c0.517-0.389,1.056-0.791,1.493-1.274
				c0.603-0.669,1.165-1.44,1.419-2.317c0.242-0.837,0.315-1.749,0.281-2.62c-0.015-0.37-0.033-0.748-0.082-1.115
				c-0.095-0.712-0.174-1.441-0.418-2.121c-0.31-0.862-0.686-1.665-1.287-2.363c-0.372-0.43-0.818-0.785-1.276-1.119
				c-0.425-0.308-0.856-0.611-1.297-0.896c-0.484-0.313-0.979-0.605-1.468-0.91c-0.463-0.291-0.919-0.594-1.388-0.879
				c-0.733-0.446-1.479-0.868-2.227-1.291c-0.681-0.385-1.347-0.796-2.031-1.178c-1.444-0.81-2.914-1.588-4.402-2.314
				c-1.451-0.708-2.927-1.364-4.412-1.994c-0.883-0.374-1.766-0.741-2.669-1.062c-0.769-0.273-1.528-0.56-2.285-0.863
				c-2.298-0.983-4.609-1.944-6.92-2.896c-0.615-0.253-1.232-0.499-1.853-0.736c-0.042-0.025-0.083-0.048-0.125-0.072
				c-0.701-0.398-1.407-0.785-2.109-1.18c-1.497-0.844-3.018-1.63-4.658-2.164C789.485,414.097,789.111,413.966,788.725,413.906
				L788.725,413.906z M783.883,431.673c-0.045,0.01-0.092,0.016-0.137,0.02C783.791,431.686,783.837,431.68,783.883,431.673
				L783.883,431.673z M783.899,431.736c0.021,0.004,0.043,0.006,0.065,0.009C783.941,431.742,783.919,431.74,783.899,431.736
				L783.899,431.736z M825.044,443.789c-0.024,0.011-0.049,0.021-0.072,0.031C824.995,443.81,825.019,443.798,825.044,443.789
				L825.044,443.789z M812.976,446.66c0.006,0.007,0.011,0.013,0.017,0.02c0.02,0.025,0.039,0.051,0.059,0.077l-0.033-0.042
				C813.005,446.697,812.99,446.679,812.976,446.66L812.976,446.66z M813.113,446.837l0.004,0.005c0.015,0.02,0.031,0.04,0.046,0.06
				C813.147,446.881,813.13,446.859,813.113,446.837L813.113,446.837z"/>
		</g>
		<g>
			<path fill="#B9181E" d="M910.807,410.148c-1.05-0.074-2.11-0.099-3.163-0.131c-0.66-0.021-1.328,0.012-1.987,0.05
				c-0.269,0.016-0.537,0.051-0.805,0.09c-0.182,0.025-0.357,0.069-0.536,0.112c-0.323,0.081-0.635,0.188-0.936,0.323
				c-0.294,0.172-0.577,0.358-0.851,0.56c-0.244,0.173-0.475,0.424-0.677,0.701c-0.286,0.132-0.523,0.37-0.644,0.681
				c-0.466,1.195-0.957,2.398-1.315,3.631c-0.37,1.274-0.722,2.546-1.053,3.829c-0.579,2.245-1.059,4.525-1.504,6.802
				c-0.449,2.298-0.699,4.635-0.612,6.978c0.045,1.182,0.155,2.346,0.318,3.518c0.144,1.036,0.33,2.087,0.604,3.098
				c0.343,1.277,0.714,2.539,1.11,3.801c0.326,1.04,0.742,2.049,1.16,3.055c0.918,2.212,2.285,4.215,3.589,6.209
				c1.236,1.89,2.683,3.606,4.192,5.282c0.759,0.846,1.569,1.687,2.521,2.314c0.312,0.205,0.655,0.378,0.998,0.529
				c0.762,0.335,1.623,0.192,2.377-0.069c0.85-0.296,1.626-0.839,2.34-1.385c0.898-0.686,1.681-1.53,2.461-2.343
				c0.846-0.881,1.671-1.79,2.406-2.767c0.369-0.49,0.732-0.98,1.084-1.483c0.338-0.486,0.642-0.997,0.955-1.5
				c0.65-1.044,1.197-2.163,1.765-3.254c1.09-2.092,2.018-4.278,2.93-6.452c0.857-2.047,1.662-4.137,2.227-6.285
				c0.621-2.355,1.145-4.732,1.6-7.125c0.402-2.108,0.68-4.245,0.978-6.37c0.155-1.095,0.308-2.187,0.399-3.289
				c0.056-0.669,0.077-1.378-0.082-2.033c-0.154-0.633-0.442-1.21-0.909-1.672c-0.3-0.297-0.553-0.503-0.909-0.711
				c-0.25-0.149-0.512-0.278-0.772-0.408c-0.41-0.207-0.87-0.326-1.303-0.477c-0.514-0.175-1.025-0.352-1.543-0.515
				c-1.026-0.321-2.065-0.604-3.095-0.919c-1.261-0.385-2.538-0.703-3.829-0.97c-1.093-0.226-2.196-0.404-3.291-0.613
				c-1.559-0.298-3.138-0.517-4.719-0.67C911.793,410.224,911.3,410.183,910.807,410.148L910.807,410.148z M911.343,456.251
				c0.675,0.317,1.428,0.391,2.166,0.334c-0.124,0.094-0.25,0.187-0.379,0.277c-0.2,0.111-0.4,0.217-0.606,0.313
				C912.108,456.897,911.721,456.585,911.343,456.251L911.343,456.251z"/>
			<path fill="#B9181E" d="M912.67,448.795c-0.293,0.24-0.408,0.537-0.478,0.898c-0.209,1.074-0.425,2.15-0.629,3.227
				c-0.086,0.458-0.173,0.913-0.259,1.371c-0.108,0.569-0.22,1.156-0.205,1.737c-0.021,0.232,0.017,0.454,0.113,0.667
				c0.096,0.204,0.235,0.372,0.417,0.506c0.388,0.28,0.865,0.302,1.298,0.125c0.845-0.345,0.988-1.321,1.159-2.108
				c0.079-0.357,0.134-0.719,0.197-1.077c0.101-0.575,0.202-1.163,0.23-1.747c0.008-0.163-0.015-0.322-0.063-0.469
				c0.128-0.659,0.258-1.319,0.386-1.977c0.064-0.329-0.091-0.724-0.297-0.973c-0.223-0.271-0.548-0.444-0.898-0.478
				C913.292,448.464,912.941,448.572,912.67,448.795L912.67,448.795z"/>
			<path fill="#FFFFFF" d="M922.37,418.297c-0.464,0.382-0.876,1.035-0.882,1.658c-0.018,2.12-0.073,4.229-0.216,6.343
				c-0.06,0.88-0.144,1.758-0.266,2.633c-0.107,0.768-0.266,1.525-0.435,2.282c-0.303,1.181-0.619,2.358-0.942,3.533
				c-0.33,1.203-0.672,2.412-1.131,3.573c-0.502,1.263-1.057,2.501-1.656,3.722c-0.453,0.925-0.883,1.865-1.357,2.781
				c-0.145,0.263-0.287,0.528-0.412,0.803c-0.296,0.642-0.218,1.489,0.07,2.115c0.297,0.64,0.841,1.151,1.5,1.402
				c0.682,0.259,1.453,0.234,2.115-0.072c0.197-0.123,0.393-0.247,0.59-0.37c0.368-0.307,0.639-0.682,0.812-1.13
				c0.488-0.909,0.84-1.911,1.221-2.868c0.4-1.002,0.797-2.004,1.169-3.015c0.8-2.176,1.402-4.404,2.002-6.642
				c0.622-2.317,1.234-4.634,1.48-7.026c0.25-2.416,0.318-4.837,0.339-7.263c0.002-0.11,0.003-0.22,0.003-0.328
				c0.006-0.676-0.107-1.261-0.548-1.797c-0.413-0.501-1.012-0.82-1.658-0.882C923.521,417.686,922.87,417.884,922.37,418.297
				L922.37,418.297z"/>
		</g>
		<g>
			<path fill="#F4971B" d="M858.206,402.791c-0.471,0.014-0.948,0.077-1.41,0.162c-0.383,0.07-0.771,0.172-1.116,0.361
				c-0.276,0.152-0.516,0.333-0.745,0.549c-0.214,0.203-0.375,0.471-0.542,0.711c-0.225,0.329-0.399,0.736-0.54,1.112
				c-0.015-0.002-0.032-0.002-0.047-0.002c-0.864,0.001-1.741,0.767-1.674,1.677c0.12,1.624,0.271,3.231,0.557,4.835
				c0.168,0.956,0.327,1.912,0.478,2.872c-0.059,0.268-0.124,0.535-0.203,0.8c-0.211,0.702-0.46,1.387-0.72,2.071
				c-0.314,0.716-0.644,1.423-1.031,2.101c-0.459,0.807-0.949,1.599-1.398,2.412c-0.908,1.651-1.71,3.366-2.475,5.087
				c-0.476,1.07-0.908,2.145-1.279,3.257c-0.144,0.432-0.257,0.871-0.349,1.314c-0.281,0.741-0.529,1.514-0.703,2.281
				c-0.248,1.095-0.424,2.185-0.54,3.3c-0.045,0.43-0.049,0.864-0.065,1.295c-0.05,1.278,0.182,2.545,0.619,3.74
				c0.754,2.068,2.01,4.003,3.506,5.609c1.284,1.376,2.652,2.676,4.212,3.735c0.694,0.47,1.426,0.873,2.169,1.262
				c0.785,0.41,1.571,0.819,2.366,1.211c0.83,0.407,1.664,0.802,2.478,1.239c0.724,0.39,1.394,0.872,2.055,1.36
				c0.667,0.534,1.307,1.083,1.9,1.696c0.598,0.618,1.147,1.263,1.683,1.932c0.576,0.775,1.142,1.553,1.677,2.359
				c0.512,0.773,0.948,1.569,1.336,2.408c0.308,0.765,0.591,1.537,0.84,2.323c0.091,0.287,0.174,0.56,0.308,0.833
				c0.127,0.259,0.387,0.453,0.64,0.569c0.481,0.22,0.977,0.279,1.454-0.002c0.393-0.232,0.704-0.586,0.894-0.998
				c0.163-0.351,0.249-0.705,0.3-1.085c0.257-1.862,0.372-3.741,0.602-5.607c0.135-0.892,0.272-1.786,0.463-2.667
				c0.119-0.558,0.26-1.103,0.433-1.648c0.121-0.376,0.267-0.746,0.417-1.112c0.202-0.442,0.419-0.866,0.674-1.281
				c0.241-0.392,0.507-0.763,0.781-1.133c1.15-1.395,2.401-2.704,3.507-4.136c0.68-0.881,1.227-1.833,1.741-2.816
				c0.693-1.325,1.153-2.756,1.495-4.205c0.454-1.928,0.664-3.927,0.669-5.907c0.001-0.447-0.047-0.896-0.075-1.341
				c-0.029-0.454-0.076-0.914-0.135-1.364c-0.077-0.589-0.138-1.18-0.251-1.764c-0.201-1.04-0.49-2.027-0.908-3.003
				c-0.352-0.821-0.711-1.63-1.139-2.413c-0.411-0.755-0.888-1.464-1.368-2.175c-0.171-0.253-0.389-0.499-0.578-0.743
				c-0.133-0.17-0.264-0.345-0.404-0.512c-0.301-0.354-0.602-0.709-0.914-1.053c-0.554-0.611-1.172-1.162-1.792-1.706
				c-1.383-1.217-2.842-2.349-4.412-3.314c-1.334-0.819-2.703-1.605-3.967-2.529c-0.645-0.507-1.285-1.024-1.826-1.64
				c-0.517-0.718-0.977-1.471-1.363-2.268c-0.547-1.436-1.01-2.901-1.32-4.408c-0.068-0.336-0.128-0.671-0.194-1.007
				c-0.044-0.229-0.093-0.449-0.176-0.666c-0.139-0.369-0.264-0.61-0.524-0.907c-0.176-0.202-0.393-0.349-0.606-0.508
				c-0.326-0.244-0.795-0.343-1.191-0.41c-0.3-0.05-0.621-0.092-0.926-0.113c-0.322-0.023-0.643-0.035-0.963-0.034
				C858.464,402.786,858.334,402.788,858.206,402.791L858.206,402.791z M870.009,462.868c-0.003,0.038-0.005,0.077-0.008,0.115
				c-0.001-0.001-0.002-0.003-0.003-0.005C870.002,462.942,870.006,462.905,870.009,462.868L870.009,462.868z"/>
			<path fill="#F4971B" d="M858.003,403.494c-0.622,0.173-1.214,0.43-1.829,0.634c-0.566,0.186-1.174,0.277-1.753,0.417
				c-0.462,0.112-0.937,0.211-1.33,0.493c-0.32,0.228-0.467,0.368-0.694,0.689c-0.167,0.236-0.284,0.515-0.38,0.786
				c-0.086,0.243-0.149,0.486-0.2,0.739c-0.154,0.778-0.131,1.552-0.094,2.338c0.031,0.69,0.076,1.378,0.151,2.064
				c0.161,1.459,0.323,2.917,0.45,4.378c0.111,1.295,0.139,2.596,0.174,3.894c0.016,0.594,0.032,1.189,0.05,1.783
				c0.026,0.832,0.06,1.666-0.019,2.496c-0.069,0.417-0.158,0.829-0.26,1.24c-0.137,0.543-0.314,1.06-0.517,1.577
				c-1.689,3.822-3.58,7.553-5.372,11.326c-0.128,0.268-0.19,0.53-0.107,0.827c0.073,0.266,0.252,0.499,0.493,0.638
				c0.517,0.303,1.154,0.108,1.465-0.385c1.651-2.618,3.104-5.359,4.572-8.082c0.315-0.582,0.629-1.168,0.927-1.76
				c0.617-1.219,1.228-2.429,1.651-3.735c0.396-1.218,0.487-2.5,0.5-3.774c0.007-0.718,0.008-1.437,0-2.155
				c-0.017-1.489-0.045-2.978-0.199-4.461c-0.155-1.473-0.351-2.939-0.554-4.406c-0.113-0.943-0.179-1.913-0.114-2.863
				c0.037-0.196,0.083-0.389,0.141-0.581c0.035-0.018,0.07-0.034,0.105-0.051c0.948-0.382,1.942-0.709,2.944-0.896
				c0.81-0.086,1.615-0.081,2.43-0.032c0.908,0.056,1.664-0.802,1.662-1.665c-0.001-0.439-0.178-0.865-0.489-1.175
				c-0.328-0.327-0.726-0.458-1.178-0.486c-0.286-0.018-0.573-0.03-0.86-0.029C859.175,403.278,858.581,403.331,858.003,403.494
				L858.003,403.494z M855.129,407.624c-0.023,0.055-0.047,0.111-0.071,0.166c0.018-0.056,0.04-0.11,0.064-0.163
				C855.124,407.627,855.127,407.626,855.129,407.624L855.129,407.624z"/>
			<path fill="#F4971B" d="M859.451,403.256c-0.327,0.011-0.656,0.053-0.981,0.086c-0.644,0.062-1.288,0.091-1.936,0.118
				c-0.309,0.012-0.617,0.036-0.926,0.07c-0.435,0.048-0.885,0.101-1.305,0.231c-0.738,0.227-1.387,0.668-1.722,1.382
				c-0.242,0.513-0.326,1.004-0.362,1.569c-0.086,1.326,0.201,2.665,0.556,3.936c0.166,0.599,0.337,1.192,0.47,1.799
				c0.118,0.536,0.205,1.079,0.284,1.623c0.068,0.582,0.108,1.158,0.116,1.745c0.005,0.505-0.049,1.01-0.109,1.512
				c-0.078,0.409-0.156,0.813-0.258,1.218c-0.122,0.484-0.27,0.95-0.426,1.426c-0.344,1.046-0.759,2.071-1.159,3.097
				c-0.108,0.273-0.026,0.644,0.118,0.887c0.151,0.258,0.4,0.451,0.689,0.53c0.299,0.081,0.622,0.038,0.889-0.118
				c0.28-0.164,0.414-0.399,0.529-0.691c0.615-1.571,1.233-3.141,1.703-4.762c0.193-0.67,0.329-1.353,0.441-2.04
				c0.127-0.781,0.246-1.564,0.305-2.352c0.106-1.429-0.009-2.852-0.207-4.265c-0.09-0.639-0.221-1.273-0.37-1.9
				c-0.12-0.508-0.195-1.018-0.269-1.532c-0.004-0.039-0.007-0.078-0.01-0.116c0.208-0.052,0.42-0.09,0.633-0.123
				c0.666-0.07,1.335-0.083,2.001-0.146c0.744-0.069,1.484-0.157,2.228-0.212c0.653-0.048,1.222-0.412,1.402-1.071
				c0.104-0.375,0.049-0.784-0.148-1.121c-0.172-0.295-0.517-0.611-0.87-0.667c-0.397-0.063-0.774-0.114-1.168-0.113
				C859.541,403.254,859.496,403.254,859.451,403.256L859.451,403.256z M853.549,414.207c0.009,0.061,0.017,0.121,0.026,0.182
				C853.566,414.328,853.557,414.268,853.549,414.207L853.549,414.207z"/>
			<path fill="#FFFFFF" d="M863.187,421.866c-0.284,1.036,0.347,2.084,1.359,2.384c0.835,0.247,1.672,0.479,2.491,0.775
				c0.588,0.281,1.133,0.612,1.661,0.991c0.792,0.701,1.504,1.459,2.178,2.273c0.673,0.91,1.247,1.879,1.723,2.908
				c0.424,1.072,0.734,2.17,0.93,3.307c0.063,0.544,0.111,1.086,0.128,1.635c0.016,0.515-0.033,1.032-0.092,1.545
				c-0.25,1.484-0.679,2.956-1.217,4.362c-0.213,0.463-0.442,0.918-0.695,1.362c-0.135,0.235-0.288,0.459-0.434,0.687
				c-0.394,0.604-0.512,1.544-0.289,2.223c0.191,0.582,0.524,1.063,1.061,1.376c0.716,0.417,1.615,0.413,2.327-0.003
				c0.485-0.281,0.743-0.612,1.061-1.064c0.222-0.316,0.33-0.721,0.467-1.08c0.193-0.501,0.388-1.001,0.566-1.507
				c0.351-0.999,0.586-2.053,0.812-3.088c0.255-1.173,0.418-2.35,0.509-3.546c0.088-1.149-0.096-2.311-0.285-3.439
				c-0.354-2.111-1.109-4.233-2.2-6.075c-0.59-0.998-1.268-1.919-2.023-2.798c-0.353-0.409-0.72-0.809-1.11-1.182
				c-0.505-0.48-1.045-0.906-1.601-1.325c-1.449-1.091-3.232-1.577-4.943-2.081c-0.169-0.05-0.34-0.073-0.51-0.073
				C864.215,420.434,863.416,421.027,863.187,421.866L863.187,421.866z"/>
		</g>
	</g>
</g>
</svg>
