<?xml version="1.0" encoding="utf-8"?>
<!-- Generator: Adobe Illustrator 19.2.1, SVG Export Plug-In . SVG Version: 6.00 Build 0)  -->
<svg version="1.1" id="Capa_1" xmlns="http://www.w3.org/2000/svg" xmlns:xlink="http://www.w3.org/1999/xlink" x="0px" y="0px"
	 viewBox="0 0 1030.28 841.89" enable-background="new 0 0 1030.28 841.89" xml:space="preserve">
<g>
	
		<radialGradient id="SVGID_1_" cx="1730.1863" cy="-2993.2832" r="72.2548" gradientTransform="matrix(-0.6105 -0.7872 0.7902 -0.6128 4130.958 -186.7334)" gradientUnits="userSpaceOnUse">
		<stop  offset="0" style="stop-color:#FFE6B9"/>
		<stop  offset="0.0875" style="stop-color:#FFE9C1;stop-opacity:0.9125"/>
		<stop  offset="0.4895" style="stop-color:#FFF5E4;stop-opacity:0.5105"/>
		<stop  offset="0.8075" style="stop-color:#FFFCF8;stop-opacity:0.1925"/>
		<stop  offset="1" style="stop-color:#FFFFFF;stop-opacity:0"/>
	</radialGradient>
	<path fill="url(#SVGID_1_)" d="M665.281,228.665c31.532-24.455,76.844-18.809,101.206,12.609
		c24.356,31.41,18.538,76.698-12.991,101.154c-31.537,24.448-76.847,18.807-101.206-12.605
		C627.929,298.411,633.747,253.121,665.281,228.665z"/>
	<path fill="#F5F5F5" d="M698.946,294.925c4.659,6.504,13.715,7.999,20.219,3.339c6.508-4.66,8.005-13.707,3.343-20.214
		c-2.98-4.16-7.382-5.783-10.935-7.308c-3.552-1.525-6.355-5.406-6.355-5.406c-0.661-0.92-1.872-1.183-2.847-0.676
		c-2.024-2.866-4.563-6.437-4.842-6.693c-0.66-0.616-5.57,0.336-6.476,0.984c-0.808,0.578-3.337,4.758-3.016,5.813
		c0.128,0.419,2.682,3.941,4.753,6.755c-0.827,0.754-0.984,2.012-0.314,2.946c0,0,2.756,3.472,2.983,8.042
		C695.685,287.071,695.97,290.765,698.946,294.925z"/>
	<g>
		<path fill="#010202" d="M702.371,264.659c-2.024-2.866-4.563-6.437-4.842-6.693c-0.66-0.616-5.57,0.336-6.476,0.984
			c-0.808,0.578-3.337,4.758-3.016,5.813c0.128,0.419,2.682,3.941,4.753,6.755c-0.06,0.054-0.108,0.116-0.159,0.174
			c2.796-1.484,7.502-4.237,10.231-7.213C702.695,264.522,702.53,264.577,702.371,264.659z"/>
	</g>
</g>
<g>
	
		<radialGradient id="SVGID_2_" cx="1741.8104" cy="-3076.5295" r="72.2547" gradientTransform="matrix(-0.6105 -0.7872 0.7902 -0.6128 4130.958 -186.7334)" gradientUnits="userSpaceOnUse">
		<stop  offset="0" style="stop-color:#FFE6B9"/>
		<stop  offset="0.0875" style="stop-color:#FFE9C1;stop-opacity:0.9125"/>
		<stop  offset="0.4895" style="stop-color:#FFF5E4;stop-opacity:0.5105"/>
		<stop  offset="0.8075" style="stop-color:#FFFCF8;stop-opacity:0.1925"/>
		<stop  offset="1" style="stop-color:#FFFFFF;stop-opacity:0"/>
	</radialGradient>
	<path fill="url(#SVGID_2_)" d="M592.403,270.528c31.532-24.455,76.844-18.809,101.205,12.609
		c24.356,31.41,18.538,76.698-12.991,101.154c-31.537,24.448-76.847,18.807-101.206-12.605
		C555.052,340.274,560.869,294.984,592.403,270.528z"/>
	<path fill="#F5F5F5" d="M626.069,336.787c4.659,6.504,13.715,7.999,20.219,3.339c6.508-4.66,8.005-13.707,3.343-20.214
		c-2.98-4.16-7.382-5.783-10.935-7.308c-3.552-1.525-6.355-5.406-6.355-5.406c-0.661-0.92-1.872-1.183-2.847-0.676
		c-2.024-2.866-4.563-6.437-4.842-6.693c-0.66-0.616-5.57,0.336-6.476,0.984c-0.808,0.578-3.337,4.758-3.016,5.813
		c0.128,0.419,2.682,3.941,4.753,6.755c-0.827,0.754-0.983,2.012-0.314,2.946c0,0,2.756,3.472,2.983,8.042
		C622.807,328.934,623.092,332.628,626.069,336.787z"/>
	<g>
		<path fill="#010202" d="M629.493,306.522c-2.024-2.866-4.563-6.437-4.842-6.693c-0.66-0.616-5.57,0.336-6.476,0.984
			c-0.808,0.578-3.337,4.758-3.016,5.813c0.128,0.419,2.682,3.941,4.753,6.755c-0.06,0.054-0.108,0.116-0.159,0.174
			c2.796-1.484,7.502-4.237,10.231-7.213C629.817,306.385,629.653,306.44,629.493,306.522z"/>
	</g>
</g>
<g>
	
		<radialGradient id="SVGID_3_" cx="1712.0911" cy="-3149.3127" r="72.2555" gradientTransform="matrix(-0.5075 -0.8572 0.8605 -0.5094 4133.3667 231.9722)" gradientUnits="userSpaceOnUse">
		<stop  offset="0" style="stop-color:#FFE6B9"/>
		<stop  offset="0.0875" style="stop-color:#FFE9C1;stop-opacity:0.9125"/>
		<stop  offset="0.4895" style="stop-color:#FFF5E4;stop-opacity:0.5105"/>
		<stop  offset="0.8075" style="stop-color:#FFFCF8;stop-opacity:0.1925"/>
		<stop  offset="1" style="stop-color:#FFFFFF;stop-opacity:0"/>
	</radialGradient>
	<path fill="url(#SVGID_3_)" d="M517.833,306.687c34.337-20.33,78.589-9.074,98.842,25.137
		c20.245,34.204,8.822,78.412-25.511,98.744c-34.34,20.323-78.592,9.072-98.842-25.134
		C472.07,371.228,483.493,327.017,517.833,306.687z"/>
	<path fill="#F5F5F5" d="M542.968,376.629c3.812,7.035,12.611,9.648,19.644,5.835c7.039-3.811,9.653-12.601,5.84-19.639
		c-2.438-4.499-6.603-6.659-9.939-8.614c-3.334-1.957-5.631-6.157-5.631-6.157c-0.54-0.996-1.709-1.408-2.74-1.027
		c-1.65-3.096-3.724-6.955-3.968-7.244c-0.578-0.693-5.568-0.361-6.549,0.169c-0.874,0.472-3.905,4.304-3.718,5.391
		c0.076,0.431,2.17,4.244,3.873,7.295c-0.915,0.646-1.227,1.873-0.679,2.884c0,0,2.301,3.789,1.955,8.351
		C540.712,368.43,540.534,372.13,542.968,376.629z"/>
	<g>
		<path fill="#010202" d="M550.141,347.027c-1.65-3.096-3.724-6.955-3.968-7.244c-0.578-0.693-5.568-0.361-6.549,0.169
			c-0.874,0.472-3.905,4.304-3.718,5.391c0.076,0.431,2.17,4.244,3.873,7.295c-0.066,0.046-0.121,0.102-0.18,0.153
			c2.959-1.124,7.972-3.268,11.051-5.88C550.48,346.931,550.31,346.966,550.141,347.027z"/>
	</g>
</g>
<g>
	
		<radialGradient id="SVGID_4_" cx="1718.7881" cy="-3244.6726" r="72.253" gradientTransform="matrix(-0.4798 -0.8731 0.8764 -0.4815 4125.9702 340.966)" gradientUnits="userSpaceOnUse">
		<stop  offset="0" style="stop-color:#FFE6B9"/>
		<stop  offset="0.0875" style="stop-color:#FFE9C1;stop-opacity:0.9125"/>
		<stop  offset="0.4895" style="stop-color:#FFF5E4;stop-opacity:0.5105"/>
		<stop  offset="0.8075" style="stop-color:#FFFCF8;stop-opacity:0.1925"/>
		<stop  offset="1" style="stop-color:#FFFFFF;stop-opacity:0"/>
	</radialGradient>
	<path fill="url(#SVGID_4_)" d="M423.004,339.518c34.971-19.219,78.839-6.55,97.987,28.293
		c19.138,34.835,6.304,78.654-28.666,97.875c-34.972,19.211-78.842,6.548-97.984-28.289
		C375.196,402.559,388.03,358.738,423.004,339.518z"/>
	<path fill="#F5F5F5" d="M445.884,410.23c3.584,7.153,12.295,10.047,19.446,6.462c7.157-3.584,10.053-12.285,6.466-19.442
		c-2.292-4.575-6.386-6.866-9.657-8.928c-3.27-2.063-5.431-6.335-5.431-6.335c-0.508-1.013-1.663-1.463-2.706-1.114
		c-1.55-3.147-3.499-7.071-3.733-7.368c-0.555-0.711-5.554-0.54-6.551-0.042c-0.889,0.444-4.041,4.176-3.889,5.269
		c0.062,0.433,2.033,4.311,3.637,7.416c-0.935,0.616-1.287,1.832-0.77,2.861c0,0,2.179,3.86,1.686,8.409
		C443.892,401.963,443.596,405.656,445.884,410.23z"/>
	<g>
		<path fill="#010202" d="M454.003,380.873c-1.55-3.147-3.499-7.071-3.733-7.368c-0.555-0.711-5.554-0.54-6.551-0.042
			c-0.889,0.444-4.041,4.176-3.889,5.269c0.062,0.433,2.033,4.311,3.637,7.416c-0.067,0.044-0.124,0.098-0.185,0.147
			c2.994-1.029,8.072-3.011,11.234-5.523C454.344,380.789,454.174,380.817,454.003,380.873z"/>
	</g>
</g>
<g>
	
		<radialGradient id="SVGID_5_" cx="1701.8602" cy="-3338.9521" r="72.2505" gradientTransform="matrix(-0.3968 -0.9138 0.9173 -0.3983 4088.0447 660.9148)" gradientUnits="userSpaceOnUse">
		<stop  offset="0" style="stop-color:#FFE6B9"/>
		<stop  offset="0.0875" style="stop-color:#FFE9C1;stop-opacity:0.9125"/>
		<stop  offset="0.4895" style="stop-color:#FFF5E4;stop-opacity:0.5105"/>
		<stop  offset="0.8075" style="stop-color:#FFFCF8;stop-opacity:0.1925"/>
		<stop  offset="1" style="stop-color:#FFFFFF;stop-opacity:0"/>
	</radialGradient>
	<path fill="url(#SVGID_5_)" d="M321.259,369.636c36.601-15.896,79.106,0.782,94.943,37.249c15.828,36.459-1.01,78.9-37.611,94.798
		c-36.602,15.888-79.108-0.785-94.94-37.246C267.816,427.976,284.655,385.532,321.259,369.636z"/>
	<path fill="#F5F5F5" d="M337.49,442.163c2.905,7.454,11.31,11.143,18.763,8.237c7.458-2.905,11.149-11.301,8.24-18.76
		c-1.858-4.768-5.722-7.428-8.788-9.784c-3.065-2.357-4.821-6.811-4.821-6.811c-0.412-1.055-1.52-1.61-2.591-1.36
		c-1.253-3.277-2.829-7.365-3.035-7.681c-0.487-0.76-5.479-1.053-6.519-0.649c-0.926,0.359-4.41,3.784-4.36,4.886
		c0.022,0.437,1.625,4.481,2.934,7.721c-0.989,0.527-1.451,1.705-1.032,2.777c0,0,1.812,4.046,0.9,8.53
		C336.272,433.747,335.635,437.397,337.49,442.163z"/>
	<g>
		<path fill="#010202" d="M348.293,413.685c-1.253-3.277-2.829-7.365-3.035-7.681c-0.487-0.76-5.479-1.053-6.519-0.649
			c-0.926,0.359-4.41,3.784-4.36,4.886c0.022,0.437,1.625,4.481,2.934,7.721c-0.071,0.037-0.133,0.086-0.198,0.13
			c3.077-0.747,8.317-2.25,11.697-4.459C348.641,413.632,348.469,413.644,348.293,413.685z"/>
	</g>
</g>
<g>
	
		<radialGradient id="SVGID_6_" cx="1628.13" cy="-3383.8669" r="72.2527" gradientTransform="matrix(-0.1704 -0.9815 0.9853 -0.171 3855.7585 1470.8635)" gradientUnits="userSpaceOnUse">
		<stop  offset="0" style="stop-color:#FFE6B9"/>
		<stop  offset="0.0875" style="stop-color:#FFE9C1;stop-opacity:0.9125"/>
		<stop  offset="0.4895" style="stop-color:#FFF5E4;stop-opacity:0.5105"/>
		<stop  offset="0.8075" style="stop-color:#FFFCF8;stop-opacity:0.1925"/>
		<stop  offset="1" style="stop-color:#FFFFFF;stop-opacity:0"/>
	</radialGradient>
	<path fill="url(#SVGID_6_)" d="M231.895,380.576c39.316-6.826,76.696,19.396,83.496,58.568
		c6.794,39.161-19.569,76.441-58.885,83.27c-39.314,6.818-76.697-19.4-83.494-58.563
		C166.213,424.684,192.577,387.402,231.895,380.576z"/>
	<path fill="#F5F5F5" d="M230.583,454.886c1.067,7.93,8.367,13.493,16.295,12.425c7.932-1.067,13.497-8.357,12.427-16.291
		c-0.682-5.071-3.811-8.567-6.235-11.579c-2.424-3.013-3.081-7.755-3.081-7.755c-0.152-1.122-1.098-1.923-2.198-1.932
		c-0.446-3.479-1.015-7.824-1.14-8.18c-0.294-0.854-5.077-2.314-6.183-2.166c-0.984,0.131-5.177,2.638-5.389,3.722
		c-0.082,0.43,0.524,4.738,1.033,8.195c-1.085,0.279-1.812,1.315-1.658,2.455c0,0,0.808,4.359-1.135,8.502
		C231.382,446.419,229.903,449.817,230.583,454.886z"/>
	<g>
		<path fill="#010202" d="M247.792,429.754c-0.446-3.479-1.015-7.824-1.14-8.18c-0.294-0.854-5.077-2.314-6.183-2.166
			c-0.984,0.131-5.177,2.638-5.389,3.722c-0.082,0.43,0.524,4.738,1.033,8.195c-0.077,0.019-0.149,0.052-0.222,0.079
			c3.166-0.001,8.613-0.228,12.418-1.577C248.141,429.785,247.972,429.757,247.792,429.754z"/>
	</g>
</g>
<g>
	<g>
		<g>
			<g>
				<g>
					<path fill="#010202" d="M189.487,421.461c-0.779,0.138-1.693,1.069-2.059,1.253c-1.204,0.595-1.868-1.022-2.412-1.095
						c0.533-0.112,1.084-1.783,2.309-1.282C187.701,420.482,188.602,421.318,189.487,421.461z"/>
				</g>
			</g>
			<g>
				<g>
					<path fill="#010202" d="M194.859,421.382c-0.778,0.138-1.684,1.069-2.048,1.253c-1.199,0.595-1.878-1.022-2.422-1.095
						c0.532-0.112,1.068-1.783,2.298-1.281C193.064,420.403,193.972,421.239,194.859,421.382z"/>
				</g>
			</g>
			<g>
				<g>
					<path fill="#010202" d="M200.231,421.303c-0.776,0.138-1.675,1.068-2.037,1.253c-1.194,0.595-1.887-1.022-2.432-1.094
						c0.532-0.112,1.052-1.782,2.287-1.281C198.426,420.324,199.342,421.16,200.231,421.303z"/>
				</g>
			</g>
			<g>
				<g>
					<path fill="#010202" d="M205.599,421.128c-0.775,0.16-1.664,1.117-2.025,1.312c-1.187,0.638-1.895-0.983-2.441-1.057
						c0.531-0.112,1.037-1.773,2.275-1.315C203.788,420.201,204.71,421.011,205.599,421.128z"/>
				</g>
			</g>
			<g>
				<g>
					<path fill="#010202" d="M210.967,420.895c-0.774,0.16-1.656,1.116-2.014,1.311c-1.183,0.629-1.904-0.968-2.45-1.025
						c0.529-0.127,1.021-1.813,2.263-1.347C209.146,419.968,210.076,420.778,210.967,420.895z"/>
				</g>
			</g>
			<g>
				<g>
					<path fill="#010202" d="M216.334,420.662c-0.773,0.16-1.647,1.116-2.004,1.311c-1.178,0.629-1.912-0.967-2.459-1.025
						c0.528-0.127,1.006-1.812,2.253-1.346C214.505,419.736,215.442,420.545,216.334,420.662z"/>
				</g>
			</g>
			<g>
				<g>
					<path fill="#010202" d="M221.698,420.383c-0.771,0.177-1.635,1.172-1.991,1.357c-1.173,0.629-1.921-0.967-2.469-1.024
						c0.527-0.127,0.991-1.811,2.242-1.346C219.864,419.513,220.806,420.288,221.698,420.383z"/>
				</g>
			</g>
			<g>
				<g>
					<path fill="#010202" d="M227.057,420.003c-0.769,0.181-1.627,1.162-1.981,1.366c-1.166,0.662-1.927-0.915-2.474-0.957
						c0.526-0.142,0.975-1.84,2.228-1.409C225.215,419.127,226.164,419.91,227.057,420.003z"/>
				</g>
			</g>
			<g>
				<g>
					<path fill="#010202" d="M232.416,419.623c-0.768,0.181-1.618,1.161-1.971,1.366c-1.162,0.662-1.935-0.915-2.483-0.957
						c0.525-0.142,0.96-1.839,2.218-1.408C230.565,418.747,231.521,419.53,232.416,419.623z"/>
				</g>
			</g>
			<g>
				<g>
					<path fill="#010202" d="M237.774,419.243c-0.767,0.181-1.61,1.16-1.961,1.365c-1.157,0.661-1.944-0.914-2.492-0.956
						c0.524-0.142,0.946-1.838,2.208-1.407C235.916,418.367,236.879,419.15,237.774,419.243z"/>
				</g>
			</g>
			<g>
				<g>
					<path fill="#010202" d="M243.121,418.722c-0.765,0.202-1.598,1.204-1.947,1.419c-1.15,0.693-1.948-0.864-2.496-0.892
						c0.522-0.156,0.93-1.866,2.193-1.467C241.259,417.895,242.227,418.653,243.121,418.722z"/>
				</g>
			</g>
			<g>
				<g>
					<path fill="#010202" d="M248.468,418.201c-0.764,0.202-1.59,1.204-1.937,1.418c-1.145,0.692-1.956-0.863-2.505-0.891
						c0.521-0.156,0.916-1.865,2.184-1.467C246.598,417.374,247.572,418.132,248.468,418.201z"/>
				</g>
			</g>
			<g>
				<g>
					<path fill="#010202" d="M253.815,417.679c-0.763,0.201-1.582,1.203-1.928,1.417c-1.141,0.692-1.964-0.863-2.513-0.89
						c0.52-0.156,0.902-1.863,2.174-1.466C251.937,416.853,252.918,417.61,253.815,417.679z"/>
				</g>
			</g>
			<g>
				<g>
					<path fill="#010202" d="M259.152,417.07c-0.76,0.221-1.569,1.245-1.913,1.468c-1.132,0.728-1.967-0.821-2.518-0.853
						c0.52-0.152,0.889-1.858,2.161-1.498C257.271,416.289,258.256,417.023,259.152,417.07z"/>
				</g>
			</g>
			<g>
				<g>
					<path fill="#010202" d="M264.484,416.413c-0.759,0.221-1.562,1.244-1.904,1.467c-1.129,0.721-1.975-0.814-2.523-0.828
						c0.517-0.169,0.873-1.888,2.149-1.522C262.596,415.633,263.587,416.366,264.484,416.413z"/>
				</g>
			</g>
			<g>
				<g>
					<path fill="#010202" d="M269.816,415.756c-0.758,0.221-1.554,1.243-1.895,1.466c-1.124,0.721-1.982-0.813-2.532-0.827
						c0.517-0.169,0.86-1.886,2.14-1.521C267.92,414.977,268.918,415.71,269.816,415.756z"/>
				</g>
			</g>
			<g>
				<g>
					<path fill="#010202" d="M275.143,415.061c-0.754,0.238-1.54,1.288-1.881,1.502c-1.12,0.72-1.99-0.812-2.54-0.826
						c0.516-0.169,0.847-1.884,2.131-1.519C273.246,414.329,274.247,415.037,275.143,415.061z"/>
				</g>
			</g>
			<g>
				<g>
					<path fill="#010202" d="M280.457,414.275c-0.753,0.239-1.533,1.282-1.87,1.513c-1.112,0.748-1.991-0.766-2.54-0.767
						c0.513-0.181,0.831-1.909,2.114-1.574C278.553,413.541,279.56,414.25,280.457,414.275z"/>
				</g>
			</g>
			<g>
				<g>
					<path fill="#010202" d="M285.771,413.488c-0.753,0.239-1.526,1.281-1.862,1.512c-1.108,0.748-1.998-0.765-2.548-0.765
						c0.513-0.181,0.818-1.907,2.106-1.573C283.86,412.755,284.873,413.464,285.771,413.488z"/>
				</g>
			</g>
			<g>
				<g>
					<path fill="#010202" d="M291.086,412.702c-0.752,0.239-1.519,1.28-1.853,1.51c-1.104,0.747-2.006-0.764-2.556-0.764
						c0.512-0.181,0.806-1.905,2.097-1.571C289.168,411.97,290.186,412.678,291.086,412.702z"/>
				</g>
			</g>
			<g>
				<g>
					<path fill="#010202" d="M296.382,411.802c-0.748,0.257-1.506,1.318-1.837,1.557c-1.095,0.774-2.006-0.72-2.555-0.708
						c0.509-0.193,0.79-1.928,2.08-1.623C294.464,411.112,295.485,411.798,296.382,411.802z"/>
				</g>
			</g>
			<g>
				<g>
					<path fill="#010202" d="M301.677,410.892c-0.747,0.257-1.499,1.317-1.829,1.555c-1.092,0.774-2.013-0.719-2.562-0.706
						c0.508-0.193,0.778-1.926,2.072-1.622C299.752,410.203,300.778,410.888,301.677,410.892z"/>
				</g>
			</g>
			<g>
				<g>
					<path fill="#010202" d="M306.971,409.982c-0.746,0.257-1.492,1.315-1.821,1.554c-1.088,0.773-2.02-0.717-2.57-0.705
						c0.508-0.193,0.766-1.924,2.063-1.621C305.04,409.294,306.072,409.978,306.971,409.982z"/>
				</g>
			</g>
			<g>
				<g>
					<path fill="#010202" d="M312.254,409.009c-0.742,0.274-1.478,1.352-1.805,1.598c-1.077,0.807-2.025-0.707-2.574-0.686
						c0.506-0.2,0.757-1.907,2.052-1.634C310.323,408.362,311.358,409.025,312.254,409.009z"/>
				</g>
			</g>
			<g>
				<g>
					<path fill="#010202" d="M317.527,407.981c-0.741,0.273-1.471,1.35-1.797,1.596c-1.075,0.798-2.026-0.674-2.575-0.649
						c0.504-0.205,0.739-1.944,2.038-1.668C315.59,407.335,316.63,407.997,317.527,407.981z"/>
				</g>
			</g>
			<g>
				<g>
					<path fill="#010202" d="M322.8,406.952c-0.741,0.273-1.465,1.349-1.789,1.595c-1.072,0.797-2.033-0.673-2.582-0.648
						c0.504-0.204,0.728-1.942,2.03-1.667C320.857,406.308,321.902,406.969,322.8,406.952z"/>
				</g>
			</g>
			<g>
				<g>
					<path fill="#010202" d="M328.07,405.91c-0.735,0.298-1.456,1.358-1.779,1.608c-1.068,0.797-2.039-0.671-2.589-0.647
						c0.503-0.204,0.717-1.94,2.022-1.665C326.122,405.275,327.176,405.954,328.07,405.91z"/>
				</g>
			</g>
			<g>
				<g>
					<path fill="#010202" d="M333.32,404.769c-0.736,0.289-1.445,1.382-1.765,1.635c-1.059,0.821-2.037-0.631-2.585-0.595
						c0.5-0.215,0.701-1.96,2.005-1.712C331.372,404.164,332.423,404.805,333.32,404.769z"/>
				</g>
			</g>
			<g>
				<g>
					<path fill="#010202" d="M338.57,403.628c-0.735,0.289-1.438,1.381-1.758,1.634c-1.056,0.821-2.044-0.63-2.592-0.593
						c0.499-0.215,0.69-1.958,1.997-1.711C336.615,403.024,337.672,403.664,338.57,403.628z"/>
				</g>
			</g>
			<g>
				<g>
					<path fill="#010202" d="M343.82,402.487c-0.734,0.289-1.432,1.379-1.751,1.632c-1.052,0.82-2.05-0.628-2.599-0.592
						c0.499-0.215,0.68-1.956,1.99-1.709C341.859,401.885,342.921,402.523,343.82,402.487z"/>
				</g>
			</g>
			<g>
				<g>
					<path fill="#010202" d="M349.052,401.27c-0.73,0.304-1.418,1.412-1.734,1.672c-1.043,0.843-2.047-0.586-2.598-0.555
						c0.499-0.21,0.667-1.961,1.975-1.741C347.094,400.705,348.156,401.324,349.052,401.27z"/>
				</g>
			</g>
			<g>
				<g>
					<path fill="#010202" d="M354.277,400.021c-0.729,0.304-1.412,1.411-1.727,1.67c-1.04,0.842-2.054-0.588-2.601-0.54
						c0.495-0.225,0.654-1.973,1.964-1.752C352.313,399.457,353.381,400.075,354.277,400.021z"/>
				</g>
			</g>
			<g>
				<g>
					<path fill="#010202" d="M359.502,398.772c-0.729,0.304-1.406,1.409-1.72,1.668c-1.037,0.842-2.06-0.587-2.607-0.539
						c0.494-0.225,0.644-1.971,1.957-1.75C357.532,398.21,358.605,398.827,359.502,398.772z"/>
				</g>
			</g>
			<g>
				<g>
					<path fill="#010202" d="M364.72,397.495c-0.724,0.319-1.392,1.442-1.706,1.695c-1.033,0.841-2.066-0.585-2.614-0.537
						c0.494-0.225,0.634-1.968,1.95-1.749C362.753,396.968,363.827,397.569,364.72,397.495z"/>
				</g>
			</g>
			<g>
				<g>
					<path fill="#010202" d="M369.92,396.144c-0.723,0.319-1.387,1.439-1.697,1.704c-1.024,0.863-2.062-0.548-2.609-0.49
						c0.491-0.235,0.619-1.986,1.932-1.791C367.947,395.618,369.025,396.216,369.92,396.144z"/>
				</g>
			</g>
			<g>
				<g>
					<path fill="#010202" d="M375.119,394.792c-0.723,0.319-1.381,1.437-1.69,1.703c-1.021,0.862-2.068-0.547-2.615-0.488
						c0.49-0.235,0.609-1.984,1.926-1.79C373.142,394.268,374.224,394.864,375.119,394.792z"/>
				</g>
			</g>
			<g>
				<g>
					<path fill="#010202" d="M380.319,393.441c-0.722,0.318-1.375,1.436-1.683,1.701c-1.018,0.861-2.074-0.545-2.621-0.486
						c0.489-0.235,0.6-1.981,1.919-1.788C378.336,392.918,379.423,393.513,380.319,393.441z"/>
				</g>
			</g>
			<g>
				<g>
					<path fill="#010202" d="M385.497,392.008c-0.718,0.332-1.361,1.465-1.667,1.737c-1.009,0.883-2.07-0.51-2.615-0.441
						c0.486-0.244,0.585-1.999,1.901-1.828C383.517,391.519,384.604,392.097,385.497,392.008z"/>
				</g>
			</g>
			<g>
				<g>
					<path fill="#010202" d="M390.67,390.558c-0.717,0.332-1.356,1.464-1.66,1.735c-1.006,0.882-2.076-0.508-2.621-0.439
						c0.486-0.244,0.576-1.996,1.894-1.826C388.685,390.071,389.776,390.647,390.67,390.558z"/>
				</g>
			</g>
			<g>
				<g>
					<path fill="#010202" d="M395.843,389.109c-0.716,0.332-1.351,1.462-1.654,1.733c-1.003,0.881-2.081-0.507-2.627-0.438
						c0.485-0.244,0.567-1.994,1.888-1.825C393.852,388.623,394.948,389.198,395.843,389.109z"/>
				</g>
			</g>
			<g>
				<g>
					<path fill="#010202" d="M401.006,387.624c-0.712,0.345-1.336,1.491-1.637,1.767c-1,0.88-2.086-0.505-2.632-0.436
						c0.485-0.244,0.558-1.991,1.882-1.823C399.02,387.174,400.115,387.728,401.006,387.624z"/>
				</g>
			</g>
			<g>
				<g>
					<path fill="#010202" d="M406.152,386.081c-0.711,0.345-1.332,1.489-1.631,1.766c-0.991,0.9-2.082-0.471-2.626-0.392
						c0.481-0.253,0.543-2.007,1.864-1.861C404.16,385.63,405.26,386.186,406.152,386.081z"/>
				</g>
			</g>
			<g>
				<g>
					<path fill="#010202" d="M411.298,384.538c-0.711,0.345-1.326,1.487-1.625,1.764c-0.988,0.899-2.087-0.47-2.631-0.391
						c0.481-0.253,0.535-2.005,1.858-1.859C409.301,384.088,410.405,384.643,411.298,384.538z"/>
				</g>
			</g>
			<g>
				<g>
					<path fill="#010202" d="M416.444,382.995c-0.71,0.345-1.321,1.486-1.619,1.762c-0.985,0.898-2.092-0.468-2.637-0.389
						c0.48-0.253,0.526-2.002,1.851-1.858C414.442,382.547,415.55,383.101,416.444,382.995z"/>
				</g>
			</g>
			<g>
				<g>
					<path fill="#010202" d="M421.564,381.371c-0.705,0.358-1.308,1.513-1.603,1.795c-0.976,0.918-2.088-0.436-2.63-0.347
						c0.477-0.262,0.512-2.018,1.834-1.894C419.568,380.953,420.675,381.491,421.564,381.371z"/>
				</g>
			</g>
			<g>
				<g>
					<path fill="#010202" d="M426.683,379.739c-0.705,0.357-1.303,1.511-1.597,1.793c-0.974,0.917-2.093-0.434-2.635-0.346
						c0.477-0.261,0.504-2.015,1.828-1.892C424.681,379.322,425.793,379.859,426.683,379.739z"/>
				</g>
			</g>
			<g>
				<g>
					<path fill="#010202" d="M431.801,378.106c-0.704,0.357-1.298,1.509-1.591,1.791c-0.971,0.916-2.098-0.432-2.641-0.344
						c0.476-0.261,0.495-2.013,1.822-1.891C429.795,377.692,430.91,378.227,431.801,378.106z"/>
				</g>
			</g>
			<g>
				<g>
					<path fill="#010202" d="M436.907,376.437c-0.699,0.369-1.284,1.535-1.575,1.822c-0.965,0.924-2.102-0.428-2.644-0.338
						c0.475-0.262,0.488-2.007,1.815-1.892C434.906,376.052,436.02,376.572,436.907,376.437z"/>
				</g>
			</g>
			<g>
				<g>
					<path fill="#010202" d="M441.998,374.719c-0.699,0.369-1.28,1.533-1.569,1.82c-0.959,0.933-2.097-0.4-2.638-0.302
						c0.472-0.269,0.474-2.024,1.798-1.924C439.992,374.336,441.11,374.854,441.998,374.719z"/>
				</g>
			</g>
			<g>
				<g>
					<path fill="#010202" d="M447.088,373.001c-0.698,0.369-1.275,1.532-1.564,1.818c-0.957,0.932-2.102-0.398-2.643-0.301
						c0.472-0.269,0.466-2.022,1.793-1.922C445.077,372.62,446.2,373.137,447.088,373.001z"/>
				</g>
			</g>
			<g>
				<g>
					<path fill="#010202" d="M452.178,371.284c-0.698,0.369-1.27,1.53-1.559,1.816c-0.954,0.932-2.107-0.397-2.648-0.299
						c0.471-0.269,0.458-2.019,1.787-1.92C450.163,370.904,451.29,371.42,452.178,371.284z"/>
				</g>
			</g>
			<g>
				<g>
					<path fill="#010202" d="M457.242,369.488c-0.693,0.381-1.257,1.554-1.542,1.846c-0.945,0.949-2.102-0.367-2.641-0.261
						c0.468-0.277,0.444-2.033,1.77-1.953C455.232,369.136,456.357,369.638,457.242,369.488z"/>
				</g>
			</g>
			<g>
				<g>
					<path fill="#010202" d="M462.304,367.689c-0.693,0.38-1.252,1.553-1.537,1.844c-0.943,0.948-2.106-0.365-2.645-0.259
						c0.468-0.277,0.437-2.03,1.764-1.951C460.29,367.339,461.418,367.839,462.304,367.689z"/>
				</g>
			</g>
			<g>
				<g>
					<path fill="#010202" d="M467.366,365.89c-0.692,0.38-1.248,1.551-1.532,1.842c-0.94,0.947-2.111-0.364-2.65-0.258
						c0.467-0.277,0.429-2.028,1.759-1.949C465.348,365.542,466.48,366.04,467.366,365.89z"/>
				</g>
			</g>
			<g>
				<g>
					<path fill="#010202" d="M472.415,364.055c-0.687,0.391-1.235,1.574-1.516,1.87c-0.933,0.96-2.114-0.358-2.652-0.249
						c0.466-0.279,0.424-2.019,1.752-1.953C470.402,363.733,471.533,364.218,472.415,364.055z"/>
				</g>
			</g>
			<g>
				<g>
					<path fill="#010202" d="M477.449,362.178c-0.687,0.391-1.23,1.573-1.511,1.868c-0.929,0.963-2.109-0.333-2.647-0.219
						c0.464-0.284,0.409-2.038,1.737-1.979C475.431,361.858,476.566,362.341,477.449,362.178z"/>
				</g>
			</g>
			<g>
				<g>
					<path fill="#010202" d="M482.483,360.301c-0.686,0.391-1.226,1.571-1.506,1.867c-0.927,0.962-2.114-0.332-2.652-0.218
						c0.463-0.284,0.402-2.035,1.732-1.977C480.461,359.983,481.599,360.465,482.483,360.301z"/>
				</g>
			</g>
			<g>
				<g>
					<path fill="#010202" d="M487.517,358.425c-0.686,0.391-1.222,1.569-1.501,1.865c-0.924,0.961-2.118-0.33-2.656-0.216
						c0.463-0.284,0.394-2.033,1.726-1.975C485.491,358.108,486.633,358.588,487.517,358.425z"/>
				</g>
			</g>
			<g>
				<g>
					<path fill="#010202" d="M492.523,356.475c-0.681,0.401-1.209,1.591-1.485,1.891c-0.916,0.977-2.112-0.303-2.648-0.181
						c0.459-0.291,0.382-2.045,1.709-2.005C490.503,356.184,491.643,356.651,492.523,356.475z"/>
				</g>
			</g>
			<g>
				<g>
					<path fill="#010202" d="M497.528,354.524c-0.681,0.401-1.205,1.59-1.481,1.89c-0.913,0.976-2.116-0.301-2.652-0.179
						c0.459-0.291,0.375-2.042,1.705-2.003C495.504,354.234,496.648,354.7,497.528,354.524z"/>
				</g>
			</g>
			<g>
				<g>
					<path fill="#010202" d="M502.534,352.573c-0.68,0.401-1.201,1.588-1.476,1.888c-0.911,0.975-2.12-0.3-2.657-0.177
						c0.459-0.291,0.368-2.04,1.7-2.001C500.506,352.285,501.653,352.749,502.534,352.573z"/>
				</g>
			</g>
			<g>
				<g>
					<path fill="#010202" d="M507.526,350.586c-0.676,0.411-1.188,1.609-1.46,1.913c-0.902,0.991-2.123-0.294-2.658-0.168
						c0.457-0.294,0.364-2.03,1.692-2.007C505.503,350.323,506.648,350.775,507.526,350.586z"/>
				</g>
			</g>
			<g>
				<g>
					<path fill="#010202" d="M512.503,348.564c-0.675,0.411-1.184,1.607-1.456,1.911c-0.9,0.989-2.118-0.272-2.653-0.142
						c0.455-0.297,0.349-2.049,1.678-2.028C510.477,348.303,511.625,348.753,512.503,348.564z"/>
				</g>
			</g>
			<g>
				<g>
					<path fill="#010202" d="M517.48,346.542c-0.675,0.411-1.18,1.606-1.451,1.909c-0.898,0.988-2.122-0.27-2.657-0.141
						c0.455-0.297,0.342-2.046,1.673-2.026C515.45,346.283,516.602,346.731,517.48,346.542z"/>
				</g>
			</g>
			<g>
				<g>
					<path fill="#010202" d="M522.457,344.519c-0.674,0.412-1.176,1.605-1.446,1.909c-0.896,0.988-2.126-0.269-2.661-0.139
						c0.454-0.297,0.336-2.043,1.669-2.025C520.424,344.262,521.579,344.711,522.457,344.519z"/>
				</g>
			</g>
			<g>
				<g>
					<path fill="#010202" d="M527.407,342.43c-0.67,0.42-1.164,1.624-1.432,1.932c-0.888,1.002-2.12-0.244-2.652-0.107
						c0.451-0.304,0.324-2.055,1.652-2.052C525.379,342.195,526.532,342.63,527.407,342.43z"/>
				</g>
			</g>
			<g>
				<g>
					<path fill="#010202" d="M532.356,340.34c-0.669,0.42-1.16,1.623-1.427,1.93c-0.886,1.001-2.124-0.242-2.656-0.105
						c0.451-0.303,0.317-2.052,1.648-2.05C530.324,340.107,531.48,340.541,532.356,340.34z"/>
				</g>
			</g>
			<g>
				<g>
					<path fill="#010202" d="M537.305,338.25c-0.669,0.42-1.156,1.621-1.423,1.928c-0.884,1-2.128-0.241-2.66-0.103
						c0.45-0.303,0.311-2.049,1.643-2.048C535.27,338.019,536.429,338.451,537.305,338.25z"/>
				</g>
			</g>
			<g>
				<g>
					<path fill="#010202" d="M542.24,336.126c-0.664,0.429-1.144,1.64-1.408,1.951c-0.873,1.018-2.129-0.234-2.66-0.092
						c0.448-0.307,0.308-2.038,1.635-2.055C540.21,335.917,541.368,336.338,542.24,336.126z"/>
				</g>
			</g>
			<g>
				<g>
					<path fill="#010202" d="M547.161,333.971c-0.664,0.429-1.14,1.639-1.404,1.95c-0.873,1.013-2.125-0.215-2.656-0.071
						c0.447-0.309,0.293-2.057,1.623-2.072C545.128,333.764,546.288,334.183,547.161,333.971z"/>
				</g>
			</g>
			<g>
				<g>
					<path fill="#010202" d="M552.082,331.816c-0.664,0.429-1.137,1.637-1.399,1.948c-0.871,1.012-2.129-0.213-2.66-0.069
						c0.446-0.309,0.287-2.054,1.618-2.071C550.046,331.611,551.209,332.028,552.082,331.816z"/>
				</g>
			</g>
			<g>
				<g>
					<path fill="#010202" d="M557.002,329.658c-0.66,0.435-1.132,1.637-1.394,1.949c-0.869,1.011-2.132-0.212-2.663-0.068
						c0.446-0.309,0.281-2.052,1.614-2.069C554.963,329.456,556.132,329.877,557.002,329.658z"/>
				</g>
			</g>
			<g>
				<g>
					<path fill="#010202" d="M561.896,327.441c-0.659,0.437-1.121,1.654-1.381,1.968c-0.861,1.024-2.126-0.189-2.655-0.038
						c0.443-0.315,0.27-2.062,1.598-2.094C559.862,327.259,561.026,327.664,561.896,327.441z"/>
				</g>
			</g>
			<g>
				<g>
					<path fill="#010202" d="M566.789,325.224c-0.658,0.437-1.117,1.652-1.377,1.966c-0.859,1.023-2.13-0.187-2.658-0.036
						c0.443-0.315,0.264-2.059,1.594-2.092C564.752,325.044,565.919,325.447,566.789,325.224z"/>
				</g>
			</g>
			<g>
				<g>
					<path fill="#010202" d="M571.683,323.007c-0.658,0.437-1.114,1.65-1.373,1.964c-0.857,1.023-2.133-0.186-2.662-0.035
						c0.442-0.315,0.258-2.057,1.59-2.09C569.643,322.828,570.813,323.231,571.683,323.007z"/>
				</g>
			</g>
			<g>
				<g>
					<path fill="#010202" d="M576.56,320.755c-0.654,0.445-1.102,1.668-1.358,1.985c-0.848,1.039-2.131-0.173-2.66-0.021
						c0.441-0.317,0.255-2.048,1.581-2.099C574.526,320.598,575.694,320.989,576.56,320.755z"/>
				</g>
			</g>
			<g>
				<g>
					<path fill="#010202" d="M581.427,318.479c-0.653,0.445-1.099,1.666-1.354,1.984c-0.848,1.034-2.13-0.162-2.657-0.005
						c0.439-0.32,0.241-2.063,1.57-2.112C579.389,318.323,580.56,318.712,581.427,318.479z"/>
				</g>
			</g>
			<g>
				<g>
					<path fill="#010202" d="M586.293,316.202c-0.653,0.445-1.095,1.665-1.35,1.982c-0.846,1.033-2.133-0.16-2.661-0.003
						c0.439-0.32,0.236-2.061,1.566-2.11C584.252,316.048,585.426,316.436,586.293,316.202z"/>
				</g>
			</g>
			<g>
				<g>
					<path fill="#010202" d="M591.156,313.918c-0.646,0.457-1.09,1.669-1.343,1.987c-0.844,1.033-2.137-0.159-2.664-0.001
						c0.438-0.32,0.23-2.058,1.562-2.108C589.114,313.77,590.294,314.166,591.156,313.918z"/>
				</g>
			</g>
			<g>
				<g>
					<path fill="#010202" d="M595.995,311.585c-0.648,0.453-1.08,1.68-1.332,2c-0.836,1.044-2.131-0.138-2.655,0.026
						c0.435-0.326,0.219-2.067,1.547-2.131C593.957,311.452,595.131,311.829,595.995,311.585z"/>
				</g>
			</g>
			<g>
				<g>
					<path fill="#010202" d="M600.834,309.251c-0.648,0.453-1.077,1.678-1.329,1.998c-0.834,1.044-2.134-0.136-2.659,0.027
						c0.435-0.325,0.214-2.065,1.543-2.129C598.793,309.12,599.97,309.495,600.834,309.251z"/>
				</g>
			</g>
			<g>
				<g>
					<path fill="#010202" d="M605.673,306.918c-0.647,0.453-1.074,1.677-1.325,1.997c-0.833,1.043-2.137-0.134-2.662,0.029
						c0.435-0.325,0.208-2.062,1.539-2.127C603.629,306.788,604.808,307.162,605.673,306.918z"/>
				</g>
			</g>
			<g>
				<g>
					<path fill="#010202" d="M610.494,304.547c-0.643,0.46-1.063,1.692-1.311,2.016c-0.824,1.055-2.131-0.114-2.658,0.047
						c0.435-0.323,0.202-2.061,1.528-2.141C608.456,304.436,609.633,304.8,610.494,304.547z"/>
				</g>
			</g>
			<g>
				<g>
					<path fill="#010202" d="M615.306,302.158c-0.643,0.46-1.06,1.691-1.308,2.014c-0.823,1.053-2.134-0.112-2.657,0.057
						c0.431-0.33,0.193-2.068,1.521-2.147C613.265,302.05,614.445,302.412,615.306,302.158z"/>
				</g>
			</g>
			<g>
				<g>
					<path fill="#010202" d="M620.119,299.77c-0.642,0.46-1.057,1.689-1.304,2.012c-0.821,1.053-2.137-0.111-2.66,0.059
						c0.431-0.33,0.187-2.065,1.517-2.146C618.075,299.663,619.257,300.024,620.119,299.77z"/>
				</g>
			</g>
			<g>
				<g>
					<path fill="#010202" d="M624.924,297.368c-0.638,0.469-1.045,1.704-1.294,2.024c-0.82,1.052-2.14-0.109-2.663,0.06
						c0.431-0.33,0.182-2.063,1.513-2.144C622.886,297.279,624.068,297.633,624.924,297.368z"/>
				</g>
			</g>
			<g>
				<g>
					<path fill="#010202" d="M629.711,294.928c-0.638,0.467-1.042,1.703-1.287,2.029c-0.812,1.063-2.134-0.09-2.655,0.085
						c0.428-0.335,0.172-2.071,1.498-2.165C627.67,294.841,628.852,295.191,629.711,294.928z"/>
				</g>
			</g>
			<g>
				<g>
					<path fill="#010202" d="M634.497,292.487c-0.637,0.467-1.039,1.702-1.284,2.027c-0.81,1.062-2.137-0.088-2.658,0.087
						c0.427-0.335,0.167-2.068,1.495-2.163C632.453,292.402,633.638,292.75,634.497,292.487z"/>
				</g>
			</g>
			<g>
				<g>
					<path fill="#010202" d="M639.283,290.046c-0.637,0.467-1.036,1.7-1.28,2.026c-0.809,1.061-2.14-0.087-2.661,0.089
						c0.427-0.335,0.162-2.066,1.491-2.161C637.236,289.962,638.423,290.31,639.283,290.046z"/>
				</g>
			</g>
			<g>
				<g>
					<path fill="#010202" d="M644.047,287.563c-0.633,0.474-1.025,1.715-1.267,2.043c-0.801,1.071-2.133-0.068-2.653,0.113
						c0.424-0.34,0.152-2.074,1.477-2.181C642.006,287.497,643.191,287.835,644.047,287.563z"/>
				</g>
			</g>
			<g>
				<g>
					<path fill="#010202" d="M648.807,285.072c-0.633,0.474-1.022,1.713-1.263,2.041c-0.8,1.071-2.136-0.066-2.656,0.114
						c0.424-0.34,0.147-2.071,1.473-2.179C646.763,285.007,647.951,285.344,648.807,285.072z"/>
				</g>
			</g>
			<g>
				<g>
					<path fill="#010202" d="M653.567,282.581c-0.632,0.474-1.02,1.712-1.26,2.04c-0.798,1.07-2.139-0.065-2.659,0.116
						c0.424-0.339,0.142-2.069,1.47-2.177C651.52,282.518,652.71,282.853,653.567,282.581z"/>
				</g>
			</g>
			<g>
				<g>
					<path fill="#010202" d="M658.315,280.068c-0.628,0.48-1.009,1.725-1.247,2.057c-0.793,1.076-2.141-0.061-2.66,0.121
						c0.423-0.34,0.139-2.063,1.465-2.178C656.274,280.022,657.463,280.348,658.315,280.068z"/>
				</g>
			</g>
			<g>
				<g>
					<path fill="#010202" d="M663.049,277.528c-0.628,0.48-1.006,1.724-1.244,2.055c-0.789,1.079-2.136-0.045-2.653,0.141
						c0.421-0.344,0.128-2.073,1.452-2.195C661.006,277.484,662.197,277.809,663.049,277.528z"/>
				</g>
			</g>
			<g>
				<g>
					<path fill="#010202" d="M667.784,274.989c-0.628,0.48-1.003,1.722-1.24,2.053c-0.788,1.078-2.139-0.044-2.656,0.142
						c0.42-0.344,0.123-2.071,1.449-2.193C665.738,274.946,666.931,275.27,667.784,274.989z"/>
				</g>
			</g>
			<g>
				<g>
					<path fill="#010202" d="M672.516,272.445c-0.623,0.488-0.999,1.723-1.235,2.056c-0.786,1.077-2.141-0.042-2.659,0.144
						c0.42-0.344,0.118-2.068,1.446-2.191C670.469,272.406,671.667,272.735,672.516,272.445z"/>
				</g>
			</g>
			<g>
				<g>
					<path fill="#010202" d="M677.225,269.859c-0.623,0.486-0.99,1.734-1.224,2.068c-0.779,1.087-2.135-0.025-2.651,0.166
						c0.417-0.348,0.109-2.075,1.432-2.209C675.182,269.835,676.375,270.149,677.225,269.859z"/>
				</g>
			</g>
			<g>
				<g>
					<path fill="#010202" d="M681.934,267.273c-0.623,0.486-0.987,1.733-1.221,2.066c-0.778,1.086-2.138-0.023-2.654,0.168
						c0.417-0.348,0.104-2.073,1.428-2.208C679.889,267.25,681.084,267.563,681.934,267.273z"/>
				</g>
			</g>
			<g>
				<g>
					<path fill="#010202" d="M686.643,264.687c-0.623,0.486-0.985,1.731-1.218,2.064c-0.776,1.085-2.141-0.022-2.657,0.17
						c0.417-0.348,0.1-2.07,1.425-2.206C684.596,264.666,685.793,264.977,686.643,264.687z"/>
				</g>
			</g>
			<g>
				<g>
					<path fill="#010202" d="M691.334,262.068c-0.619,0.492-0.974,1.744-1.206,2.08c-0.77,1.093-2.133-0.001-2.65,0.187
						c0.418-0.345,0.091-2.075,1.414-2.22C689.292,262.062,690.487,262.365,691.334,262.068z"/>
				</g>
			</g>
			<g>
				<g>
					<path fill="#010202" d="M696.018,259.437c-0.618,0.492-0.971,1.743-1.203,2.078c-0.768,1.094-2.137-0.003-2.651,0.193
						c0.414-0.352,0.086-2.075,1.408-2.222C693.974,259.433,695.171,259.735,696.018,259.437z"/>
				</g>
			</g>
			<g>
				<g>
					<path fill="#010202" d="M700.702,256.807c-0.618,0.492-0.969,1.741-1.2,2.076c-0.766,1.093-2.14-0.002-2.654,0.194
						c0.414-0.352,0.081-2.072,1.405-2.22C698.655,256.804,699.855,257.104,700.702,256.807z"/>
				</g>
			</g>
			<g>
				<g>
					<path fill="#010202" d="M705.376,254.157c-0.614,0.498-0.959,1.753-1.187,2.091c-0.762,1.097-2.142,0.001-2.655,0.198
						c0.413-0.352,0.078-2.068,1.401-2.22C703.335,254.17,704.532,254.462,705.376,254.157z"/>
				</g>
			</g>
			<g>
				<g>
					<path fill="#010202" d="M710.036,251.483c-0.614,0.498-0.956,1.752-1.184,2.089c-0.758,1.101-2.136,0.016-2.648,0.217
						c0.411-0.356,0.068-2.076,1.389-2.235C707.992,251.498,709.191,251.789,710.036,251.483z"/>
				</g>
			</g>
			<g>
				<g>
					<path fill="#010202" d="M714.696,248.81c-0.614,0.498-0.954,1.75-1.181,2.088c-0.757,1.1-2.139,0.017-2.651,0.218
						c0.41-0.356,0.064-2.074,1.386-2.233C712.65,248.826,713.851,249.115,714.696,248.81z"/>
				</g>
			</g>
			<g>
				<g>
					<path fill="#010202" d="M719.352,246.13c-0.608,0.506-0.947,1.755-1.174,2.093c-0.755,1.099-2.141,0.019-2.654,0.22
						c0.41-0.356,0.059-2.071,1.383-2.232C717.307,246.152,718.512,246.445,719.352,246.13z"/>
				</g>
			</g>
			<g>
				<g>
					<path fill="#010202" d="M723.988,243.414c-0.609,0.504-0.941,1.761-1.166,2.1c-0.749,1.108-2.136,0.035-2.646,0.24
						c0.407-0.359,0.05-2.077,1.369-2.248C721.945,243.447,723.146,243.727,723.988,243.414z"/>
				</g>
			</g>
			<g>
				<g>
					<path fill="#010202" d="M728.624,240.699c-0.609,0.503-0.939,1.759-1.163,2.099c-0.747,1.107-2.138,0.036-2.648,0.241
						c0.407-0.359,0.046-2.075,1.366-2.246C726.578,240.733,727.782,241.012,728.624,240.699z"/>
				</g>
			</g>
			<g>
				<g>
					<path fill="#010202" d="M733.259,237.984c-0.609,0.503-0.936,1.758-1.161,2.097c-0.746,1.106-2.14,0.038-2.651,0.243
						c0.407-0.359,0.042-2.072,1.364-2.244C731.212,238.019,732.417,238.297,733.259,237.984z"/>
				</g>
			</g>
		</g>
	</g>
</g>
</svg>
