<?xml version="1.0" encoding="utf-8"?>
<!-- Generator: Adobe Illustrator 19.2.1, SVG Export Plug-In . SVG Version: 6.00 Build 0)  -->
<svg version="1.1" id="Capa_1" xmlns="http://www.w3.org/2000/svg" xmlns:xlink="http://www.w3.org/1999/xlink" x="0px" y="0px"
	 viewBox="0 0 1030.28 841.89" enable-background="new 0 0 1030.28 841.89" xml:space="preserve">
<path fill="#B0D0EA" d="M787.487,342.676c-6.61,7.596-17.726,7.261-17.989,2.067c-0.296-5.232,18.908-24.782,12.2-31.078
	c-6.775-6.293-18.48,11.859-26.111,19.219c-7.694,7.295-19.238,22.217-22.952,17.988c-3.65-4.332,2.859-15.157,9.93-25.082
	c7.199-10.16,14.173-19.785,7.496-25.246c-6.61-5.464-24.036,20.983-27.656,27.013c-3.65,6.027-15.257,25.014-21.932,24.98
	c-6.708,0-9.506-3.097-3.617-12.425c3.913-6.228-5.297-10.157-19.076,3.397c-13.81,13.622-25.946,11.392-28.707,10.56
	c-2.761-0.9-15.224,1.132-13.318-6.927c1.876-7.926,11.971-12.892,24.201-13.888c12.234-0.935,21.016-7.231,15.261-10.658
	c-5.721-3.332-27.165,4.662-19.797-6.531c7.398-11.19-2.993-15.519-12.102-3.629c-2.202,2.93-4.57,5.464-6.971,7.561
	c-11.51,7.858-18.086,4.997-19.797,2.531c-5.526-8.029,9.075-20.618,12.56-26.648c3.455-6.027,18.844-8.725,27.064-19.049
	c8.287-10.328-2.957-7.261-10.684-6.429c-7.762,0.832-7.203-8.36,7.431-14.424c14.665-6.061,55.41-22.78,50.214-30.174
	c-5.23-7.364-21.507,2.364-32.556,6.095c-8.812,2.964-16.083,3.097-10.196-4.697c5.886-7.793,38.87-20.42,40.254-28.878
	c1.347-8.462-12.695-4.13-22.824-1.132c-10.159,2.93-6.543-5.764,0.263-12.125c6.775-6.361,13.911-14.686,8.452-19.018
	c-3.846-3.032-9.503,9.993-19.302-2.899c-7.466-9.758-11.903-0.399-8.321,9.028c3.583,9.393-1.842,19.25-6.512,17.088
	c-4.668-2.166-12.955-28.445-21.606-25.28c-8.614,3.196,1.909,22.047,4.836,32.374c2.892,10.225,10.654,27.511,5.229,28.878
	c-5.458,1.265-11.971-9.56-17.43-20.485c-5.59-11.194-10.786-21.852-18.645-18.387c-7.86,3.465,7.334,31.31,10.917,37.337
	c3.617,6.064,14.897,25.249,11.806,31.245c-3.124,5.962-7.105,7.026-12.594-2.466c-3.65-6.429-11.314,0.065-5.755,18.752
	c5.556,18.619-2.007,28.479-4.048,30.611c-2.004,2.063-5.983,14.219-12.099,8.793c-6.183-5.396-5.856-16.753-1.054-28.213
	c4.735-11.422,3.29-22.183-2.27-18.585c-5.624,3.598-8.482,26.545-14.894,14.789c-6.449-11.791-14.998-4.495-8.748,9.192
	c2.994,6.528,4.405,12.824,4.438,17.855c-0.492,1.098-0.623,7.292-3.287,9.39c-6.381,5.13-11.018-5.126-13.288-6.859
	c-2.367-1.733-11.311-10.293-8.614-29.646c2.664-19.318-5.886-24.547-8.55-17.551c-3.947,10.225-8.058,9.758-12.038,4.297
	c-3.977-5.396,4.277-26.146,6.94-32.644c2.664-6.528,13.449-36.372,5.162-38.568c-8.253-2.234-11.772,9.093-15.618,21.051
	c-3.751,11.59-8.553,23.346-14.143,22.882c-5.59-0.501-0.525-18.786,0.822-29.41c1.282-10.525,8.846-30.812-0.132-32.644
	c-9.008-1.832-13.217,25.447-17.527,28.346c-4.341,2.797-11.146-6.064-9.008-15.921c2.071-9.894-3.718-18.421-9.604-7.63
	c-7.728,14.223-15.291,2.234-18.612,5.798c-4.768,5.16,3.549,12.255,11.213,17.517c7.661,5.232,12.527,13.257,2.071,11.893
	c-10.459-1.368-24.993-3.397-22.329,4.697c2.6,8.158,37.061,15.553,44.099,22.347c6.97,6.763-0.232,7.729-9.405,6.197
	c-11.476-1.934-28.973-9.059-33.051-0.965c-4.044,8.094,38.738,18.35,54.131,22.047c15.389,3.765,17.295,12.657,9.536,13.09
	c-7.762,0.368-19.339-0.897-9.637,7.995c9.736,8.895,25.356,9.26,29.697,14.69c4.307,5.396,24.006,18.384,16.376,24.345
	c-4.866,3.83-9.075,3.997-12.267,3.066c-4.799-1.866-10.358-5.829-15.453-11.593c-9.964-11.225-19.996-6.194-11.873,4.465
	c8.156,10.658-13.746,4.195-19.271,7.995c-5.459,3.796,3.751,9.424,16.015,9.492c12.267,0.068,22.723,4.263,25.158,12.091
	c2.465,7.862-10.062,6.76-12.793,7.828c-2.697,1.064-14.631,4.195-29.364-8.36c-14.766-12.49-23.646-7.93-19.272-1.968
	c6.509,8.796,3.913,12.091-2.731,12.626c-6.674,0.532-19.598-17.555-23.676-23.285c-4.044-5.727-23.316-30.839-29.562-24.946
	c-6.25,5.962,1.381,14.99,9.338,24.615c7.762,9.424,15.063,19.717,11.675,24.247c-3.354,4.563-16.015-9.458-24.171-16.187
	c-8.156-6.794-21.11-24.049-27.394-17.285c-6.314,6.726,14.275,24.847,14.406,30.075c0.064,5.229-10.984,6.361-18.12-0.665
	c-7.135-7.064-17.362-6.596-11.412,4.161c7.795,14.192-6.28,14.325-5.065,19.086c1.812,6.828,12.136,3.397,20.618-0.365
	c8.452-3.799,17.726-3.731,11.082,4.529c-6.708,8.261-16.143,19.618-7.923,21.716c8.189,2.098,32.653-23.616,42.025-26.013
	c9.439-2.432,6.415,4.297,0.232,11.323c-7.694,8.827-22.955,20.12-18.349,27.848c4.637,7.793,35.94-23.517,47.221-34.707
	c11.311-11.293,19.763-8.196,15.982-1.299c-3.815,6.893-11.015,16.153,1.579,12.49c12.594-3.629,21.177-16.822,28.017-17.654
	c6.839-0.866,27.165-8.793,29.96-1.432c0.492,1.299,1.084,3.332,1.313,5.297c-0.822,5.928-9.371,12.657-21.868,15.921
	c-14.402,3.762-14.567,15.089-1.512,12.657c13.055-2.432-2.664,14.39-1.876,21.085c0.791,6.627,9.965,0.965,15.685-10.062
	c5.725-11.023,14.173-18.452,22.164-17.019c8.058,1.364,1.283,12.125,0.987,15.089c-0.327,2.899-3.058,15.089-20.847,22.548
	c-17.756,7.463-17.857,17.62-10.621,16.422c10.718-1.767,12.43,2.029,9.799,8.291c-2.566,6.197-24.366,9.495-31.307,10.525
	c-6.873,0.999-37.752,6.794-35.418,15.123c2.303,8.325,13.779,5.628,25.882,2.964c11.738-2.664,24.171-4.495,26.602,0.634
	c2.468,5.096-15.686,10.024-25.353,14.188c-9.701,4.263-30.747,7.961-27.72,16.753c3.024,8.759,28.347-1.432,32.983,0.931
	c4.603,2.299,0.526,12.759-8.947,15.887c-9.469,3.199-13.81,12.592-1.61,12.258c16.015-0.498,9.668,12.224,14.402,13.291
	c6.775,1.531,8.617-9.328,9.176-18.687c0.559-9.359,4.933-17.684,9.075-7.828c4.176,9.761,9.765,23.517,15.389,17.122
	c5.56-6.429-5.688-40.236-3.452-49.861c2.202-9.56,6.674-3.731,10.032,5.027c4.176,11.027,7.034,29.912,15.981,29.38
	c8.944-0.6-4.078-43.135-8.715-58.456c-4.671-15.355,1.94-21.583,6.247-14.99c4.243,6.596,9.045,17.354,11.675,4.332
	c2.629-12.991-4.998-26.747-2.597-33.343c2.398-6.528,3.977-31.375,12.396-26.678c8.418,4.765,5.327,19.854,2.498,32.507
	c-2.859,12.691,8.682,22.749,10.096,10.761c0.461-3.632,2.468-20.086,9.701-4.164c7.203,15.822,17.366,18.486,17.955,5.061
	c0.593-13.387-11.574-31.409-10.358-39.799c0.067-0.566,0.131-1.102,0.263-1.565c5.263-6.129,11.806,3.728,13.877,6.76
	c1.647,2.398,9.011,13.854,7.961,29.809c-1.284,19.451,5.916,24.516,8.549,17.62c3.947-10.259,8.055-9.826,12.035-4.362
	c3.98,5.43-4.277,26.146-6.94,32.674c-2.664,6.494-13.449,36.372-5.162,38.602c8.288,2.2,11.806-9.158,15.655-21.116
	c3.714-11.624,8.516-23.315,14.106-22.848c5.59,0.464,0.559,18.718-0.788,29.342c-1.35,10.594-8.88,30.877,0.098,32.708
	c8.977,1.767,13.254-25.512,17.561-28.312c4.341-2.896,11.082,5.962,9.011,15.921c-2.138,9.826,3.65,18.387,9.567,7.561
	c7.728-14.257,15.291-2.196,18.615-5.829c4.768-5.13-3.553-12.19-11.213-17.487c-7.698-5.263-12.53-13.288-2.074-11.924
	c10.459,1.364,24.962,3.496,22.363-4.697c-2.63-8.094-37.125-15.488-44.099-22.282c-7.004-6.828,0.199-7.763,9.341-6.197
	c11.51,1.968,29.037,9.093,33.115,0.969c4.045-8.094-38.772-18.319-54.161-22.118c-15.392-3.728-17.298-12.657-9.57-13.056
	c7.792-0.365,19.369,0.935,9.668-8.025c-9.735-8.861-24.104-10.525-29.663-14.622c-6.738-4.997-24.696-19.485-16.44-24.383
	c8.317-4.928,19.564,5.43,28.936,14.356c9.342,8.926,23.743,3.963,14.305-3.329c-2.893-2.234-15.817-12.391,1.317-10.594
	c17.167,1.767,24.599-5.761,13.483-13.09c-7.3-4.83-19.009-5.863-28.05-7.527c-4.044-1.364-8.156-2.033-10.951-3.564
	c-0.034-0.065-0.098-0.065-0.131-0.133c-1.02-0.798-1.808-1.6-2.435-2.364c-0.296-0.6-0.525-1.265-0.593-2.033
	c-0.987-9.693,22.726-7.828,29.63-7.493c6.873,0.365,16.379,12.889,29.202,15.587c12.826,2.664,4.933-6.061,0.69-12.589
	c-4.273-6.596,3.947-10.293,16.049,0.065c12.035,10.392,45.48,39.305,49.558,31.211c4.044-8.094-11.971-18.22-20.322-26.481
	c-6.61-6.528-10.129-12.991-0.593-11.293c9.57,1.733,35.809,25.549,43.833,22.882c8.058-2.698-2.202-13.322-9.469-21.047
	c-7.237-7.729,2.007-8.527,10.752-5.365c8.681,3.165,19.272,5.764,20.555-1.132c0.886-4.894-13.156-3.929-6.381-18.684
	C804.324,334.815,794.094,335.115,787.487,342.676z M600.605,392.537c-12.467,8.261-29.138,4.799-37.358-7.793
	c-8.189-12.589-4.734-29.475,7.728-37.77c12.395-8.295,29.101-4.83,37.29,7.759C616.455,367.325,613,384.212,600.605,392.537z"/>
</svg>
