<?xml version="1.0" encoding="utf-8"?>
<!-- Generator: Adobe Illustrator 19.2.1, SVG Export Plug-In . SVG Version: 6.00 Build 0)  -->
<svg version="1.1" id="Capa_1" xmlns="http://www.w3.org/2000/svg" xmlns:xlink="http://www.w3.org/1999/xlink" x="0px" y="0px"
	 viewBox="0 0 1030.28 841.89" enable-background="new 0 0 1030.28 841.89" xml:space="preserve">
<g>
	<path fill="none" d="M299.883,320.366c1.36-2.81,4.13-4.86,7.49-5.15c5.06-0.44,9.529,3.31,9.979,8.37
		c0.25,3.02-0.97,5.85-3.09,7.71c0.76,1.31,1.41,2.701,1.91,4.17c1.77-0.771,3.51-1.57,5.23-2.39
		c12.37-5.891,24.54-12.361,36.49-19.04c9.68-5.4,19.3-11.04,29.06-16.42c-1.961-0.33-3.92-0.69-5.891-1.08
		c-7.67-1.54-15.29-3.29-23-4.6c-6.46-1.11-12.96-2.05-19.529-1.56c-10.881,0.81-21.091,5.02-29.381,12.13
		c-5.76,4.96-10.579,10.82-14.77,17.12c0.19,0,0.38,0,0.57,0.01C296.633,319.695,298.294,319.956,299.883,320.366z"/>
	<g>
		<path fill="none" d="M758.614,342.736c0.199-0.38,0.34-0.791,0.439-1.2C758.913,341.936,758.752,342.336,758.614,342.736z"/>
		<path fill="none" d="M752.784,357.327c0.359,0.21,0.76,0.359,1.209,0.47c0.23,0.05,0.471,0.1,0.711,0.12
			c-0.051-0.141-0.1-0.28-0.131-0.41l-0.69-0.07L752.784,357.327z"/>
		<path fill="none" d="M630.743,259.896c-0.619,0.47-1.24,0.9-1.859,1.28c0.06,0.07,0.141,0.13,0.199,0.2
			C630.083,260.526,630.663,259.956,630.743,259.896z"/>
		<path fill="none" d="M521.913,294.836c0.01-0.01,0.031-0.02,0.041-0.03l0.65-0.67c1.76-1.79,3.568-3.45,5.379-4.98
			c-8.199-8.1-18.959-12.97-30.15-15.43c-25.469-5.61-51.559-0.92-75.41,8.79c-10.029,4.09-19.699,8.9-29.219,14.02
			c12.279,1.62,24.52,1.8,36.959-0.18c22.971-3.65,46.141-14.18,69.76-9.04c7.32,1.59,14.301,4.8,19.771,9.93
			c0.229-0.27,0.459-0.52,0.69-0.78L521.913,294.836z"/>
		<path fill="none" d="M616.922,304.936c0,0.03-0.01,0.06-0.01,0.09c0.1-0.03,0.201-0.08,0.31-0.11
			C617.114,304.916,617.012,304.926,616.922,304.936z"/>
		<path fill="none" d="M707.044,271.406c-0.121,0.07-0.24,0.11-0.371,0.15c0.111,0.07,0.211,0.15,0.311,0.22
			C707.002,271.656,707.034,271.536,707.044,271.406z"/>
		<path fill="none" d="M581.983,431.711c-0.779,7.501,4.961,8.621,4.961,8.621s42.318,4.35,53.959,5.54
			c11.631,1.21,9.51-11.561,9.51-11.561l1.16-11.121c-6.18,0.86-12.68,0.81-18.879,0.17c-10.75-1.1-29.291-3.01-49.33-5.081v0.011
			C583.364,418.29,582.762,424.211,581.983,431.711z"/>
		<path fill="none" d="M518.694,432.26c0,0,43.44,4.46,49.068,5.05c5.641,0.58,6.391-8.23,6.391-8.23l1.201-11.621
			c-22.441-2.301-45.682-4.69-61.301-6.29c-0.041,0.29-0.699,6.85-1.4,13.671C511.932,431.82,518.694,432.26,518.694,432.26z"/>
		<path fill="#FEEEDB" d="M523.284,342.466c2.08,0.98,4.699,1.421,6.99,1.44c0.94,0.011,2.02,0.091,3.139,0.171
			c3.01,0.26,6.281,0.579,8-0.21c1.611-0.74,3.41-1.23,5.281-1.301c0.889-0.02,1.799,0.051,2.709,0.241
			c1.68-5.081,2.01-13.891,2.07-17.831l-2.6-0.42c-2.381-0.38-3.111-3.08-5.06-4.13c-1.141-0.62-2.529-0.83-3.859-1.04
			c-0.471-0.08-0.92-0.15-1.361-0.24c-0.219-0.04-0.44-0.08-0.66-0.12c-0.709-0.13-1.449-0.26-2.18-0.37
			c-0.16-0.04-0.34-0.06-0.5-0.08c-0.16-0.02-0.309-0.04-0.459-0.06c-0.461-0.05-0.92-0.11-1.381-0.14
			c-0.34-0.02-0.67-0.06-1.01-0.06c-0.119-0.01-0.25-0.02-0.369-0.01c-0.021,0-0.031,0-0.051,0h-1.061
			c-0.309,0.01-0.619,0.04-0.939,0.07h-0.01l-1.1,0.14c-1.42,0.24-2.82,0.7-3.941,1.43c-2.1,1.38-1.689,3.56-1.818,5.74
			c-0.01,0.09-0.021,0.181-0.021,0.271c0,0,0,0,0,0.01c-0.068,0.7-0.229,1.38-0.629,1.99c-0.301,0.449-0.721,0.81-0.93,1.31
			c-0.031,0.08-0.051,0.16-0.08,0.24c-0.4,1.32-0.131,3.02-0.272,4.361c-0.019,0.13-0.039,0.279-0.039,0.43
			C520.813,337.126,520.284,341.046,523.284,342.466z M531.813,322.126c0-0.04,0.01-0.08,0.01-0.13c0.031,0.16-0.02,0.3-0.119,0.4
			C531.762,322.316,531.803,322.236,531.813,322.126z"/>
		<path fill="#F8AE42" d="M773.813,277.046c-9.34-3.27-19.721-7.11-29.76-5.76c-4.291,0.58-8.73,2.3-12.621,4.74
			c-1.17,0.72-2.289,1.52-3.35,2.37c-0.83,0.66-1.619,1.36-2.35,2.09c-0.629,0.62-1.24,1.25-1.84,1.88
			c-3.051,3.22-5.85,6.66-8.41,10.29h-0.01c-2.17,3.07-4.15,6.26-5.98,9.54c-0.18,0.34-0.359,0.66-0.529,1
			c-3.471,6.58-5.721,13.72-10.82,19.34c-2.779,3.09-6.5,5.369-10.551,6.369c-7.049,1.761-15.109,0.211-22.359-0.68
			c-0.641-0.08-1.27-0.14-1.9-0.21c-2.58-0.27-5.17-0.57-7.77-0.89c-6.769-0.83-13.58-1.74-20.41-2.15
			c-0.18-0.01-0.35-0.03-0.529-0.03c-7.191-0.42-14.361-0.29-21.461,1.07c-0.74,0.15-1.49,0.29-2.231,0.46
			c-3.818,0.851-7.719,2.03-11.42,3.63c-3.52,1.49-6.859,3.361-9.779,5.611c-3.189,2.479-5.811,5.44-8.07,8.701
			c-3.15,4.5-5.619,9.53-7.949,14.49c-5.66,11.971-10.76,27.852-24.65,32.572c-4.289,1.441-9.73,2.05-14.23,1.59
			c-7.58-0.79-15.139-4.63-19.59-10.851c-5.439-7.62-4.299-15.701-4.35-24.471c0-1.561,0.029-3.13,0.051-4.721
			c0.238-10.65,1.01-21.751-3.602-31.541c-0.16-0.32-0.309-0.64-0.459-0.96c-4.211-8.29-11.561-15.29-21.02-16.68
			c-6.23-0.92-12.531,0.45-18.611,1.74c9.772-2.07,21.602,2.44,27.66,10.07c7.18,9.02,8.34,20.98,8.141,32.091
			c-0.26,16.291-4.381,38.462,13.379,48.022c4.74,2.55,10.922,4.18,16.231,4.73c4.051,0.42,7.951,0.64,12.041,0.229
			c17-1.71,29-17.52,38.129-30.381c6.58-9.26,12.371-21.111,23.92-24.861c17.861-5.8,35.271-3.38,53.58-2.29
			c5.441,0.33,10.9,0.41,16.34-0.159c5-0.521,9.861-1.801,14.5-3.741c4.451-1.88,10.141-4.21,13.861-7.351
			c4.559-3.84,8.84-8.21,11.82-13.429c0.299-0.51,0.578-1.04,0.85-1.57c7.209-14.34,17.279-29.1,34.41-32.15
			c2.41-0.44,5.02-0.58,7.689-0.47c1.209,0.04,2.42,0.14,3.641,0.28c3.609,0.42,7.18,1.23,10.279,2.3c4,1.38,11.19,8.4,14.92,2.99
			C793.163,283.376,777.092,278.186,773.813,277.046z"/>
		<path fill="#BD222F" d="M745.012,319.326c-0.568,5.55-8.699,5.23-10.709,5.06l5.981,0.62l34.17,3.51l6.43,0.66
			c-11.49-1.18-10.83-7.28-10.83-7.28l-1.48-0.15l-21.359-2.2L745.012,319.326z"/>
		<polygon fill="#16A696" points="740.284,325.055 741.294,326.876 748.614,327.635 764.672,329.275 772.864,330.126 
			774.444,328.576 774.454,328.515 740.284,325.006 		"/>
		<path fill="#F8AE42" d="M758.983,364.008l2.65-0.28l2.43-0.26l8.801-33.342l-8.191-0.851L758.983,364.008z M771.733,330.996
			l-8.02,30.372l-3.4,0.079l5.6-31.051L771.733,330.996z"/>
		<polygon fill="#FFFFFF" points="763.713,361.367 771.733,330.996 765.913,330.395 760.313,361.447 		"/>
		<path fill="#16A696" d="M754.374,314.166c-5.56,1.04-7.16,5.38-7.16,5.38l21.359,2.2c-0.02-0.13-0.619-4.67-5.9-6.78
			c-1.109-0.44-2.439-0.78-4.01-0.94C757.024,313.856,755.614,313.936,754.374,314.166z"/>
		<path fill="#F39424" d="M758.983,364.008l5.689-34.732l-16.059-1.64l-0.021,35.302L758.983,364.008z M749.963,357.037
			l0.379-28.242l12.141,1.26l-4.01,27.851l-0.48,3.301l-8.08-0.83L749.963,357.037z"/>
		<path fill="#F39424" d="M757.624,305.536c0.529-0.2,1.16-0.28,1.859-0.2c0.67,0.07,1.279,0.29,1.76,0.59l2.201-21.32
			c-1.221-0.14-2.432-0.24-3.641-0.28L757.624,305.536z"/>
		<path fill="#BD222F" d="M754.534,312.716l-0.16,1.45c1.24-0.23,2.65-0.31,4.289-0.14c1.57,0.16,2.9,0.5,4.01,0.94l0.141-1.4
			l-0.91-0.1l-6.48-0.67L754.534,312.716z"/>
		<path fill="#FFFFFF" d="M750.954,351.627c1.24-3.44,6.029-5.63,7.66-8.891c0.139-0.4,0.299-0.8,0.439-1.2
			c-0.1,0.409-0.24,0.819-0.439,1.2c-1.061,2.91-2.021,5.98-1.311,9.101c0.43,1.741,0.6,4.46-1.211,5.831l2.381,0.239l4.01-27.851
			l-12.141-1.26l-0.379,28.242l2.82,0.29C750.663,356.117,750.313,353.457,750.954,351.627z"/>
		<path fill="#BD222F" d="M757.624,305.536c-0.76,0.28-1.291,0.79-1.35,1.41c-0.07,0.66,0.389,1.3,1.148,1.72
			c0.451,0.26,1.031,0.45,1.66,0.51c0.631,0.06,1.221,0,1.73-0.16c0.82-0.27,1.4-0.8,1.471-1.45c0.049-0.63-0.352-1.22-1.041-1.64
			c-0.48-0.3-1.09-0.52-1.76-0.59C758.784,305.256,758.153,305.336,757.624,305.536z"/>
		<path fill="#16A696" d="M759.083,309.176c-0.629-0.06-1.209-0.25-1.66-0.51c-0.029,0.3-0.068,0.74-0.139,1.35
			c-0.211,2-1.711,2.02-1.771,2.02l-0.09,0.76l6.48,0.67l0.09-0.77c0,0-1.529-0.29-1.32-2.33c0.061-0.62,0.102-1.06,0.141-1.35
			C760.303,309.176,759.713,309.236,759.083,309.176z"/>
		<path fill="#BD222F" d="M748.592,362.937l-2.69-0.83l0.76,2.05c0,0,1.31,2.12,6.48,2.65c5.16,0.521,7.26-1.38,7.26-1.38l1.231-1.7
			l-2.65,0.28L748.592,362.937z"/>
		<path fill="#16A696" d="M758.473,357.906l-2.381-0.239l-1.519-0.16c0.031,0.13,0.08,0.27,0.131,0.41
			c-0.24-0.021-0.481-0.07-0.711-0.12c-0.449-0.11-0.85-0.26-1.209-0.47l-2.82-0.29l-0.051,3.34l8.08,0.83L758.473,357.906z"/>
		<path fill="#EB5C2C" d="M757.303,351.837c-0.711-3.12,0.25-6.19,1.311-9.101c-1.631,3.261-6.42,5.45-7.66,8.891
			c-0.641,1.831-0.291,4.491,1.83,5.701l1.1,0.109c-0.51-1.79-0.52-3.42-0.051-5.01c0.041-0.17,0.221-0.271,0.381-0.22
			c0.17,0.05,0.279,0.229,0.209,0.39c-0.439,1.55-0.41,3.13,0.15,4.911l1.519,0.16C757.903,356.297,757.733,353.577,757.303,351.837
			z"/>
		<path d="M754.422,352.596c0.07-0.16-0.039-0.34-0.209-0.39c-0.16-0.051-0.34,0.05-0.381,0.22c-0.469,1.59-0.459,3.22,0.051,5.01
			l0.69,0.07C754.012,355.727,753.983,354.147,754.422,352.596z"/>
		<path fill="#F8AE42" d="M748.614,327.635l-7.32-0.76l2.16,34.461l2.449,0.77l2.69,0.83L748.614,327.635z M744.083,359.277
			l-2.1-31.332l5.26,0.54l0.439,31.671L744.083,359.277z"/>
		<polygon fill="#FFFFFF" points="741.983,327.945 744.083,359.277 747.682,360.156 747.243,328.485 		"/>
		<path fill="#16A696" d="M734.743,250.896l0.041,0.04c0.219,0.44,0.42,0.89,0.58,1.36l0.119,0.65c0.019,0.17,0.029,0.34,0.041,0.5
			c2.369-0.61,5.289,0.38,7.369,1.42c0.211-1.68,0.039-3.41-0.449-5.12c-0.131-0.43-0.291-0.86-0.471-1.27h-0.019
			C739.973,248.356,735.944,249.156,734.743,250.896z"/>
		<path fill="#BD222F" d="M732.694,249.226c0.809,0.51,1.369,1,2.049,1.67c1.201-1.74,5.23-2.54,7.211-2.42
			c-0.92-2.04-2.541-3.69-4.391-4.98C735.163,244.676,733.454,246.716,732.694,249.226z"/>
		<path fill="#BD222F" d="M735.524,253.446c0.01,0.06,0,0.1,0,0.15l-0.012,0.02c-0.09,0.95-0.318,1.59-0.898,2.33
			c-0.271,0.36-0.471,0.73-0.611,1.14c2.981-0.33,5.271,0.76,7.291,2.39c0.869-1.44,1.4-3,1.6-4.61
			C740.813,253.826,737.893,252.836,735.524,253.446z"/>
		<path fill="#16A696" d="M734.002,257.086c-0.49,1.46-0.08,3.14,1.211,4.16c1.58,1.27,4.01,1.03,5.27-0.59
			c0.301-0.38,0.57-0.77,0.811-1.18C739.274,257.846,736.983,256.756,734.002,257.086z"/>
		<path fill="#16A696" d="M730.544,248.786l0.01,0.04c0.141-0.03,0.279-0.04,0.43-0.05c0.48,0.04,0.98,0.15,1.439,0.29l0.271,0.16
			c0.76-2.51,2.469-4.55,4.869-5.73c-0.5-0.35-1.029-0.68-1.551-0.98c-1.27-0.7-2.75-1.12-4.25-1.22
			C729.903,243.336,730.143,246.186,730.544,248.786z"/>
		<path fill="#A97D50" d="M651.573,423.19l-1.16,11.121c0,0,2.121,12.771-9.51,11.561c-11.641-1.19-53.959-5.54-53.959-5.54
			s-5.74-1.12-4.961-8.621c0.779-7.5,1.381-13.42,1.381-13.42v-0.011c-2.66-0.27-5.33-0.54-8.01-0.819l-1.201,11.621
			c0,0-0.75,8.81-6.391,8.23c-5.629-0.59-49.068-5.05-49.068-5.05s-6.762-0.44-6.041-7.42c0.701-6.821,1.359-13.381,1.4-13.671
			c-2.949-0.311-5.65-0.59-8.01-0.83c0.049,0.49,2.029,23.441-21.5,21.021c-5.471-0.569-11.24-1.67-16.34-3.75
			c-6.84-2.779-13.31-8.26-17.051-14.661c-3.59-6.14-2.789-14.001-1.26-20.641c1.27-5.46,3.77-9.88,6.881-14.48
			c2.949-4.381,5.859-9.051,5.539-14.541c-0.34-5.821-5.82-7.231-10.801-7.571c-0.398-0.03-0.789-0.05-1.17-0.061
			c-0.35-0.01-0.719-0.02-1.09-0.02c-0.879,0-1.809,0.04-2.74,0.16c-2.398,0.3-4.77,1.109-6.148,3.02
			c-1.311,1.801-1.141,4.111-0.602,6.151c0.23,0.82,0.852,1.8,1.391,2.44c0.801-0.75,1.08-2.02,1.859-2.85
			c3.16-3.331,11.471-1.24,11.512,3.8c0.01,3.011-2.32,5.641-4.352,7.581c-9.01,8.521-11.068,19.161-10.68,31.152
			c0.23,6.57,2.09,13.09,6.43,18.211c4.82,5.72,13.09,8.34,20.09,10.17c10.141,2.65,20.842,3.439,31.23,4.5
			c26.641,2.75,238.43,24.531,238.43,24.531l0.73-6.971l-64.67-6.649c0,0-12.189,1.608-10.85-11.321
			c1.24-11.98,1.641-17.951,1.69-18.751c-3.469,1.02-6.959,1.78-10.41,2.3C651.973,423.131,651.774,423.171,651.573,423.19z"/>
		<path fill="#BD222F" d="M724.774,244.286c0.279,2.23,2,3.63,3.539,5.22c0.721-0.38,1.449-0.61,2.24-0.68l-0.01-0.04
			c-0.4-2.6-0.641-5.45,1.219-7.49c-2.1-0.19-4.25,0.2-6.02,1.12c-0.33,0.18-0.66,0.36-0.969,0.56
			C724.723,243.446,724.723,243.885,724.774,244.286z"/>
		<path fill="#FFFFFF" d="M652.483,267.756c8.93,3.62,15.971-8,28.519-3.58c4.541,1.6,11.441,4.44,18.371,7.39
			c0.5,0.22,1.02,0.43,1.51,0.64c1.9,0.82,3.769,1.64,5.609,2.42c0.4,0.19,0.801,0.37,1.201,0.53
			c8.898,3.91,16.199,7.21,16.199,7.21c0.6-0.63,1.211-1.26,1.84-1.88c0.73-0.73,1.519-1.43,2.35-2.09
			c1.061-0.85,2.18-1.65,3.35-2.37c-0.658-0.95-2.488-2.33-5.148-3.97c-2.92-1.82-6.82-3.94-11.201-6.14
			c-1.309-0.67-2.67-1.34-4.059-2.01c-0.82-0.4-1.65-0.79-2.471-1.18c-0.131-0.06-0.269-0.13-0.391-0.19
			c-1.129-0.53-2.27-1.06-3.41-1.57c0.32,0.03,0.621,0.06,0.92,0.06c1.221,0.06,2.381-0.13,3.271-0.62
			c0.309-1.82,0.629-3.63,0.94-5.45c-0.49,0.28-1.07,0.47-1.721,0.56c-1.949,0.31-4.35-0.17-5.809-1.05l-0.021,0.01
			c-0.129,0.8-0.279,1.61-0.42,2.42c-0.15,0.87-0.299,1.73-0.449,2.59c-3.65-1.62-7.301-3.15-10.73-4.49
			c-2.459-0.96-4.82-1.83-6.971-2.56c-0.26-0.09-0.52-0.18-0.77-0.26c-3.719-1.24-8.061-2-12.119-2.17
			c-0.74-0.04-1.471-0.05-2.191-0.04c-5.478,0.05-10.26,2.12-14.389,5.68c-2.211,1.88-5.471,5.94-4.791,9.06
			C649.784,265.936,650.663,267.006,652.483,267.756z M707.044,271.406c-0.01,0.13-0.041,0.25-0.061,0.37
			c-0.1-0.07-0.199-0.15-0.311-0.22C706.803,271.516,706.922,271.476,707.044,271.406z"/>
		<path fill="#16A696" d="M725.444,252.936c0.91-1.17,1.789-2.37,2.83-3.39l0.029-0.03c0,0,0-0.01,0.01-0.01
			c-1.539-1.59-3.26-2.99-3.539-5.22c-0.051-0.4-0.051-0.84,0-1.31c-1.32,0.81-2.42,1.82-3.41,3.05
			c-0.281,0.35-0.57,0.72-0.852,1.06v0.01C721.044,249.806,723.323,251.436,725.444,252.936z"/>
		<path fill="#F8AE42" d="M718.114,262.135c-0.641,0.8-1.271,1.59-1.9,2.38c-0.381,0.46-0.74,0.93-1.131,1.4
			c4.381,2.2,8.281,4.32,11.201,6.14c0.879-1.57,1.289-3.42,1.049-5.34c-0.479-3.82-3.369-6.74-6.949-7.42
			c-0.24,0.31-0.49,0.61-0.731,0.92C719.143,260.866,718.624,261.496,718.114,262.135z"/>
		<path fill="#BD222F" d="M722.614,256.506c0.729-0.9,1.449-1.8,2.16-2.71c0.238-0.28,0.459-0.58,0.67-0.86
			c-2.121-1.5-4.4-3.13-4.932-5.84c-1.27,1.58-2.51,3.14-3.77,4.71C717.544,253.916,720.374,256.176,722.614,256.506z"/>
		<path fill="#16A696" d="M717.663,259.216c0.67,0.45,1.35,0.8,1.99,1c0.24-0.31,0.49-0.61,0.731-0.92
			c0.75-0.93,1.48-1.86,2.23-2.79c-2.24-0.33-5.07-2.59-5.871-4.7c-0.83,1.02-1.65,2.06-2.48,3.09
			C714.614,256.486,716.073,258.135,717.663,259.216z"/>
		<path fill="#BD222F" d="M646.762,282.966c0.561-4.11-4.5-9.52-4.779-9.82c6.529,11.92-5.66,22.24-5.66,22.24
			c2.519-3.87,0.301-11.12,0.301-11.12c-1.019,5.53-3.75,9.91-7.451,13.36c12.861,0.05,25.791,1.75,38.51,3.08
			c0.4-1.12,0.871-1.95,1.361-2.57c-2.641-1.7-4.26-4.79-3.91-8.14c0.48-4.75,4.73-8.2,9.471-7.71c4.738,0.49,8.199,4.74,7.709,9.48
			c-0.359,3.56-2.869,6.41-6.1,7.37c0.209,0.61,0.299,1.34,0.279,2.13c22.42,0.31,38.189-8.18,38.98-8.61h0.01
			c2.561-3.63,5.359-7.07,8.41-10.29c0,0-7.301-3.3-16.199-7.21c-0.4-0.16-0.801-0.34-1.201-0.53c-1.84-0.78-3.709-1.6-5.609-2.42
			c-0.49-0.21-1.01-0.42-1.51-0.64c-6.93-2.95-13.83-5.79-18.371-7.39c-12.549-4.42-19.59,7.2-28.519,3.58
			c-1.82-0.75-2.699-1.82-2.981-3.05c-1.199,0.61-2.34,1.25-3.43,1.93C649.063,273.616,646.874,282.546,646.762,282.966z"/>
		<path fill="#BD222F" d="M712.383,261.926c1.06,1.16,2.5,2.13,3.82,2.58l0.01,0.01c0.629-0.79,1.26-1.58,1.9-2.38
			c0.51-0.64,1.029-1.27,1.539-1.92c-0.641-0.2-1.32-0.55-1.99-1c-1.59-1.08-3.049-2.73-3.4-4.32c-1.139,1.43-2.279,2.87-3.439,4.29
			l0.019,0.01C711.034,260.146,711.604,261.096,712.383,261.926z"/>
		<path fill="#16A696" d="M705.034,331.945c-3.721,3.141-9.41,5.471-13.861,7.351c-4.639,1.939-9.5,3.22-14.5,3.741
			c-5.439,0.569-10.898,0.489-16.34,0.159c-18.309-1.09-35.719-3.51-53.58,2.29c-11.549,3.75-17.34,15.601-23.92,24.861
			c-9.129,12.861-21.129,28.671-38.129,30.381c-4.09,0.41-7.99,0.191-12.041-0.229c-5.309-0.551-11.49-2.181-16.231-4.73
			c-17.76-9.56-13.639-31.731-13.379-48.022c0.199-11.111-0.961-23.071-8.141-32.091c-6.059-7.63-17.889-12.14-27.66-10.07
			l-0.699,0.09c-3.621,0.46-22.291,3.75-24.561,23.56c-1.139,9.96,3.471,14.701,8.84,16.911c0.461,0.19,0.93,0.36,1.4,0.51
			c6.131,2.011,12.68,1.141,12.68,1.141c-4.59-4.92-8.52-11.29-8.449-18.231c0.061-5.94,3.209-12.73,9.209-14.469
			c4.771-1.4,11.41,0.28,14.92,3.95c2.4,2.49,3.98,6.28,4.32,9.68c0.06,0.521,0.09,1.021,0.1,1.54
			c0.201,6.01-1.76,12.331-4.09,17.731c-3.359,7.77-6.92,15.371-9.459,23.471c-1.83,5.821-3.201,13.291-1.84,19.351
			c2.379,10.551,15.65,17.371,25.709,18.411c0.031,0.01,4.031,0.42,10.711,1.11c2.359,0.24,5.061,0.52,8.01,0.83
			c15.619,1.6,38.859,3.99,61.301,6.29c2.68,0.279,5.35,0.55,8.01,0.819c20.039,2.07,38.58,3.98,49.33,5.081
			c6.199,0.641,12.699,0.69,18.879-0.17c0.201-0.02,0.4-0.06,0.59-0.08c3.451-0.52,6.941-1.28,10.41-2.3
			c12.519-3.68,24.519-10.73,31.75-21.521c5.859-8.781,9.32-19.121,12.519-29.102c2.531-7.951,3.971-16.22,5.691-24.371
			c1.92-9.05,3.16-18.11,4.34-27.29l-0.019-0.01C713.874,323.735,709.592,328.105,705.034,331.945z"/>
		<path fill="#16A696" d="M711.024,263.906c1.389,0.67,2.75,1.34,4.059,2.01c0.391-0.47,0.75-0.94,1.131-1.4l-0.01-0.01
			c-1.32-0.45-2.76-1.42-3.82-2.58c-0.779-0.83-1.35-1.78-1.541-2.73l-0.019-0.01c-0.66,0.84-1.33,1.69-2,2.52
			c-0.049,0.06-0.1,0.12-0.129,0.17c-0.051,0.27-0.111,0.56-0.141,0.85C709.374,263.116,710.204,263.506,711.024,263.906z"/>
		<path fill="#046A39" d="M711.583,245.126c0.08-0.46,0.15-0.9,0.24-1.35c0.26-1.56,0.291-3.05,0.031-4.58
			c-1.031,1.14-2.172,1.58-3.381,1.74c-1.24,0.15-2.541,0-3.869-0.06c0,0,0.01,0.01,0.01,0.02v0.05c-0.08,1.44-0.391,2.91-0.67,4.35
			C706.483,245.896,709.204,246.526,711.583,245.126z"/>
		<path fill="#FFFFFF" d="M708.473,240.936c1.209-0.16,2.35-0.6,3.381-1.74c-0.06-0.37-0.141-0.72-0.231-1.09
			c-0.49-1.94-1.631-3.79-3.141-5.25c-0.16,1.36-0.82,2.48-1.699,3.43c-0.891,0.95-2.01,1.73-3.121,2.45
			c0.461,0.64,0.76,1.34,0.941,2.14C705.932,240.936,707.233,241.086,708.473,240.936z"/>
		<path fill="#FFFFFF" d="M710.553,251.076c0.35-1.99,0.69-3.97,1.029-5.95c-2.379,1.4-5.1,0.77-7.639,0.17
			c-0.08,0.35-0.141,0.72-0.201,1.07c-0.19,1.14-0.4,2.28-0.6,3.42C704.883,251.246,708.422,251.856,710.553,251.076z"/>
		<path fill="#F39424" d="M676.493,301.266c0.02-0.79-0.07-1.52-0.279-2.13c3.23-0.96,5.74-3.81,6.1-7.37
			c0.49-4.74-2.971-8.99-7.709-9.48c-4.74-0.49-8.99,2.96-9.471,7.71c-0.35,3.35,1.269,6.44,3.91,8.14
			c-0.49,0.62-0.961,1.45-1.361,2.57c-12.719-1.33-25.648-3.03-38.51-3.08c-0.49-0.01-0.99,0-1.479,0
			c-3.58,0.03-7.141,0.18-10.701,0.51c-0.061-0.61-0.16-1.29-0.289-1.98c2.35-1.34,4.039-3.74,4.33-6.64
			c0.289-2.7-0.711-5.25-2.51-7.02c-1.352-1.33-3.15-2.24-5.182-2.45c-0.68-0.07-1.35-0.06-2,0.02c-0.229,0.03-0.459,0.07-0.68,0.12
			c-0.231,0.05-0.44,0.11-0.66,0.17c-0.199,0.06-0.398,0.13-0.6,0.2c-2.971,1.13-5.189,3.83-5.539,7.2
			c-0.021,0.2-0.041,0.39-0.031,0.58c-0.139,3.54,1.92,6.73,5.01,8.14c-0.18,0.97-0.269,1.95-0.33,2.83
			c-4.6,0.88-9.1,2.2-13.42,4.03c-2.629,1.12-5.17,2.54-6.779,4.98c-0.391,0.58-0.83,1.31-1.23,2.11
			c-1.619,3.21-2.75,7.54,1.451,8.35c1.729,0.35,3.209-0.17,4.5-1.09c1.199-0.84,2.26-2.02,3.189-3.12c1.801-2.14,3.6-4.1,5.94-5.57
			c0,0,0,0,0.01,0c0.34-0.22,0.691-0.41,1.051-0.6c1.44-0.76,2.949-1.37,4.51-1.85c-0.09,0.46-0.189,0.92-0.301,1.4
			c-1.809,8.22-5.699,18.54-7.92,22.16c3.701-1.6,7.602-2.779,11.42-3.63c2.481-6.7,5.211-14.12,5.981-21.45
			c0-0.03,0.01-0.06,0.01-0.09c0.09-0.01,0.191-0.02,0.301-0.02c1.981-0.15,3.959-0.21,5.891-0.24c1.66-0.03,3.318-0.04,4.969-0.08
			c1.521-0.03,3.041-0.04,4.561-0.05c11.16-0.12,22.34,0.12,33.289,2.37c-2.59,7.83-7.75,17.899-10.369,20.21
			c2.6,0.319,5.189,0.62,7.77,0.89c0.631,0.07,1.26,0.13,1.9,0.21c0,0,6.859-11.129,9.881-20.18c4.029,0.11,8.068-0.22,12.129-0.72
			c7.291-0.88,14.59-2.31,21.721-4.13c0.17-0.34,0.35-0.66,0.529-1c1.83-3.28,3.81-6.47,5.98-9.54
			C714.682,293.086,698.913,301.576,676.493,301.266z"/>
		<path fill="#046A39" d="M702.354,254.466c1.459,0.88,3.859,1.36,5.809,1.05c0.65-0.09,1.23-0.28,1.721-0.56
			c0.23-1.29,0.449-2.59,0.67-3.88c-2.131,0.78-5.67,0.17-7.41-1.29c-0.17,1.04-0.35,2.09-0.539,3.13
			c-0.102,0.52-0.182,1.04-0.271,1.56L702.354,254.466z"/>
		<path fill="#046A39" d="M704.752,260.966c1.141,0.51,2.281,1.04,3.41,1.57c0.121,0.06,0.26,0.13,0.391,0.19
			c0.029-0.29,0.09-0.58,0.141-0.85c0.08-0.5,0.17-0.99,0.25-1.47c-0.891,0.49-2.051,0.68-3.271,0.62
			C705.374,261.026,705.073,260.996,704.752,260.966z"/>
		<path fill="#046A39" d="M708.483,232.856c-1.08-1.06-2.379-1.88-3.74-2.37c-0.58-0.2-1.16-0.36-1.75-0.51
			c0.689,2.6,0.301,5.21-1.07,7.45c0.08,0.02,0.17,0.04,0.25,0.07l0.041,0.01c0.42,0.27,0.82,0.55,1.18,0.9l0.02,0.01
			c0.09,0.1,0.18,0.21,0.25,0.32c1.111-0.72,2.23-1.5,3.121-2.45C707.663,235.336,708.323,234.216,708.483,232.856z"/>
		<path fill="#BD222F" d="M675.114,308.046c-3.021,9.05-9.881,20.18-9.881,20.18c7.25,0.891,15.311,2.44,22.359,0.68
			c4.051-1,7.771-3.279,10.551-6.369c5.1-5.62,7.35-12.76,10.82-19.34c-7.131,1.82-14.43,3.25-21.721,4.13
			C683.182,307.826,679.143,308.156,675.114,308.046z"/>
		<path fill="#FFFFFF" d="M702.993,229.976c-2.19-0.54-4.51-0.65-6.66,0.01c1.42,1.4,3.49,4.96,2.971,7.01
			c0.859,0.04,1.779,0.2,2.619,0.43C703.294,235.186,703.682,232.576,702.993,229.976z"/>
		<path fill="#16A696" d="M701.463,259.486c0.15-0.86,0.299-1.72,0.449-2.59c0.141-0.81,0.291-1.62,0.42-2.42
			c0.09-0.52,0.17-1.04,0.271-1.56l-8.83-3.32l-3.041,5.4C694.163,256.336,697.813,257.866,701.463,259.486z"/>
		<path fill="#046A39" d="M696.333,229.986c-0.42,0.12-0.85,0.29-1.26,0.48c-1.609,0.76-3,1.79-4.129,3.05
			c2.148,0.88,4.818,2.41,5.949,4.58c0.119-0.1,0.25-0.22,0.391-0.31l0.559-0.34c0.461-0.2,0.932-0.34,1.4-0.46l0.06,0.01
			C699.823,234.946,697.752,231.385,696.333,229.986z"/>
		<path fill="#FFFFFF" d="M690.944,233.516c-1.08,1.22-1.9,2.64-2.4,4.25c1.279,0.21,2.5,0.58,3.619,1.18
			c1.121,0.62,2.131,1.47,3,2.69c0.221-0.36,0.361-0.76,0.43-1.18c0.191-0.96,0.521-1.55,1.17-2.24v-0.02
			c0.041-0.03,0.07-0.07,0.131-0.1C695.762,235.926,693.092,234.396,690.944,233.516z"/>
		<path fill="#046A39" d="M690.733,254.996l3.041-5.4l-4.291-1.63l-0.061-0.02l-0.139-0.05h-0.01l-0.281-0.1l-2.19-0.83l-3.041,5.47
			C685.913,253.166,688.274,254.036,690.733,254.996z"/>
		<path fill="#046A39" d="M692.163,238.946c-1.119-0.6-2.34-0.97-3.619-1.18c-0.15,0.46-0.27,0.91-0.35,1.39
			c-0.34,1.82,0.789,3.6,2.459,4.2c0.09,0.04,0.19,0.06,0.311,0.09c0.039,0.01,0.09,0.03,0.141,0.03
			c0.029,0.01,0.059,0.02,0.078,0.02c0.022,0.01,0.051,0.02,0.08,0.02c1.602,0.27,3.141-0.55,3.9-1.88
			C694.294,240.416,693.284,239.566,692.163,238.946z"/>
		<path fill="#FFFFFF" d="M682.893,230.116c0.939,0.26,1.93,0.35,2.939,0.23c4.08-0.51,6.971-4.24,6.461-8.31
			c-0.51-4.08-4.24-6.97-8.311-6.45c-4.07,0.51-6.959,4.22-6.439,8.3c0.019,0.2,0.049,0.41,0.09,0.61
			C678.213,227.246,680.294,229.376,682.893,230.116z"/>
		<path fill="#16A696" d="M683.762,252.436l3.041-5.47l-12.16-4.56l-3.76,7.34l-0.01,0.26c4.059,0.17,8.4,0.93,12.119,2.17
			C683.243,252.256,683.502,252.346,683.762,252.436z"/>
		<path fill="#BD222F" d="M640.073,236.086c2.439,2.78,4.939,5.67,6.701,8.95c23.699-1.95,32.729-9.25,36.119-14.92
			c-2.6-0.74-4.68-2.87-5.26-5.62c-6.06,0.37-15.01-1.13-23.041-10.46c-13.818-16.07-47.979-8.47-47.979-8.47
			c5.59,2.2,10.52,8.05,14.469,11.68C627.663,223.256,634.133,229.446,640.073,236.086z"/>
		<path fill="#BD222F" d="M632.643,304.546c3.27,8.6,2.51,20.43,2.51,20.43c6.83,0.41,13.641,1.32,20.41,2.15
			c2.619-2.31,7.779-12.38,10.369-20.21C654.983,304.666,643.803,304.426,632.643,304.546z"/>
		<path fill="#E6282B" d="M632.643,304.546c-1.52,0.01-3.039,0.02-4.561,0.05c-1.65,0.04-3.309,0.05-4.969,0.08
			c-1.932,0.03-3.91,0.09-5.891,0.24c-0.109,0.03-0.211,0.08-0.31,0.11c-0.77,7.33-3.5,14.75-5.981,21.45
			c0.74-0.17,1.49-0.31,2.231-0.46c7.1-1.36,14.269-1.49,21.461-1.07c0.18,0,0.35,0.021,0.529,0.03
			C635.153,324.975,635.913,313.146,632.643,304.546z"/>
		<path fill="#F2F2F2" d="M570.294,253.556c1.73,3.94,6.889,6.88,19.25,5.75c0.039,0.01,0.08,0,0.129,0
			c3.932,9.88,9.881,13.14,16.051,13.14c1,0,2.01-0.08,3.01-0.24c0.141-0.02,0.301-0.04,0.449-0.07
			c0.262-0.04,0.531-0.09,0.781-0.15c8.09-1.72,15.84-7.75,19.119-10.61c-0.059-0.07-0.139-0.13-0.199-0.2
			c-14.16,9.07-26.291-2.52-26.731-2.95c-2.449,1.29-6.029,1.37-9.51-0.02c-1.26-0.51-2.4-1.16-3.391-1.92
			c-2.41-1.87-3.85-4.34-3.84-6.68l-0.049,0.01c-6.76,0.65-9.83-2.33-11.23-5.28c-1.221-2.59-1.141-5.15-1.141-5.15
			s-2.619,4.11-3.27,8.63C569.432,249.756,569.512,251.766,570.294,253.556z"/>
		<path d="M607.682,244.736l0.391,0.21l8.58,4.8c0.201,0.12,0.44,0.16,0.68,0.13c0.33-0.04,0.65-0.24,0.83-0.57
			c0.09-0.15,0.141-0.33,0.15-0.5c0-0.4-0.199-0.8-0.58-1.01l-8.971-5.01c-0.539-0.3-1.199-0.11-1.52,0.43
			C606.954,243.756,607.153,244.436,607.682,244.736z"/>
		<path fill="#FFFFFF" d="M556.323,275.506c0.16,4.07-0.44,6.91-5.289,9.05l5.709-0.72c0,0-0.92,10.54-9.219,11.61l7.01-0.88
			c0,0-4.031,2.23-7.99,1.98c0,0,1.799,2.98,5.98,5.98c6.219,4.46,17.719,8.94,36.449,3.68l-5.279,4.22c0,0,1.26,0.04,3.389,0
			c0.4-0.8,0.84-1.53,1.23-2.11c1.609-2.44,4.15-3.86,6.779-4.98c4.32-1.83,8.82-3.15,13.42-4.03c0.061-0.88,0.15-1.86,0.33-2.83
			c-3.09-1.41-5.148-4.6-5.01-8.14c-0.01-0.19,0.01-0.38,0.031-0.58c0.35-3.37,2.568-6.07,5.539-7.2c0.201-0.07,0.4-0.14,0.6-0.2
			c0.221-0.06,0.43-0.12,0.66-0.17c0.221-0.05,0.451-0.09,0.68-0.12c0.65-0.08,1.32-0.09,2-0.02c2.031,0.21,3.83,1.12,5.182,2.45
			c1.799,1.77,2.799,4.32,2.51,7.02c-0.291,2.9-1.981,5.3-4.33,6.64c0.129,0.69,0.228,1.37,0.289,1.98
			c3.56-0.33,7.121-0.48,10.701-0.51c0.488,0,0.988-0.01,1.479,0c3.701-3.45,6.432-7.83,7.451-13.36c0,0,2.219,7.25-0.301,11.12
			c0,0,12.189-10.32,5.66-22.24c0.279,0.3,5.34,5.71,4.779,9.82c0.111-0.42,2.301-9.35-0.689-16.33c-0.9-2.12-2.289-4.07-4.34-5.55
			c0.881-0.62,1.721-1.31,2.49-2c4.369-3.89,5.459-8.57,2.551-14.05c-1.762-3.28-4.262-6.17-6.701-8.95
			c-5.94-6.64-12.41-12.83-18.99-18.84c-3.949-3.63-8.879-9.48-14.469-11.68c-1.891-0.74-3.881-1.07-5.92-0.72
			c-5.871,0.97-11.16,5.99-14.74,10.47c-7.861,9.81-1.85,13.83-1.85,13.83s3.269-3.3,3.619-3.59c1.15-0.95,2.42-1.76,3.811-2.3
			c10.43-4.09,19.539,4.66,24.299,13c2.061,3.59,3.58,7.46,5.301,11.21c0.24,0.5,0.471,1,0.709,1.49
			c1.762,3.66,4.031,9.17,7.041,12.22c0.619-0.38,1.24-0.81,1.859-1.28c-0.08,0.06-0.66,0.63-1.66,1.48
			c-3.279,2.86-11.029,8.89-19.119,10.61c-0.25,0.06-0.52,0.11-0.781,0.15c-0.148,0.03-0.309,0.05-0.449,0.07
			c-1,0.16-2.01,0.24-3.01,0.24c-6.17,0-12.119-3.26-16.051-13.14c-0.049,0-0.09,0.01-0.129,0c-12.361,1.13-17.52-1.81-19.25-5.75
			c-0.781-1.79-0.861-3.8-0.57-5.74c-0.33-0.06-5.82-1.02-9.84,5.08c-1.09,1.66-2.06,3.85-2.801,6.73
			C555.342,266.396,556.182,271.536,556.323,275.506z"/>
		<path fill="#FFFFFF" d="M607.733,306.546c-1.561,0.48-3.07,1.09-4.51,1.85c-0.359,0.19-0.711,0.38-1.051,0.6
			c1.721-0.29,3.49-0.63,5.26-1.05C607.544,307.466,607.643,307.006,607.733,306.546z"/>
		<path fill="#BD222F" d="M604.864,255.336c0.549-1.39,0.469-2.91-0.121-4.4c-1-2.45-3.44-4.79-6.719-6.11
			c-1.621-0.64-3.25-0.97-4.771-1c-0.119-0.01-0.229-0.01-0.34-0.01c-0.07,0-0.139,0-0.209,0c-0.1,0.01-0.201,0.01-0.311,0.02
			c-3.109,0.12-5.66,1.5-6.6,3.85c-0.25,0.62-0.371,1.26-0.381,1.92c-0.01,2.34,1.43,4.81,3.84,6.68
			c0.99,0.76,2.131,1.41,3.391,1.92c3.48,1.39,7.061,1.31,9.51,0.02C603.413,257.566,604.364,256.596,604.864,255.336z"/>
		<path fill="#BD222F" d="M602.172,308.996c-0.01,0-0.01,0-0.01,0c-2.34,1.47-4.139,3.43-5.94,5.57c-0.93,1.1-1.99,2.28-3.189,3.12
			c-8.311,12.58-28.451,8.93-28.771,8.87c0.07,2.35,0.061,5.78-0.279,9.861c-0.25,3.02-0.859,5.609-1.5,7.63
			c0,0,10.68,4.27,19.18,0.37c2.26-3.261,4.881-6.221,8.07-8.701c2.92-2.25,6.26-4.121,9.779-5.611
			c2.221-3.62,6.111-13.939,7.92-22.16C605.663,308.366,603.893,308.706,602.172,308.996z"/>
		<path d="M587.044,236.206c0.779,1.68,2.18,2.96,3.93,3.6c0.391,0.14,0.811,0.25,1.221,0.32c0.129,0.02,0.26,0.05,0.398,0.07
			c0.131,0.01,0.262,0.02,0.391,0.03c0.131,0.01,0.26,0.01,0.391,0.01c0.289,0,0.57-0.02,0.85-0.05c0.721-0.09,1.43-0.3,2.09-0.61
			c1.699-0.79,2.981-2.18,3.609-3.94c0.221-0.58-0.09-1.22-0.67-1.43c-0.559-0.21-1.209,0.08-1.42,0.66
			c-0.439,1.2-1.309,2.16-2.469,2.69c-1.15,0.53-2.432,0.59-3.631,0.15c-1.189-0.42-2.141-1.3-2.68-2.45
			c-0.529-1.15-0.59-2.44-0.16-3.63c0.211-0.59-0.08-1.22-0.66-1.43c-0.49-0.18-1,0-1.279,0.38c-0.031,0.03-0.061,0.08-0.08,0.14
			c-0.01,0.02-0.031,0.04-0.031,0.07c-0.01,0.01-0.019,0.03-0.019,0.04c0,0.01-0.01,0.03-0.02,0.04
			C586.163,232.606,586.243,234.506,587.044,236.206z"/>
		<path fill="#F2D4B1" d="M585.364,249.616l0.049-0.01c0.01-0.66,0.131-1.3,0.381-1.92c0.939-2.35,3.49-3.73,6.6-3.85
			c0.109-0.01,0.211-0.01,0.311-0.02c0.07,0,0.139,0,0.209,0c0.111,0,0.221,0,0.34,0.01c1.521,0.03,3.15,0.36,4.771,1
			c3.279,1.32,5.719,3.66,6.719,6.11c0.59,1.49,0.67,3.01,0.121,4.4c-0.5,1.26-1.451,2.23-2.711,2.89
			c0.44,0.43,12.57,12.02,26.731,2.95c-3.01-3.05-5.279-8.56-7.041-12.22c-0.238-0.49-0.469-0.99-0.709-1.49
			c-1.721-3.75-3.24-7.62-5.301-11.21c-4.76-8.34-13.869-17.09-24.299-13c-1.391,0.54-2.66,1.35-3.811,2.3
			c-0.35,0.29-3.619,3.59-3.619,3.59s-0.4,0.47-1.06,1.32c-0.1,0.12-0.201,0.25-0.301,0.39c-1.92,2.47-5.51,7.44-8.609,13.48
			C575.534,247.286,578.604,250.266,585.364,249.616z M607.243,243.216c0.32-0.54,0.98-0.73,1.52-0.43l8.971,5.01
			c0.381,0.21,0.58,0.61,0.58,1.01c-0.01,0.17-0.061,0.35-0.15,0.5c-0.18,0.33-0.5,0.53-0.83,0.57c-0.24,0.03-0.479-0.01-0.68-0.13
			l-8.58-4.8l-0.391-0.21C607.153,244.436,606.954,243.756,607.243,243.216z M586.842,230.786c0-0.03,0.021-0.05,0.031-0.07
			c0.02-0.06,0.049-0.11,0.08-0.14c0.279-0.38,0.789-0.56,1.279-0.38c0.58,0.21,0.871,0.84,0.66,1.43
			c-0.43,1.19-0.369,2.48,0.16,3.63c0.539,1.15,1.49,2.03,2.68,2.45c1.199,0.44,2.48,0.38,3.631-0.15
			c1.16-0.53,2.029-1.49,2.469-2.69c0.211-0.58,0.861-0.87,1.42-0.66c0.58,0.21,0.891,0.85,0.67,1.43
			c-0.629,1.76-1.91,3.15-3.609,3.94c-0.66,0.31-1.369,0.52-2.09,0.61c-0.279,0.03-0.56,0.05-0.85,0.05c-0.131,0-0.26,0-0.391-0.01
			c-0.129-0.01-0.26-0.02-0.391-0.03c-0.139-0.02-0.269-0.05-0.398-0.07c-0.41-0.07-0.83-0.18-1.221-0.32
			c-1.75-0.64-3.15-1.92-3.93-3.6c-0.801-1.7-0.881-3.6-0.24-5.34c0.01-0.01,0.02-0.03,0.02-0.04
			C586.823,230.816,586.833,230.796,586.842,230.786z"/>
		<path fill="#E6282B" d="M548.874,324.555c0.67-4.16,4.25-3.41,7.449-2.95c1.81,0.28,3.609,0.59,5.41,1.02
			c0.189,0.04,2.34,0.45,2.35,0.62c0,0,0.131,1.21,0.18,3.31c0.32,0.06,20.461,3.71,28.771-8.87c-1.291,0.92-2.771,1.44-4.5,1.09
			c-4.201-0.81-3.07-5.14-1.451-8.35c-2.129,0.04-3.389,0-3.389,0l5.279-4.22c-18.73,5.26-30.23,0.78-36.449-3.68
			c0,0-0.021,0.01-0.07,0.05c-0.01,0.01-0.031,0.03-0.061,0.05c-0.869,0.75-6.141,5.29-12.609,11.51c0.1,1.75,0.148,3.5,0.17,5.25
			c1.33,0.21,2.719,0.42,3.859,1.04C545.762,321.476,546.493,324.176,548.874,324.555z"/>
		<path fill="#E6282B" d="M562.483,344.047c-0.99,3.16-2.08,4.97-2.08,4.97s-5.4-0.54-10.51-1.28c-5.119-0.75-3.199-5.15-3.199-5.15
			v-0.021c-1.871,0.071-3.67,0.561-5.281,1.301c-1.719,0.789-4.99,0.47-8,0.21c-1.119-0.08-2.199-0.16-3.139-0.171
			c-2.291-0.02-4.91-0.46-6.99-1.44c-3-1.42-2.471-5.34-2.141-8.17c-4.49,6.06-8.24,12.47-10.189,18.721l-0.01,0.01
			c-0.021,1.591-0.051,3.16-0.051,4.721c0.051,8.77-1.09,16.851,4.35,24.471c4.451,6.22,12.01,10.06,19.59,10.851
			c4.5,0.46,9.941-0.149,14.23-1.59c13.891-4.72,18.99-20.601,24.65-32.572c2.33-4.96,4.799-9.99,7.949-14.49
			C573.163,348.316,562.483,344.047,562.483,344.047z"/>
		<path fill="#FFFFFF" d="M561.733,322.626c-1.801-0.43-3.6-0.74-5.41-1.02c-3.199-0.46-6.779-1.21-7.449,2.95l2.6,0.42
			c-0.06,3.94-0.391,12.75-2.07,17.831c-0.91-0.189-1.82-0.26-2.709-0.241v0.021c0,0-1.92,4.4,3.199,5.15
			c5.109,0.74,10.51,1.28,10.51,1.28s1.09-1.809,2.08-4.97c0.641-2.021,1.25-4.611,1.5-7.63c0.34-4.081,0.35-7.511,0.279-9.861
			c-0.049-2.1-0.18-3.31-0.18-3.31C564.073,323.076,561.922,322.666,561.733,322.626z"/>
		<path fill="#BD222F" d="M557.083,259.626c0.74-2.88,1.711-5.07,2.801-6.73c0,0-12.641-1.6-23.33-20.08
			c-0.5-0.87-0.99-1.76-1.471-2.69l-0.01-0.02c-6.02,1.37-12.18,5.09-15.41,7.25c0.131,0.28,0.519,1.04,1.131,2.16
			c3.81,6.99,16.32,28.14,31.65,34.66c1.279,0.55,2.559,1.01,3.879,1.33C556.182,271.536,555.342,266.396,557.083,259.626z"/>
		<path fill="#DB232C" d="M538.383,303.926c0.26-0.12,0.529-0.2,0.83-0.24c1.57-0.19,2.98,0.9,3.17,2.46
			c0.199,1.55-0.9,2.96-2.461,3.16c-0.189,0.02-0.389,0.03-0.58,0.01c0.201,1.59,0.34,3.2,0.441,4.82
			c6.469-6.22,11.74-10.76,12.609-11.51c0.029-0.02,0.051-0.04,0.061-0.05c0.049-0.04,0.07-0.05,0.07-0.05
			c-4.182-3-5.98-5.98-5.98-5.98c3.959,0.25,7.99-1.98,7.99-1.98l-7.01,0.88c8.299-1.07,9.219-11.61,9.219-11.61l-5.709,0.72
			c4.85-2.14,5.449-4.98,5.289-9.05c-1.32-0.32-2.6-0.78-3.879-1.33l-0.012,0.01c0,0-11.279,4.31-22.828,13.64
			c1.148,1.18,2.219,2.44,3.209,3.76C535.633,295.356,537.342,299.536,538.383,303.926z"/>
		<path fill="#FFFFFF" d="M542.383,306.146c-0.19-1.56-1.6-2.65-3.17-2.46c-0.301,0.04-0.57,0.12-0.83,0.24
			c0.42,1.76,0.73,3.57,0.959,5.39c0.191,0.02,0.391,0.01,0.58-0.01C541.483,309.106,542.583,307.695,542.383,306.146z"/>
		<path fill="#FFFFFF" d="M535.073,230.106l0.01,0.02c0.48,0.93,0.971,1.82,1.471,2.69h0.01c0,0,10.199,1.14,1.279-10.1
			c-2.709-3.43-5.959-4.98-9.16-5.47c-7.289-1.13-14.34,3.21-14.34,3.21s-5.35,3.05-7.389,5.15c-0.43,0.47-0.92,1.04-1.35,1.72
			c-1.551,2.45-2.5,6.31,1.078,11.54c5.102,7.45,13.791,0.89,14.111,0.65c-0.611-1.12-1-1.88-1.131-2.16
			C522.893,235.196,529.053,231.476,535.073,230.106z"/>
		<path fill="#E6282B" d="M535.252,318.576c0.16,0.02,0.34,0.04,0.5,0.08c0.731,0.11,1.471,0.24,2.18,0.37
			c-0.019-1-0.039-2.01-0.09-3.01c-0.719,0.7-1.44,1.42-2.18,2.15C535.534,318.306,535.383,318.436,535.252,318.576z"/>
		<path fill="#DB232C" d="M533.413,318.376c0.461,0.03,0.92,0.09,1.381,0.14c0.15,0.02,0.299,0.04,0.459,0.06
			c0.131-0.14,0.281-0.27,0.41-0.41c0.74-0.73,1.461-1.45,2.18-2.15c-0.109-2.78-0.34-5.55-0.789-8.26
			c-0.141-0.28-0.24-0.58-0.279-0.91c-0.031-0.23-0.031-0.46,0-0.68c-1.16-5.92-3.451-11.47-7.92-16.13
			c-0.291-0.3-0.57-0.59-0.871-0.88c-1.811,1.53-3.619,3.19-5.379,4.98l-0.65,0.67c-0.01,0.01-0.031,0.02-0.041,0.03l-1.529,1.63
			c-0.231,0.26-0.461,0.51-0.69,0.78c0.699,0.64,1.369,1.33,2.02,2.04c4.959,5.46,8.209,12.04,10.32,19.02
			c0.119-0.01,0.25,0,0.369,0.01C532.743,318.316,533.073,318.356,533.413,318.376z"/>
		<path fill="#FFFFFF" d="M537.053,307.756c-0.08-0.53-0.17-1.06-0.279-1.59c-0.031,0.22-0.031,0.45,0,0.68
			C536.813,307.176,536.913,307.476,537.053,307.756z"/>
		<path fill="#BD222F" d="M529.973,318.376h0.01c0.32-0.03,0.631-0.06,0.939-0.07h1.061c0.019,0,0.029,0,0.051,0
			c-2.111-6.98-5.361-13.56-10.32-19.02c-0.65-0.71-1.32-1.4-2.02-2.04c-5.471-5.13-12.451-8.34-19.771-9.93
			c-23.619-5.14-46.789,5.39-69.76,9.04c-12.44,1.98-24.68,1.8-36.959,0.18c9.52-5.12,19.19-9.93,29.219-14.02
			c23.852-9.71,49.941-14.4,75.41-8.79c11.191,2.46,21.951,7.33,30.15,15.43c0.301,0.29,0.58,0.58,0.871,0.88
			c4.469,4.66,6.76,10.21,7.92,16.13c0.109,0.53,0.199,1.06,0.279,1.59c0.449,2.71,0.68,5.48,0.789,8.26
			c0.051,1,0.07,2.01,0.09,3.01c0.221,0.04,0.441,0.08,0.66,0.12c0.441,0.09,0.891,0.16,1.361,0.24c-0.022-1.75-0.07-3.5-0.17-5.25
			c-0.102-1.62-0.24-3.23-0.441-4.82c-0.229-1.82-0.539-3.63-0.959-5.39c-1.041-4.39-2.75-8.57-5.57-12.34
			c-0.99-1.32-2.061-2.58-3.209-3.76c-6.58-6.79-15.551-11.34-24.41-14.19c-23.361-7.53-49.33-4.75-72.24,2.85
			c-15.051,4.99-29.261,11.98-43.17,19.57c-2.42-0.37-4.851-0.8-7.281-1.27c-13.76-2.68-27.809-6.88-41.939-6.51
			c-10.35,0.27-20.279,3.66-28.72,9.62c-8.11,5.73-14.53,13.53-19.92,21.82h0.04c0.82-0.08,1.63-0.11,2.42-0.09
			c4.19-6.3,9.01-12.16,14.77-17.12c8.29-7.11,18.5-11.32,29.381-12.13c6.569-0.49,13.069,0.45,19.529,1.56
			c7.71,1.31,15.33,3.06,23,4.6c1.971,0.39,3.93,0.75,5.891,1.08c-9.761,5.38-19.381,11.02-29.06,16.42
			c-11.95,6.68-24.12,13.149-36.49,19.04c-1.72,0.819-3.46,1.619-5.23,2.39c-11.28,4.96-23.37,8.69-35.77,7.911
			c-1.13-0.07-2.25-0.2-3.369-0.37c0.01,0.03,0.01,0.07,0.02,0.11c0.05,0.64-0.01,1.26-0.16,1.84c11.36,1.6,22.83-0.99,33.57-5.021
			c2.11-0.79,4.21-1.64,6.28-2.53c10.43-4.46,20.43-10.02,30.449-15.28c14.54-7.62,28.64-16.11,43.05-23.98
			c12.131,1.8,24.221,2.27,36.57,0.69c23.301-2.98,46.029-13.77,69.9-10.09c8.061,1.24,15.68,4.48,21.68,10.04
			c0.279,0.25,0.561,0.51,0.83,0.78C524.463,304.746,527.813,311.385,529.973,318.376z"/>
		<path fill="#BD222F" d="M531.813,322.126c-0.01,0.11-0.051,0.19-0.109,0.27c0.1-0.1,0.15-0.24,0.119-0.4
			C531.823,322.046,531.813,322.086,531.813,322.126z"/>
		<path fill="#BD222F" d="M514.342,220.456c0,0,7.051-4.34,14.34-3.21c-1-3.49-2.42-8.2-0.17-11.49
			c1.061-1.53,2.631-2.87,2.881-4.82c0.439-3.44-3.859-5.73-6.83-4.75c-2.881,0.93-3.699,4.2-4.33,6.77
			c-1.24-3.28-2.67-6.49-4.641-9.4c-2.898-4.32-7.27-9.08-12.738-9.66c-3.541-0.38-8.022,0.97-11.061,2.77
			c-19.57,11.58,13.811,40.66,13.811,40.66c0.43-0.68,0.92-1.25,1.35-1.72C508.993,223.506,514.342,220.456,514.342,220.456z"/>
		<path fill="#DB232C" d="M510.944,353.027l0.01-0.01c1.949-6.251,5.699-12.661,10.189-18.721c0-0.15,0.02-0.3,0.039-0.43
			c0.141-1.341-0.129-3.04,0.272-4.361c-0.211,0.09-0.441,0.149-0.68,0.18c-1.541,0.19-2.961-0.899-3.16-2.47
			c-0.191-1.54,0.92-2.95,2.459-3.15c1.35-0.17,2.59,0.65,3.019,1.891c0-0.09,0.012-0.181,0.021-0.271
			c0.129-2.18-0.281-4.359,1.818-5.74c1.121-0.73,2.522-1.19,3.941-1.43l1.1-0.14c-2.16-6.99-5.51-13.63-10.75-18.81
			c-0.269-0.27-0.551-0.53-0.83-0.78c-0.41,0.49-0.811,0.99-1.211,1.5l-0.568,0.76c-0.15,0.18-0.281,0.36-0.42,0.55l-1.32,1.84
			c-3.43,5-6.269,10.69-7.99,17.09c0.15,0.32,0.299,0.64,0.459,0.96C511.954,331.275,511.182,342.376,510.944,353.027z"/>
		<path fill="#FFFFFF" d="M522.463,327.956c0.4-0.61,0.56-1.29,0.629-1.99c0-0.01,0-0.01,0-0.01c-0.43-1.24-1.67-2.061-3.019-1.891
			c-1.539,0.2-2.65,1.61-2.459,3.15c0.199,1.57,1.619,2.66,3.16,2.47c0.238-0.03,0.469-0.09,0.68-0.18
			c0.029-0.08,0.049-0.16,0.08-0.24C521.743,328.765,522.163,328.405,522.463,327.956z"/>
		<path fill="#A97D50" d="M480.592,319.046c-3.51-3.67-10.148-5.35-14.92-3.95c-6,1.74-9.148,8.53-9.209,14.469
			c-0.07,6.941,3.859,13.311,8.449,18.231c-4.779-16.301,20.09-17.531,20.09-17.531h0.01c-0.01-0.52-0.039-1.02-0.1-1.54
			C484.573,325.326,482.993,321.536,480.592,319.046z"/>
	</g>
	<g>
		<path fill="none" d="M350.922,382.408c4.65,1.851,10.381,2.881,15.171,3.451c-8.021-1.6-14.56-3.69-14.56-3.69
			C351.333,382.248,351.124,382.328,350.922,382.408z"/>
		<path fill="none" d="M219.683,367.397c-0.28-0.45-0.55-0.92-0.79-1.399c-1.81-0.32-3.02-0.54-3.02-0.54
			c0.22,0.04,0.99,2.38,1.069,2.58c1.78,4.17,3.561,8.331,5.49,12.44c1.76,3.741,3.13,7.71,5.3,11.25
			c0.99,1.59,2.101,3.18,3.631,4.3c1.8,1.311,4.079,1.69,5.939,2.86c0.24,0.15,1.42,0.93,2.14,1.6l0.011,0.011l2.42,1.779
			c-0.87-1.55-1.61-3.17-2.33-4.68c-2.101-4.41-4-8.901-6.29-13.211c-1.41-2.661-2.68-5.46-4.03-8.201
			c-2.33-1.17-4.45-2.71-6.27-4.57C221.713,370.347,220.614,368.937,219.683,367.397z"/>
		<polygon fill="#3B2417" points="387.213,387.228 397.743,387.448 395.153,382.869 396.784,376.328 386.683,378.098 
			387.213,387.219 		"/>
		<path fill="#764E2A" d="M317.983,348.396c0.591,6.771-1.76,13.13-5.989,17.791c7.59,22.232,26,8.031,34.37,13.851
			c1.309,0.909,2.859,1.699,4.559,2.369c0.201-0.079,0.41-0.159,0.611-0.239c0,0,6.539,2.09,14.56,3.69
			c3.84,0.46,7.069,0.63,8.649,0.691l10.101-1.771l-0.7,2.801c1.08-0.06,2.1-0.181,3.07-0.36l-0.53-9.121
			c-4.28-0.16-20.649-1.12-28.38-6.51c-8.95-6.23-29.37,10.43-35.79-19.011c-1.189-5.46-2.97-8.74-5.08-10.461l0.21,2.31
			L317.983,348.396z"/>
		<polygon fill="#3B2417" points="374.743,386.549 374.784,387.249 375.273,395.679 375.273,395.689 385.813,395.908 
			383.213,391.329 384.143,387.579 384.843,384.778 		"/>
		<path fill="#603B17" d="M290.673,256.096c8.04-1.37,14.33,3.24,21.6,5.61c3.261,1.08,6.271,1.34,9.07,0.98
			c1.95,4.58,5.72,7.58,11.49,6.81c6.04-0.82,11.649-5,15.71-9.33c3.31-3.51-2.42-8.27-5.68-4.78c-3.011,3.2-11.58,9.93-14.511,4.93
			c7.08-3.98,12.28-12.07,16.09-19.71c2.15-4.3-4.59-7.47-6.72-3.19c-1.39,2.81-2.89,5.65-4.649,8.3
			c-4.08-2.5-7.091-7.11-3.971-11.73c2.66-3.93-3.01-8.76-5.7-4.78c-2.52,3.75-3.25,7.71-2.56,11.41c0.03,0.23,0.09,0.46,0.14,0.69
			c0.92,4,3.521,7.61,7.28,10.16c-0.87,0.81-1.8,1.58-2.81,2.25c-0.79,0.53-1.601,0.94-2.41,1.21c-0.42,0.06-0.82,0.17-1.2,0.34
			c-3.64,0.79-7.43-0.49-11.03-2.07c0.641-3.01,1.2-6.22,4.54-6.71c2.511-0.38,3.521-2.63,3.181-4.57
			c-0.011-0.11-0.03-0.21-0.061-0.31c-0.04-0.17-0.09-0.33-0.149-0.49c-0.521-1.34-1.74-2.33-3.61-2.03
			c-3.95,0.58-6.93,2.27-8.95,5.75c-0.95,1.62-1.42,3.5-1.84,5.37c-12.26-4.39-23.92,0.2-32.809,8.54
			c1.289,2.33,2.17,5.01,2.689,7.84C278.294,261.506,283.803,257.246,290.673,256.096z"/>
		<path fill="#8A5E3C" d="M276.893,344.957c0,0.01-0.01,0.02-0.01,0.029c-0.05,0.15-0.08,0.29-0.14,0.431
			c-0.1,0.31-0.24,0.62-0.41,0.899c-0.391,0.67-0.91,1.261-1.561,1.7c0.511,7.581,0.23,16.841-1.54,27.812l8.37-0.74l2.99-0.26
			c5.57,11.98,20.08,29.771,55,15.79c0,0,0.15,0.05,0.44,0.14c3.229,0.99,23.649,7.031,35.239,4.92l-0.489-8.43l-0.041-0.7
			c-1.58-0.061-4.81-0.23-8.649-0.691c-4.79-0.569-10.521-1.6-15.171-3.451c-1.699-0.67-3.25-1.46-4.559-2.369
			c-8.37-5.82-26.78,8.38-34.37-13.851c4.229-4.661,6.58-11.02,5.989-17.791l-0.34-3.97l-0.21-2.31l-0.14-1.61
			c-0.09-0.73-0.19-1.45-0.34-2.15l-0.21-0.95c-2.07,0.891-4.17,1.74-6.28,2.53C299.723,343.966,288.253,346.556,276.893,344.957z"
			/>
		<path fill="#A77D4F" d="M317.353,323.586c-0.45-5.06-4.92-8.81-9.979-8.37c-3.36,0.29-6.13,2.34-7.49,5.15
			c6.07,1.58,11.26,5.55,14.38,10.93C316.383,329.435,317.603,326.605,317.353,323.586z"/>
		<path fill="#8A5E3C" d="M276.994,342.726c0.02,0.09,0.029,0.18,0.04,0.28c1.119,0.17,2.239,0.3,3.369,0.37
			c12.4,0.779,24.49-2.951,35.77-7.911c-0.5-1.47-1.15-2.86-1.91-4.17c-3.12-5.38-8.31-9.35-14.38-10.93
			c-1.59-0.41-3.25-0.67-4.93-0.73c-0.19-0.01-0.38-0.01-0.57-0.01c-0.79-0.02-1.6,0.01-2.42,0.09h-0.04l-0.94,0.08l-5.899,0.52
			l-1.47,0.12l-15.23,1.33c0,0,3.38,5.509,5.3,16.79C275.393,339.246,276.693,340.796,276.994,342.726z"/>
		<path fill="#764E2A" d="M298.343,268.906c1.26-2.05,1.49-3.55,1.49-3.55c-14.55-8.72-25.63,2.03-25.86,2.26
			c0.23,1.54,0.351,3.1,0.391,4.68C274.364,272.296,289.853,262.206,298.343,268.906z"/>
		<path fill="#A77D4F" d="M274.364,272.296c0.05,2.78-0.2,5.53-0.691,8.04c15.941-1.3,22.24-7.44,24.67-11.43
			C289.853,262.206,274.364,272.296,274.364,272.296z"/>
		<path fill="#F39123" d="M273.683,338.556c-0.77-0.32-1.63-0.47-2.52-0.39c-0.95,0.09-1.811,0.41-2.54,0.9
			c-1.601,1.06-2.58,2.94-2.391,4.991c0.21,2.49,2.08,4.46,4.42,4.87c0.471,0.1,0.95,0.12,1.45,0.07c1-0.08,1.92-0.44,2.67-0.98
			c0.65-0.439,1.17-1.03,1.561-1.7c-1.54-0.449-3.05-1-4.57-1.649c-0.35-0.16-0.37-0.53-0.21-0.78c0.86,0.23,1.72,0.43,2.59,0.6
			c0.85,0.341,1.721,0.66,2.6,0.931c0.06-0.141,0.09-0.28,0.14-0.431c0-0.01,0.01-0.02,0.01-0.029c0.15-0.58,0.21-1.2,0.16-1.84
			c-0.01-0.04-0.01-0.08-0.02-0.11c-0.011-0.101-0.021-0.19-0.04-0.28C276.693,340.796,275.393,339.246,273.683,338.556z"/>
		<path fill="#F39424" d="M271.553,343.887c-0.16,0.25-0.14,0.62,0.21,0.78c1.521,0.649,3.03,1.2,4.57,1.649
			c0.17-0.279,0.31-0.59,0.41-0.899c-0.88-0.271-1.75-0.59-2.6-0.931C273.273,344.316,272.414,344.117,271.553,343.887z"/>
		<path fill="#BD222F" d="M274.773,348.016c-0.75,0.54-1.67,0.9-2.67,0.98c-0.5,0.05-0.979,0.029-1.45-0.07
			c1.101,7.901,1.061,17.151-1.43,27.251l4.01-0.35C275.003,364.857,275.284,355.597,274.773,348.016z"/>
		<path fill="#603B17" d="M267.534,254.306c2.85-4.58,4.909-9.92,5.75-14.78c1.39-8.08-3.551-15.54-9.471-20.54
			c-0.31-0.27-0.649-0.53-0.96-0.77c1.29-1.28,2.19-2.95,2.57-5.07c0.77-4.38-0.98-9-2.27-13.11c-0.899-2.91-4.02-2.93-5.829-1.38
			c-0.101,0.07-0.181,0.16-0.271,0.25c-0.16,0.15-0.29,0.32-0.42,0.49c-0.59,0.85-0.85,1.96-0.45,3.23
			c0.76,2.44,1.58,4.85,1.891,7.39c0.3,2.52-0.36,3.38-2.49,3.62c-3.431-2.03-6.7-4.22-8.86-7.89c-0.62-1.04-1.21-2.2-1.75-3.43
			c2.38-0.79,4.65-1.57,6.51-3.09c0.12-0.1,0.24-0.2,0.36-0.31c0.1-0.09,0.2-0.19,0.3-0.29c0.71-0.69,1.35-1.51,1.88-2.52
			c2.261-4.18,1.761-8.78,1.801-13.35c0.06-4.8-7.36-4.11-7.41,0.65c-0.02,2.87,0.45,6-0.681,8.73c-0.83,2-2.909,2.72-4.98,3.26
			c-0.8-3.98-0.77-8.07,0.7-11.42c1.97-4.39-4.75-7.55-6.721-3.19c-3.52,7.92-2.1,18,2.221,26.15c-5.34,1.88-7.32-6.28-5.391-10.9
			c1.851-4.43-4.88-7.61-6.71-3.18c-2.39,5.7-1.97,12.5,1.78,17.56c3.68,4.95,9.54,5.28,14.53,2.76c1.73,2.03,3.68,3.78,5.779,5.16
			c6.36,4.14,13.351,7.12,16.431,14.65c1.7,4.08-0.03,8.35-1.71,12.11c-0.87,1.95-1.771,3.84-2.84,5.63
			c2.29,0.69,4.449,1.76,6.399,3.31C267.324,254.135,267.433,254.216,267.534,254.306z"/>
		<path fill="#BD222F" d="M271.164,338.166c0.89-0.08,1.75,0.069,2.52,0.39c-1.92-11.281-5.3-16.79-5.3-16.79l-6.83,0.6
			c0.82,1.3,4.47,7.369,7.07,16.7C269.353,338.576,270.213,338.256,271.164,338.166z"/>
		<path fill="#8A5E3C" d="M270.653,348.927c-2.34-0.41-4.21-2.38-4.42-4.87c-0.189-2.05,0.79-3.93,2.391-4.991
			c-2.601-9.331-6.25-15.4-7.07-16.7l-7.93,0.69l-0.03-0.28c-5.31,0.46-7.31-2.04-7.63-5.609c-0.62-7.12,5.54-18.41,5.54-18.41
			l-0.01-0.08c0.42-0.05,0.84-0.12,1.27-0.18c8.58-1.37,16.63-5.54,19.75-13.98c0.46-1.27,0.851-2.69,1.16-4.18
			c0.49-2.51,0.74-5.26,0.691-8.04c-0.04-1.58-0.16-3.14-0.391-4.68c-0.059-0.36-0.12-0.7-0.17-1.03c-0.52-2.83-1.4-5.51-2.689-7.84
			c-0.95-1.72-2.131-3.23-3.58-4.44c-0.101-0.09-0.21-0.17-0.311-0.27c-1.95-1.55-4.109-2.62-6.399-3.31
			c-0.171-0.05-0.341-0.1-0.521-0.14c-1.729-0.49-3.54-0.75-5.4-0.81c-3.059-0.14-6.21,0.23-9.279,0.94
			c-4.87,1.13-9.561,3.09-13.38,5.29c-6.771,3.85-13.311,8.72-19.221,13.79l-0.01,0.01c2.29,2.2,3.24,5.05,2.23,7.41
			c-1.46,3.45-6.57,4.56-11.391,2.52c-0.5-0.22-0.98-0.46-1.43-0.72c0.38,0.53,9.9,13.38,27.52,18.3c2.7,0.75,5.601,1.33,8.681,1.63
			v0.01c0,0,1.48,7.69,2.27,18.56c0.15,2.1,0.28,4.31,0.36,6.62c0.399,10.88-0.14,23.671-3.28,34.881l-8.38-2.56
			c0,0-5.32-2.61-7.13,1.08c-0.1,0.199-0.191,0.399-0.28,0.59c-1.569,3.26-1.97,4.67,1.29,8.64c0.021,0.021,0.04,0.05,0.061,0.07
			c2.31,2.83,4.069,6.05,5.689,9.35c1.351,2.74,2.62,5.54,4.03,8.201c2.29,4.31,4.189,8.8,6.29,13.211
			c0.72,1.51,1.46,3.13,2.33,4.68c1,1.831,2.16,3.571,3.64,4.931c0.101,0.09,0.19,0.18,0.29,0.26c1.2,1.059,2.85,1.96,4.47,2.42
			c0.62-0.41,6.49-8.34,6.49-8.34l0.66,0.49c-0.71-0.67-1.89-1.44-2.14-1.591c-1.851-1.17-4.131-1.56-5.931-2.869
			c-1.529-1.12-2.64-2.71-3.63-4.301c-2.18-3.54-3.55-7.51-5.309-11.251c-0.53-1.13-1.05-2.26-1.55-3.39
			c0.949,0.04,1.909,0.02,2.88-0.06l27.479-2.4C271.713,366.078,271.753,356.827,270.653,348.927z M246.223,262.536
			c1.15-0.09,2.26,1.57,2.45,3.75c0.19,2.17-0.61,4.01-1.771,4.1c-1.159,0.11-2.25-1.56-2.439-3.73
			C244.263,264.476,245.053,262.646,246.223,262.536z M235.044,367.227c-0.16,0.4-0.351,0.79-0.54,1.17
			c-0.25-0.67-0.53-1.37-0.65-1.39C233.853,367.008,234.294,367.088,235.044,367.227z"/>
		<path fill="#3B2417" d="M250.273,409.889c0,0.01-0.01,0.01-0.01,0.01l7.24,6.361l2.34-5.991l5.61-2.32l-8.02-5.9l-0.01-0.01
			l-0.66-0.49C256.763,401.549,250.893,409.479,250.273,409.889z"/>
		<path fill="#764E2A" d="M254.914,249.516l-0.011,0.26c1.86,0.06,3.671,0.32,5.4,0.81c0.86-13.96-8.42-18.72-8.42-18.72
			c-1.3,0.89-2.35,1.9-3.21,2.98h0.01C248.683,234.846,255.183,239.796,254.914,249.516z"/>
		<path fill="#A77D4F" d="M254.903,249.776l0.011-0.26c0.27-9.72-6.23-14.67-6.23-14.67h-0.01c-5.21,6.5-3.15,15.49-3.15,15.49
			l0.101,0.38C248.693,250.006,251.843,249.635,254.903,249.776z"/>
		<path d="M246.903,270.385c1.16-0.09,1.961-1.93,1.771-4.1c-0.19-2.18-1.3-3.84-2.45-3.75c-1.17,0.11-1.96,1.94-1.76,4.12
			C244.653,268.826,245.744,270.496,246.903,270.385z"/>
		<path fill="#3B2417" d="M239.454,400.499l-0.011-0.011l-0.659-0.489c0,0-5.881,7.921-6.49,8.34c0,0.01-0.01,0.01-0.01,0.01
			l7.239,6.361l2.341-6l3.649-1.5c-1.479-1.36-2.64-3.101-3.64-4.931L239.454,400.499z"/>
		<path fill="#603B17" d="M238.784,399.999l0.659,0.489c-0.72-0.67-1.899-1.449-2.14-1.6c-1.86-1.17-4.14-1.55-5.939-2.86
			c-1.53-1.12-2.641-2.71-3.631-4.3c-2.17-3.54-3.54-7.51-5.3-11.25c-1.93-4.109-3.71-8.27-5.49-12.44
			c-0.079-0.2-0.85-2.54-1.069-2.58c0,0,1.21,0.22,3.02,0.54c-0.5-0.931-0.92-1.91-1.27-2.931c-0.65-1.82-1.09-3.77-1.26-5.8
			l-0.02-0.23l-0.06-0.71l-4.67-1.421c0,0-5.33-2.61-7.131,1.08c-1.79,3.7-2.439,5.03,1.011,9.231
			c4.27,5.19,6.659,11.741,9.779,17.621c2.29,4.31,4.191,8.79,6.29,13.211c1.62,3.39,3.351,7.35,6.261,9.871
			c1.199,1.06,2.84,1.96,4.47,2.42C232.903,407.92,238.784,399.999,238.784,399.999z"/>
		<path fill="#C2976A" d="M234.503,368.397c0.189-0.38,0.38-0.77,0.54-1.17c-0.75-0.14-1.19-0.22-1.19-0.22
			C233.973,367.027,234.253,367.727,234.503,368.397z"/>
		<path fill="#C2976A" d="M216.364,357.267c0.17,2.03,0.609,3.98,1.26,5.8c0.35,1.021,0.77,2,1.27,2.931
			c0.24,0.479,0.51,0.949,0.79,1.399c0.931,1.54,2.03,2.95,3.27,4.221c1.819,1.86,3.94,3.4,6.27,4.57
			c-1.62-3.3-3.38-6.52-5.689-9.35c-0.021-0.021-0.04-0.05-0.061-0.07c-3.26-3.97-2.859-5.38-1.29-8.64
			c0.09-0.19,0.181-0.391,0.28-0.59c1.809-3.69,7.13-1.08,7.13-1.08l8.38,2.56c3.141-11.21,3.68-24.001,3.28-34.881
			c-0.08-2.31-0.21-4.52-0.36-6.62c-0.79-10.87-2.27-18.56-2.27-18.56v-0.01c-3.08-0.3-5.98-0.88-8.681-1.63v0.01
			c0,0-15.27,22.27-14.329,50.561c0.05,0.76,0.079,1.51,0.13,2.25l0.3,3.441l0.24,2.75l0.06,0.71L216.364,357.267z"/>
		<path fill="#BD222F" d="M215.244,277.216c1.01-2.36,0.06-5.21-2.23-7.41c-1.02-1.02-2.32-1.89-3.85-2.54
			c-4.8-2.06-9.9-0.94-11.37,2.51c-1.32,3.08,0.729,6.98,4.62,9.21c0,0,0,0.02,0.01,0.03c0.45,0.26,0.93,0.5,1.43,0.72
			C208.673,281.776,213.784,280.666,215.244,277.216z"/>
	</g>
</g>
</svg>
